G04 ================== begin FILE IDENTIFICATION RECORD ==================*
G04 Layout Name:  C:/Maria_R/lay-27392_sd_card_C/gerber-0918/FabOutput/LAY-27392_C.brd*
G04 Film Name:    psm.art*
G04 File Format:  Gerber RS274X*
G04 File Origin:  Cadence Allegro 16.3-S047*
G04 Origin Date:  Wed Sep 19 15:46:59 2012*
G04 *
G04 Layer:  VIA CLASS/SOLDERMASK_TOP*
G04 Layer:  PIN/SOLDERMASK_TOP*
G04 Layer:  PACKAGE GEOMETRY/SOLDERMASK_TOP*
G04 Layer:  DRAWING FORMAT/FILM_TITLE_BLOCK*
G04 Layer:  BOARD GEOMETRY/OUTLINE*
G04 Layer:  BOARD GEOMETRY/SOLDERMASK_TOP*
G04 *
G04 Offset:    (0.00 0.00)*
G04 Mirror:    No*
G04 Mode:      Positive*
G04 Rotation:  0*
G04 FullContactRelief:  No*
G04 UndefLineWidth:     8.00*
G04 ================== end FILE IDENTIFICATION RECORD ====================*
%FSLAX55Y55*MOIN*%
%IR0*IPPOS*OFA0.00000B0.00000*MIA0B0*SFA1.00000B1.00000*%
%AMMACRO75*
4,1,6,.03346,-.05003,
.00475,-.07874,
-.03346,-.07874,
-.03346,.07874,
.00475,.07874,
.03346,.05003,
.03346,-.05003,
0.0*
%
%ADD75MACRO75*%
%ADD20R,.021X.104*%
%ADD99R,.123X.044*%
%ADD95C,.02*%
%ADD117R,.13X.095*%
%ADD13C,.022*%
%ADD89R,.076X.104*%
%ADD57C,.014*%
%ADD107C,.051*%
%ADD58C,.024*%
%ADD56R,.069X.23*%
%ADD49C,.06*%
%ADD53C,.07*%
%ADD22R,.021X.189*%
%ADD132R,.224X.095*%
%ADD29C,.071*%
%ADD18C,.044*%
%ADD11C,.026*%
%ADD69C,.018*%
%ADD70C,.019*%
%ADD55C,.064*%
%ADD50C,.074*%
%ADD30C,.047*%
%ADD127R,.138X.059*%
%ADD80C,.048*%
%ADD19C,.039*%
%ADD92C,.067*%
%ADD106C,.077*%
%ADD74R,.07X.07*%
%ADD24C,.086*%
%ADD17R,.016X.016*%
%ADD66C,.069*%
%ADD45R,.071X.071*%
%AMMACRO85*
4,1,12,.00296,.04331,
-.02066,.06693,
-.03641,.06693,
-.03641,.10039,
.00493,.10039,
.03642,.0689,
.03642,-.0689,
.00493,-.10039,
-.03641,-.10039,
-.03641,-.06693,
-.02066,-.06693,
.00296,-.04331,
.00296,.04331,
0.0*
%
%ADD85MACRO85*%
%ADD77C,.088*%
%ADD54R,.064X.064*%
%ADD51R,.074X.074*%
%ADD130R,.093X.093*%
%ADD47R,.069X.199*%
%ADD46R,.199X.069*%
%AMMACRO81*
4,1,12,.08861,-.03054,
.08861,.00543,
.0635,.03054,
-.0635,.03054,
-.08861,.00543,
-.08861,-.03054,
-.05706,-.03054,
-.05706,-.01479,
-.04328,-.00101,
.04328,-.00101,
.05706,-.01479,
.05706,-.03054,
.08861,-.03054,
0.0*
%
%ADD81MACRO81*%
%AMMACRO61*
4,1,6,-.03346,.05003,
-.00475,.07874,
.03346,.07874,
.03346,-.07874,
-.00475,-.07874,
-.03346,-.05003,
-.03346,.05003,
0.0*
%
%ADD61MACRO61*%
%ADD110R,.02X.032*%
%ADD39R,.024X.02*%
%ADD83O,.015X.033*%
%ADD63R,.02X.024*%
%ADD41R,.02X.016*%
%ADD100R,.031X.014*%
%ADD84O,.033X.015*%
%ADD34O,.034X.015*%
%ADD21R,.024X.022*%
%ADD121R,.034X.012*%
%ADD42R,.022X.024*%
%ADD33O,.015X.034*%
%ADD112R,.016X.023*%
%ADD102R,.041X.043*%
%ADD60R,.014X.034*%
%ADD31C,.12*%
%ADD119R,.071X.041*%
%ADD115R,.016X.041*%
%ADD118R,.052X.034*%
%ADD113R,.016X.025*%
%ADD72R,.041X.071*%
%ADD67C,.132*%
%ADD62R,.034X.052*%
%ADD27R,.063X.032*%
%ADD16R,.037X.032*%
%ADD123R,.016X.036*%
%ADD111R,.013X.039*%
%ADD109R,.026X.016*%
%ADD108R,.03X.057*%
%ADD93R,.043X.045*%
%ADD78R,.052X.054*%
%ADD43R,.032X.037*%
%ADD10C,.124*%
%ADD122R,.036X.016*%
%ADD101R,.028X.06*%
%ADD71R,.057X.041*%
%ADD64R,.034X.054*%
%ADD128R,.056X.016*%
%ADD126R,.046X.026*%
%ADD86R,.055X.071*%
%ADD68R,.041X.057*%
%ADD48R,.035X.037*%
%ADD131R,.026X.046*%
%ADD87R,.045X.091*%
%ADD76C,.154*%
%ADD65R,.037X.035*%
%ADD35O,.064X.039*%
%ADD28R,.039X.043*%
%ADD23R,.094X.015*%
%ADD120R,.046X.028*%
%ADD104R,.039X.052*%
%ADD73O,.039X.064*%
%ADD44R,.039X.035*%
%ADD40R,.029X.054*%
%ADD37R,.058X.015*%
%ADD15R,.048X.071*%
%ADD116C,.129*%
%ADD105R,.083X.028*%
%ADD88R,.063X.039*%
%ADD26R,.044X.067*%
%ADD14O,.059X.046*%
%ADD133R,.091X.075*%
%ADD124R,.059X.044*%
%ADD114R,.084X.028*%
%ADD103R,.055X.047*%
%ADD94R,.039X.063*%
%ADD91R,.083X.038*%
%ADD36O,.049X.039*%
%ADD129C,.248*%
%ADD125R,.044X.059*%
%ADD97R,.232X.232*%
%ADD96R,.038X.083*%
%ADD38R,.079X.016*%
%ADD32R,.124X.124*%
%ADD25O,.039X.049*%
%ADD12O,.079X.047*%
%ADD90R,.181X.181*%
%ADD52R,.054X.089*%
%ADD98R,.096X.076*%
%AMMACRO79*
4,1,12,-.00296,-.04331,
.02066,-.06693,
.03641,-.06693,
.03641,-.10039,
-.00493,-.10039,
-.03642,-.0689,
-.03642,.0689,
-.00493,.10039,
.03641,.10039,
.03641,.06693,
.02066,.06693,
-.00296,.04331,
-.00296,-.04331,
0.0*
%
%ADD79MACRO79*%
%ADD59R,.099X.067*%
%AMMACRO82*
4,1,12,-.08861,.03054,
-.08861,-.00543,
-.0635,-.03054,
.0635,-.03054,
.08861,-.00543,
.08861,.03054,
.05706,.03054,
.05706,.01479,
.04328,.00101,
-.04328,.00101,
-.05706,.01479,
-.05706,.03054,
-.08861,.03054,
0.0*
%
%ADD82MACRO82*%
%ADD134C,.01*%
%ADD135C,.001*%
%ADD136C,.008*%
%ADD137C,.006*%
G75*
%LPD*%
G75*
G36*
G01X17500Y102500D02*
X13500D01*
Y100550D01*
X17500D01*
Y102500D01*
G37*
G36*
G01X86100Y489100D02*
Y485100D01*
X88050D01*
Y489100D01*
X86100D01*
G37*
G36*
G01X84600Y503100D02*
Y503700D01*
X87600D01*
Y503100D01*
X84600D01*
G37*
G36*
G01X80500Y610800D02*
X76500D01*
Y608850D01*
X80500D01*
Y610800D01*
G37*
G36*
G01X101300Y481700D02*
Y481100D01*
X98300D01*
Y481700D01*
X101300D01*
G37*
G36*
G01X115000Y536500D02*
Y532500D01*
X116950D01*
Y536500D01*
X115000D01*
G37*
G36*
G01X132500Y555300D02*
Y554700D01*
X129500D01*
Y555300D01*
X132500D01*
G37*
G36*
G01X138000Y551000D02*
X142000D01*
Y552950D01*
X138000D01*
Y551000D01*
G37*
G36*
G01X167500Y272000D02*
X171500D01*
Y273950D01*
X167500D01*
Y272000D01*
G37*
G36*
G01X172600Y553300D02*
X173200D01*
Y550300D01*
X172600D01*
Y553300D01*
G37*
G36*
G01X167500Y540000D02*
Y544000D01*
X165550D01*
Y540000D01*
X167500D01*
G37*
G36*
G01X193800Y309500D02*
X193200D01*
Y312500D01*
X193800D01*
Y309500D01*
G37*
G36*
G01X188000Y453600D02*
X192000D01*
Y455550D01*
X188000D01*
Y453600D01*
G37*
G36*
G01X190100Y531500D02*
X190700D01*
Y528500D01*
X190100D01*
Y531500D01*
G37*
G36*
G01X207500Y492700D02*
Y493300D01*
X210500D01*
Y492700D01*
X207500D01*
G37*
G36*
G01X224500Y539000D02*
X220500D01*
Y537050D01*
X224500D01*
Y539000D01*
G37*
G36*
G01X239000Y556500D02*
Y560500D01*
X237050D01*
Y556500D01*
X239000D01*
G37*
G36*
G01X262500Y174000D02*
X266500D01*
Y175950D01*
X262500D01*
Y174000D01*
G37*
G36*
G01X257000Y432500D02*
Y436500D01*
X255050D01*
Y432500D01*
X257000D01*
G37*
G36*
G01X246000Y507500D02*
Y511500D01*
X244050D01*
Y507500D01*
X246000D01*
G37*
G36*
G01X252500Y556500D02*
X256500D01*
Y558450D01*
X252500D01*
Y556500D01*
G37*
G36*
G01X273247Y456356D02*
X280753D01*
Y460456D01*
X273247D01*
Y456356D01*
G37*
G36*
G01Y444544D02*
X280753D01*
Y448644D01*
X273247D01*
Y444544D01*
G37*
G36*
G01X320000Y351500D02*
Y355500D01*
X318050D01*
Y351500D01*
X320000D01*
G37*
G54D100*
X241600Y469031D03*
Y472969D03*
X234412Y469031D03*
Y472969D03*
Y471000D03*
X241600D03*
G54D101*
X238006D03*
G54D110*
X271571Y242242D03*
Y259958D03*
Y473742D03*
Y491458D03*
X305429Y242242D03*
Y259958D03*
Y473742D03*
Y491458D03*
G54D120*
X327735Y135618D03*
Y140539D03*
Y145461D03*
Y150382D03*
X336265Y140539D03*
Y135618D03*
Y150382D03*
Y145461D03*
G54D111*
X286138Y242635D03*
X284563D03*
X282988D03*
X281413D03*
X279839D03*
X278264D03*
X276689D03*
X275114D03*
X273539D03*
Y259565D03*
X275114D03*
X276689D03*
X278264D03*
X279839D03*
X281413D03*
X282988D03*
X284563D03*
X286138D03*
Y474135D03*
X284563D03*
X282988D03*
X281413D03*
X279839D03*
X278264D03*
X276689D03*
X275114D03*
X273539D03*
Y491065D03*
X275114D03*
X276689D03*
X278264D03*
X279839D03*
X281413D03*
X282988D03*
X284563D03*
X286138D03*
X303461Y242635D03*
X301886D03*
X300311D03*
X298736D03*
X297161D03*
X295587D03*
X294012D03*
X292437D03*
X290862D03*
X289287D03*
X287713D03*
Y259565D03*
X289287D03*
X290862D03*
X292437D03*
X294012D03*
X295587D03*
X297161D03*
X298736D03*
X300311D03*
X301886D03*
X303461D03*
Y474135D03*
X301886D03*
X300311D03*
X298736D03*
X297161D03*
X295587D03*
X294012D03*
X292437D03*
X290862D03*
X289287D03*
X287713D03*
Y491065D03*
X289287D03*
X290862D03*
X292437D03*
X294012D03*
X295587D03*
X297161D03*
X298736D03*
X300311D03*
X301886D03*
X303461D03*
G54D102*
X262417Y251100D03*
Y482600D03*
X314583Y251100D03*
Y482600D03*
G54D103*
X263028Y419260D03*
X253972D03*
X263028Y426740D03*
X253972D03*
G54D10*
X0Y0D03*
Y700000D03*
X25000Y350000D03*
X350000Y0D03*
Y350000D03*
Y700000D03*
G54D112*
X286469Y288524D03*
X284500D03*
X282531D03*
Y291476D03*
X284500D03*
G54D121*
X325783Y163519D03*
Y165094D03*
Y166669D03*
Y168244D03*
Y169819D03*
X333067Y163519D03*
Y169819D03*
Y168244D03*
Y166669D03*
Y165094D03*
G54D130*
X338500Y390500D03*
G54D104*
X254000Y454000D03*
Y464000D03*
G54D131*
X335350Y398013D03*
X338500D03*
X341650D03*
Y382987D03*
X338500D03*
X335350D03*
G54D122*
X329520Y200969D03*
Y199000D03*
Y197031D03*
X319480D03*
Y199000D03*
Y200969D03*
G54D113*
X286469Y291398D03*
G54D11*
X4763Y20500D03*
X-5737Y679500D03*
G54D20*
X6500Y144748D03*
Y208248D03*
G54D12*
X-6791Y30285D03*
Y63159D03*
Y349241D03*
Y382115D03*
G54D114*
X272500Y300000D03*
Y305000D03*
Y310000D03*
Y315000D03*
X302500D03*
Y310000D03*
Y305000D03*
Y300000D03*
G54D105*
X251768Y594866D03*
Y591717D03*
Y588567D03*
Y585417D03*
Y582268D03*
Y579118D03*
Y616913D03*
Y601165D03*
Y598016D03*
Y638961D03*
Y635811D03*
Y632661D03*
Y629512D03*
Y626362D03*
Y623213D03*
Y620063D03*
Y661008D03*
Y657858D03*
Y654709D03*
Y651559D03*
Y648409D03*
Y645260D03*
Y642110D03*
Y670457D03*
Y667307D03*
Y664157D03*
X284052Y596441D03*
Y593291D03*
Y590142D03*
Y586992D03*
Y583843D03*
Y580693D03*
Y577543D03*
Y615339D03*
Y599591D03*
Y637386D03*
Y634236D03*
Y631087D03*
Y627937D03*
Y624787D03*
Y621638D03*
Y618488D03*
Y659433D03*
Y656283D03*
Y653134D03*
Y649984D03*
Y646835D03*
Y643685D03*
Y640535D03*
Y668882D03*
Y665732D03*
Y662583D03*
G54D123*
X328437Y193980D03*
X326469D03*
X324500D03*
X322531D03*
X320563D03*
Y204020D03*
X322531D03*
X324500D03*
X326469D03*
X328437D03*
G54D21*
X500Y127020D03*
Y129972D03*
X4000Y366976D03*
Y364024D03*
X-500Y676024D03*
Y678976D03*
X10100Y25876D03*
Y22924D03*
X28000Y156972D03*
Y154020D03*
X18500Y433976D03*
Y431024D03*
X48000Y74624D03*
Y77576D03*
X35500Y97024D03*
Y99976D03*
X31000Y97024D03*
Y99976D03*
Y236524D03*
Y239476D03*
X31500Y248476D03*
Y245524D03*
X45500Y681524D03*
Y678476D03*
Y675524D03*
Y684476D03*
X62200Y249076D03*
Y246124D03*
X62100Y239676D03*
Y236724D03*
X65600Y614024D03*
Y616976D03*
X62100Y614024D03*
Y616976D03*
X69100Y614024D03*
Y616976D03*
X60100Y634024D03*
Y636976D03*
X52600Y653024D03*
Y655976D03*
X82760Y384548D03*
Y387500D03*
Y415976D03*
Y413024D03*
X111200Y99124D03*
Y102076D03*
X106800Y455776D03*
Y452824D03*
X127000Y522476D03*
Y519524D03*
X154200Y154376D03*
Y151424D03*
X150200D03*
Y154376D03*
X143800Y359324D03*
Y362276D03*
X143640Y416217D03*
Y419169D03*
X155900Y481876D03*
Y478924D03*
X144600Y478976D03*
Y476024D03*
X168500Y313976D03*
Y311024D03*
X172000Y313976D03*
Y311024D03*
X164500Y321976D03*
Y319024D03*
X168500Y321976D03*
Y319024D03*
X172000Y321976D03*
Y319024D03*
Y487476D03*
Y484524D03*
X176000Y487476D03*
Y484524D03*
X163919Y487350D03*
Y484398D03*
X181000Y272024D03*
X184186Y285766D03*
Y282814D03*
X181000Y274976D03*
X188300Y284976D03*
Y282024D03*
X183227Y305132D03*
Y308084D03*
X193100Y321976D03*
Y319024D03*
X196500Y321976D03*
Y319024D03*
X182900Y321976D03*
Y319024D03*
X186300Y321976D03*
Y319024D03*
X189700Y321976D03*
Y319024D03*
X201200Y353976D03*
Y351024D03*
X190500Y466524D03*
X200500Y450024D03*
Y452976D03*
X190500Y469476D03*
X212000Y224976D03*
Y222024D03*
X219700Y265676D03*
Y262724D03*
X208500Y291476D03*
Y288524D03*
X218500Y337476D03*
Y334524D03*
X202500Y336024D03*
X218500Y325476D03*
Y322524D03*
X222500Y337476D03*
Y334524D03*
X222000Y325476D03*
Y322524D03*
X202500Y338976D03*
X219500Y450024D03*
Y452976D03*
X204500Y450024D03*
Y452976D03*
X214500Y450024D03*
Y452976D03*
X221000Y466524D03*
X217600D03*
X209500Y450024D03*
Y452976D03*
X221000Y469476D03*
X217600D03*
X234800Y265676D03*
Y262724D03*
X226500Y337476D03*
Y334524D03*
X226000Y325476D03*
Y322524D03*
X234000Y325476D03*
Y322524D03*
X230500Y325476D03*
Y322524D03*
Y337476D03*
Y334524D03*
X238000Y337476D03*
Y334524D03*
X241500Y337476D03*
Y334524D03*
X234500Y337476D03*
Y334524D03*
X241500Y325476D03*
Y322524D03*
X224500Y450024D03*
Y452976D03*
X248500Y325476D03*
Y322524D03*
X245000Y325476D03*
Y322524D03*
X245500Y337476D03*
Y334524D03*
X252500Y325476D03*
Y322524D03*
X249500Y337476D03*
Y334524D03*
X260300Y400424D03*
X256900D03*
X260300Y403376D03*
X256900D03*
X248500Y421524D03*
Y424476D03*
X280000Y211976D03*
Y209024D03*
X284000Y220476D03*
Y217524D03*
X275600Y282976D03*
Y280024D03*
X279000Y282976D03*
Y280024D03*
X271600Y281524D03*
Y284476D03*
X268500Y422024D03*
Y424976D03*
X286000Y459476D03*
Y456524D03*
Y445524D03*
Y448476D03*
X300000Y228476D03*
Y225524D03*
X304500Y228476D03*
Y225524D03*
X308500D03*
Y228476D03*
X300000Y215976D03*
Y213024D03*
X295500Y228476D03*
Y225524D03*
X291000Y272524D03*
Y275476D03*
X296500Y411024D03*
Y413976D03*
X300000Y419024D03*
Y421976D03*
X296500D03*
Y419024D03*
X301500Y503024D03*
Y505976D03*
X298000D03*
Y503024D03*
X302400Y624276D03*
Y621324D03*
X305900Y624276D03*
Y621324D03*
X320500Y137976D03*
Y135024D03*
Y141524D03*
Y144476D03*
Y148024D03*
Y150976D03*
X322500Y220524D03*
Y223476D03*
X326400Y223576D03*
Y220624D03*
X309500Y316024D03*
Y309824D03*
Y312776D03*
X330900Y334976D03*
Y332024D03*
X309500Y318976D03*
X318500Y366976D03*
Y364024D03*
X326000Y387524D03*
Y390476D03*
X325700Y612924D03*
Y615876D03*
X324100Y603976D03*
Y601024D03*
X331000Y219776D03*
Y216824D03*
X340500Y280476D03*
Y277524D03*
X341500Y378476D03*
Y375524D03*
X346500Y378476D03*
Y375524D03*
X337000Y433524D03*
Y436476D03*
Y429976D03*
Y427024D03*
X353000Y396476D03*
Y393524D03*
X356500Y396476D03*
Y393524D03*
Y400024D03*
X353000D03*
X356500Y402976D03*
X353000D03*
G54D30*
X-990Y560701D03*
Y607701D03*
X18695Y560701D03*
Y607701D03*
G54D132*
X347559Y511500D03*
Y561500D03*
G54D124*
X326170Y276760D03*
Y284240D03*
X334830Y280500D03*
G54D133*
X354571Y587697D03*
Y642027D03*
G54D40*
X15700Y375700D03*
X19400D03*
X23100D03*
Y366100D03*
X19400D03*
X15700D03*
G54D115*
X274047Y458406D03*
X276016D03*
X277984D03*
X279953D03*
Y446594D03*
X277984D03*
X276016D03*
X274047D03*
G54D31*
X22500Y0D03*
Y700000D03*
X106082Y552965D03*
X158600Y246600D03*
X327500Y0D03*
G54D106*
X285902Y122760D03*
Y280240D03*
G54D22*
X6500Y163998D03*
Y188998D03*
G54D13*
X-9000Y15000D03*
Y25000D03*
Y73000D03*
Y66900D03*
Y85000D03*
Y95000D03*
Y105000D03*
Y125000D03*
Y135000D03*
Y145000D03*
Y207500D03*
Y223000D03*
Y215000D03*
Y245000D03*
Y255000D03*
Y265000D03*
Y275000D03*
Y285000D03*
Y295000D03*
Y305000D03*
Y315000D03*
Y325000D03*
Y335000D03*
Y345000D03*
Y386000D03*
Y395000D03*
Y545000D03*
Y585000D03*
Y595000D03*
Y575000D03*
Y625000D03*
Y635000D03*
Y645000D03*
Y655000D03*
Y672500D03*
Y665000D03*
Y686500D03*
X15000Y-9000D03*
X25000D03*
X15000Y709000D03*
X25000D03*
X35000Y-9000D03*
X45000D03*
X35000Y709000D03*
X45000D03*
X55000Y-9000D03*
X65000D03*
X55000Y709000D03*
X65000D03*
X85000Y-9000D03*
X75000D03*
Y709000D03*
X85000D03*
X105000Y-9000D03*
X115000D03*
X95000D03*
Y709000D03*
X105000D03*
X115000D03*
X125000Y-9000D03*
X135000D03*
X125000Y709000D03*
X135000D03*
X145000Y-9000D03*
X155000D03*
X145000Y709000D03*
X155000D03*
X165000Y-9000D03*
X175000D03*
X165000Y709000D03*
X175000D03*
X195000Y-9000D03*
X185000D03*
X195000Y709000D03*
X185000D03*
X215000Y-9000D03*
X205000D03*
X215000Y709000D03*
X205000D03*
X235000Y-9000D03*
X225000D03*
X235000Y709000D03*
X225000D03*
X265000Y-9000D03*
X255000D03*
X245000D03*
X265000Y709000D03*
X255000D03*
X245000D03*
X285000Y-9000D03*
X275000D03*
X285000Y709000D03*
X275000D03*
X305000Y-9000D03*
X295000D03*
X305000Y709000D03*
X295000D03*
X325000Y-9000D03*
X315000D03*
X325000Y709000D03*
X315000D03*
X335000Y-9000D03*
Y709000D03*
X359000Y15000D03*
Y25000D03*
Y35000D03*
Y45000D03*
Y55000D03*
Y65000D03*
Y75000D03*
Y85000D03*
Y95000D03*
Y115000D03*
Y125000D03*
Y135000D03*
Y145000D03*
Y155000D03*
Y165000D03*
Y175000D03*
Y185000D03*
Y195000D03*
Y205000D03*
Y215000D03*
Y225000D03*
Y235000D03*
Y245000D03*
Y255000D03*
Y265000D03*
Y275000D03*
Y285000D03*
Y295000D03*
Y305000D03*
Y315000D03*
Y325000D03*
Y335000D03*
Y375000D03*
Y395000D03*
Y386000D03*
Y411100D03*
Y567500D03*
Y555000D03*
Y595000D03*
Y575000D03*
Y605000D03*
Y655000D03*
Y675000D03*
Y663500D03*
Y685000D03*
G54D134*
G01X282500Y-127500D02*
X682500D01*
G01X282500Y-97500D02*
Y-77500D01*
X682500D01*
G01X285527Y-59500D02*
Y-52000D01*
X289073D01*
G01X287767Y-55625D02*
X285527D01*
G01X292933Y-59500D02*
Y-52000D01*
X295267D01*
X296013Y-52375D01*
X296480Y-52875D01*
X296667Y-53875D01*
X296480Y-54875D01*
X295920Y-55500D01*
X295267Y-55875D01*
X292933D01*
G01X295267D02*
X296667Y-59500D01*
G01X304167D02*
X300433D01*
Y-52000D01*
X304167D01*
G01X302673Y-55625D02*
X300433D01*
G01X311667Y-59500D02*
X307933D01*
Y-52000D01*
X311667D01*
G01X310173Y-55625D02*
X307933D01*
G01X315340Y-58500D02*
X316087Y-59125D01*
X316927Y-59500D01*
X317673D01*
X318420Y-59125D01*
X318980Y-58500D01*
X319260Y-57625D01*
X319073Y-56750D01*
X318607Y-56000D01*
X317767Y-55500D01*
X316647Y-55250D01*
X315993Y-54750D01*
X315713Y-53875D01*
X315900Y-53000D01*
X316367Y-52375D01*
X317020Y-52000D01*
X317673D01*
X318327Y-52250D01*
X318887Y-52875D01*
G01X326853Y-52625D02*
X326293Y-52250D01*
X325640Y-52000D01*
X324893D01*
X324053Y-52375D01*
X323400Y-53000D01*
X322933Y-53750D01*
X322560Y-55000D01*
X322467Y-56125D01*
X322653Y-57250D01*
X322933Y-58000D01*
X323493Y-58750D01*
X324147Y-59250D01*
X324800Y-59500D01*
X325453D01*
X326107Y-59250D01*
X326667Y-58875D01*
X327133Y-58375D01*
G01X329967Y-59500D02*
X332300Y-52000D01*
X334633Y-59500D01*
G01X333793Y-56875D02*
X330807D01*
G01X337933Y-52000D02*
Y-59500D01*
X341667D01*
G01X349167D02*
X345433D01*
Y-52000D01*
X349167D01*
G01X347673Y-55625D02*
X345433D01*
G01X288127Y-142800D02*
X288597Y-143500D01*
X289223Y-143900D01*
X289928Y-144000D01*
X290555Y-143900D01*
X291182Y-143400D01*
X291573Y-142800D01*
X291652Y-142200D01*
X291495Y-141500D01*
X290947Y-141000D01*
X290398Y-140800D01*
X289693D01*
G01X290398D02*
X290868Y-140500D01*
X291260Y-140000D01*
X291417Y-139400D01*
X291260Y-138800D01*
X290868Y-138300D01*
X290163Y-138000D01*
X289458Y-138100D01*
X288753Y-138500D01*
G01X302450Y-144000D02*
X301823Y-143900D01*
X301275Y-143500D01*
X300805Y-142900D01*
X300492Y-142200D01*
X300335Y-141400D01*
Y-140600D01*
X300492Y-139800D01*
X300805Y-139100D01*
X301275Y-138500D01*
X301823Y-138100D01*
X302450Y-138000D01*
X303077Y-138100D01*
X303625Y-138500D01*
X304095Y-139100D01*
X304408Y-139800D01*
X304565Y-140600D01*
Y-141400D01*
X304408Y-142200D01*
X304095Y-142900D01*
X303625Y-143500D01*
X303077Y-143900D01*
X302450Y-144000D01*
G01X307262D02*
Y-138000D01*
X310238D01*
G01X309142Y-140900D02*
X307262D01*
G01X321350Y-144000D02*
Y-138000D01*
X320410Y-139200D01*
G01Y-144000D02*
X322290D01*
G01X328590D02*
Y-138000D01*
X325692Y-142300D01*
X329608D01*
G01X332500Y-147500D02*
Y-127500D01*
G01X340783Y-144000D02*
Y-138000D01*
X342663D01*
X343290Y-138300D01*
X343760Y-139000D01*
X343917Y-139800D01*
X343760Y-140600D01*
X343368Y-141200D01*
X342663Y-141500D01*
X340783D01*
G01X347083Y-144000D02*
Y-138000D01*
X349042D01*
X349668Y-138300D01*
X350060Y-138700D01*
X350217Y-139500D01*
X350060Y-140300D01*
X349590Y-140800D01*
X349042Y-141100D01*
X347083D01*
G01X349042D02*
X350217Y-144000D01*
G01X354010Y-138000D02*
X355890D01*
G01X354950D02*
Y-144000D01*
G01X354010D02*
X355890D01*
G01X359213D02*
Y-138000D01*
X361250Y-143000D01*
X363287Y-138000D01*
Y-144000D01*
G01X365592D02*
X367550Y-138000D01*
X369508Y-144000D01*
G01X368803Y-141900D02*
X366297D01*
G01X372283Y-144000D02*
Y-138000D01*
X374242D01*
X374868Y-138300D01*
X375260Y-138700D01*
X375417Y-139500D01*
X375260Y-140300D01*
X374790Y-140800D01*
X374242Y-141100D01*
X372283D01*
G01X374242D02*
X375417Y-144000D01*
G01X380150D02*
Y-141300D01*
X378583Y-138000D01*
G01X381717D02*
X380150Y-141300D01*
G01X391105Y-143200D02*
X391732Y-143700D01*
X392437Y-144000D01*
X393063D01*
X393690Y-143700D01*
X394160Y-143200D01*
X394395Y-142500D01*
X394238Y-141800D01*
X393847Y-141200D01*
X393142Y-140800D01*
X392202Y-140600D01*
X391653Y-140200D01*
X391418Y-139500D01*
X391575Y-138800D01*
X391967Y-138300D01*
X392515Y-138000D01*
X393063D01*
X393612Y-138200D01*
X394082Y-138700D01*
G01X399050Y-144000D02*
X398423Y-143900D01*
X397875Y-143500D01*
X397405Y-142900D01*
X397092Y-142200D01*
X396935Y-141400D01*
Y-140600D01*
X397092Y-139800D01*
X397405Y-139100D01*
X397875Y-138500D01*
X398423Y-138100D01*
X399050Y-138000D01*
X399677Y-138100D01*
X400225Y-138500D01*
X400695Y-139100D01*
X401008Y-139800D01*
X401165Y-140600D01*
Y-141400D01*
X401008Y-142200D01*
X400695Y-142900D01*
X400225Y-143500D01*
X399677Y-143900D01*
X399050Y-144000D01*
G01X403783Y-138000D02*
Y-144000D01*
X406917D01*
G01X409927D02*
Y-138000D01*
X411493D01*
X412120Y-138300D01*
X412590Y-138700D01*
X412982Y-139300D01*
X413295Y-140000D01*
X413373Y-141000D01*
X413295Y-142000D01*
X412982Y-142700D01*
X412590Y-143300D01*
X412120Y-143700D01*
X411493Y-144000D01*
X409927D01*
G01X419517D02*
X416383D01*
Y-138000D01*
X419517D01*
G01X418263Y-140900D02*
X416383D01*
G01X422683Y-144000D02*
Y-138000D01*
X424642D01*
X425268Y-138300D01*
X425660Y-138700D01*
X425817Y-139500D01*
X425660Y-140300D01*
X425190Y-140800D01*
X424642Y-141100D01*
X422683D01*
G01X424642D02*
X425817Y-144000D01*
G01X428513D02*
Y-138000D01*
X430550Y-143000D01*
X432587Y-138000D01*
Y-144000D01*
G01X434892D02*
X436850Y-138000D01*
X438808Y-144000D01*
G01X438103Y-141900D02*
X435597D01*
G01X441505Y-143200D02*
X442132Y-143700D01*
X442837Y-144000D01*
X443463D01*
X444090Y-143700D01*
X444560Y-143200D01*
X444795Y-142500D01*
X444638Y-141800D01*
X444247Y-141200D01*
X443542Y-140800D01*
X442602Y-140600D01*
X442053Y-140200D01*
X441818Y-139500D01*
X441975Y-138800D01*
X442367Y-138300D01*
X442915Y-138000D01*
X443463D01*
X444012Y-138200D01*
X444482Y-138700D01*
G01X447727Y-144000D02*
Y-138000D01*
G01X450703D02*
X447727Y-141700D01*
G01X451173Y-144000D02*
X449058Y-140000D01*
G01X458000Y-147500D02*
Y-127500D01*
G01X457500Y-77500D02*
Y-47500D01*
G01X507500Y-147500D02*
Y-127500D01*
G54D32*
X21809Y49222D03*
G54D125*
X318760Y305330D03*
X326240D03*
X322500Y296670D03*
G54D14*
X5020Y37962D03*
Y55482D03*
Y356918D03*
Y374438D03*
G54D116*
X288070Y544545D03*
X327470Y85945D03*
G54D23*
X-4780Y163693D03*
Y161723D03*
Y159753D03*
Y157783D03*
Y155813D03*
Y153843D03*
Y151873D03*
Y149903D03*
Y147933D03*
Y185363D03*
Y183393D03*
Y181423D03*
Y179453D03*
Y177483D03*
Y175513D03*
Y173543D03*
Y171573D03*
Y169603D03*
Y167633D03*
Y165663D03*
Y205063D03*
Y203093D03*
Y201123D03*
Y199153D03*
Y197183D03*
Y195213D03*
Y193243D03*
Y191273D03*
Y189303D03*
Y187333D03*
X17780Y163693D03*
Y161723D03*
Y159753D03*
Y157783D03*
Y155813D03*
Y153843D03*
Y151873D03*
Y149903D03*
Y147933D03*
Y185363D03*
Y183393D03*
Y181423D03*
Y179453D03*
Y177483D03*
Y175513D03*
Y173543D03*
Y171573D03*
Y169603D03*
Y167633D03*
Y165663D03*
Y205063D03*
Y203093D03*
Y201123D03*
Y199153D03*
Y197183D03*
Y195213D03*
Y193243D03*
Y191273D03*
Y189303D03*
Y187333D03*
G54D41*
X8000Y368272D03*
Y364728D03*
G54D50*
X52000Y356500D03*
Y366500D03*
Y376500D03*
Y386500D03*
Y396500D03*
Y406500D03*
Y416500D03*
Y426500D03*
Y436500D03*
X62000Y356500D03*
Y366500D03*
Y376500D03*
Y386500D03*
Y396500D03*
Y406500D03*
Y416500D03*
Y426500D03*
Y436500D03*
Y446500D03*
G54D107*
X278815Y129059D03*
G54D135*
G01X0Y-12500D02*
X350000D01*
G03X362500Y0I0J12500D01*
G01Y700000D01*
G03X350000Y712500I-12500J0D01*
G01X0D01*
G03X-12500Y700000I0J-12500D01*
G01Y0D01*
G03X0Y-12500I12500J0D01*
G54D15*
X-945Y52237D03*
Y41607D03*
X-7637D03*
Y52237D03*
G54D126*
X330987Y387350D03*
Y390500D03*
Y393650D03*
X346013D03*
Y390500D03*
Y387350D03*
G54D108*
X276001Y220039D03*
G54D60*
X71069Y622673D03*
X69100D03*
X67131D03*
X65163D03*
Y634327D03*
X67131D03*
X69100D03*
X71069D03*
X73037Y622673D03*
Y634327D03*
G54D33*
X26734Y40087D03*
X24764D03*
X22794D03*
X20824D03*
X18854D03*
X16884D03*
X14914D03*
Y58357D03*
X16884D03*
X18854D03*
X20824D03*
X22794D03*
X24764D03*
X26734D03*
X28704Y40087D03*
Y58357D03*
G54D42*
X28024Y376000D03*
X40476Y307300D03*
X37524D03*
X40476Y303800D03*
X37524D03*
X30976Y376000D03*
X35424Y508400D03*
X38376D03*
X59824Y293200D03*
X62776D03*
X61676Y303200D03*
X58724D03*
X55376D03*
X52424D03*
X61024Y299800D03*
X63976D03*
X70524Y473700D03*
X64276D03*
X61324D03*
X64376Y477600D03*
X61424D03*
X58524Y569300D03*
X61476D03*
X53976Y663700D03*
X51024D03*
X88049Y350800D03*
X91001D03*
X87124Y452893D03*
X90076D03*
X73476Y473700D03*
X73424Y495300D03*
X76376D03*
X89524Y552700D03*
X92476D03*
X89524Y556200D03*
X92476D03*
X77424Y569500D03*
X80376D03*
X77424Y573000D03*
X80376D03*
X77324Y566100D03*
X80276D03*
X100724Y346700D03*
X103676D03*
X108024Y350800D03*
X110976D03*
X100724D03*
X103676D03*
X94349D03*
X97301D03*
X114524D03*
X114576Y395968D03*
X111624D03*
X114176Y407728D03*
X111224D03*
X110624Y452893D03*
X113576D03*
X100424D03*
X103376D03*
X94324D03*
X97276D03*
X117476Y350800D03*
X131976D03*
X129024D03*
X123876D03*
X120924D03*
X135324D03*
X120576Y396000D03*
X117624D03*
X132576D03*
X129624D03*
X126576D03*
X123624D03*
X135624D03*
X119602Y452819D03*
X116650D03*
X125576Y452868D03*
X122624D03*
X132176D03*
X129224D03*
X135424Y452893D03*
X151276Y206700D03*
X148324D03*
X151276Y201700D03*
X148324D03*
X156976Y333500D03*
X154024D03*
X156976Y330000D03*
X154024D03*
X138276Y350800D03*
X151224Y389400D03*
X154176D03*
X138576Y396000D03*
X138376Y452893D03*
X162476Y151400D03*
X159524D03*
X164024Y286500D03*
X166976D03*
X174976Y291000D03*
X172024D03*
X164024Y295500D03*
X166976D03*
X198976Y274000D03*
X196024D03*
X190024D03*
X192976D03*
X194524Y292500D03*
X197476D03*
X195866Y277581D03*
X192914D03*
X208324Y245400D03*
X211276D03*
X233976Y540000D03*
X231024D03*
X265476Y218000D03*
X262524D03*
X264024Y213500D03*
X265724Y272600D03*
X245524Y400500D03*
X248476D03*
X248724Y395750D03*
X251676D03*
X259476Y410800D03*
X256524D03*
Y407400D03*
X259476D03*
Y414200D03*
X256524D03*
X246524Y471000D03*
X249476D03*
X246524Y475000D03*
X249476D03*
X260224Y555100D03*
X263176D03*
X260224Y558600D03*
X263176D03*
X266976Y213500D03*
X269524Y226500D03*
X272476D03*
X274676Y272600D03*
X271724D03*
X268676D03*
X286524Y518700D03*
Y514700D03*
X306476Y203500D03*
X303524D03*
X307476Y193500D03*
X304524D03*
Y190000D03*
X307476D03*
X294524Y272700D03*
X297476D03*
X304976D03*
X302024D03*
X300224Y276700D03*
X303176D03*
X300476Y354500D03*
X297524D03*
X300476Y351000D03*
X297524D03*
X300476Y358000D03*
X297524D03*
X300476Y367000D03*
X297524D03*
X308976Y401000D03*
X306024D03*
X300476D03*
X297524D03*
X308976Y397500D03*
X306024D03*
X308976Y391500D03*
X306024D03*
X308976Y388000D03*
X306024D03*
X300776Y386100D03*
X297824D03*
X300776Y389700D03*
X297824D03*
X300476Y397500D03*
X297524D03*
X298976Y430500D03*
X296024D03*
X296524Y444500D03*
X299476D03*
X296024Y437500D03*
X298976D03*
X296024Y434000D03*
X298976D03*
X296524Y441000D03*
X299476D03*
X290274Y526700D03*
X293226D03*
X290274Y522700D03*
X293226D03*
X289476Y518700D03*
Y514700D03*
X294476Y589700D03*
X291524D03*
Y596600D03*
X294476D03*
X291524Y593100D03*
X294476D03*
Y600000D03*
X291524D03*
Y628100D03*
X294476D03*
X291524Y624600D03*
X294476D03*
X317524Y165000D03*
X320476D03*
X317524Y161500D03*
X320476D03*
Y154500D03*
X317524D03*
X320476Y172000D03*
X317524D03*
X329476Y174000D03*
X326524D03*
X317524Y168500D03*
X320476D03*
X324524Y289500D03*
X327476D03*
X316976Y310500D03*
X314024D03*
X317976Y295500D03*
X315024D03*
X313024Y395000D03*
X315976D03*
X319476Y424000D03*
X316524D03*
X325476Y422000D03*
X322524D03*
X319476Y420000D03*
X316524D03*
X325476Y418000D03*
X322524D03*
X319476Y416000D03*
X316524D03*
X325476Y414000D03*
X322524D03*
X319476Y412000D03*
X316524D03*
X325476Y410000D03*
X322524D03*
X319476Y408000D03*
X316524D03*
X325476Y406000D03*
X322524D03*
X319476Y404000D03*
X316524D03*
X325476Y445500D03*
X322524D03*
X319476Y444000D03*
X316524D03*
X325476Y442000D03*
X322524D03*
X319476Y440000D03*
X316524D03*
X325476Y438000D03*
X322524D03*
X319476Y436000D03*
X316524D03*
X325476Y434000D03*
X322524D03*
X319476Y432000D03*
X316524D03*
X325476Y430000D03*
X322524D03*
X319476Y428000D03*
X316524D03*
X325476Y426000D03*
X322524D03*
X325476Y449500D03*
X322524D03*
X319476Y448000D03*
X316524D03*
X325476Y453500D03*
X322524D03*
X319476Y452000D03*
X316524D03*
X319476Y456000D03*
X316524D03*
X325476Y457500D03*
X322524D03*
X329476Y510500D03*
X326524D03*
X321876Y630500D03*
X318924D03*
X321876Y626100D03*
X318924D03*
X344024Y150500D03*
X346976D03*
X342524Y145500D03*
X345476D03*
X338524Y162000D03*
X341476D03*
X338524Y165500D03*
X341476D03*
X346176Y195600D03*
X343224D03*
G54D51*
X52000Y446500D03*
G54D24*
X-2289Y257294D03*
Y319106D03*
X17003Y259657D03*
Y316743D03*
G54D117*
X281690Y566323D03*
Y681677D03*
G54D136*
G01X-12500Y0D02*
Y700000D01*
G02X0Y712500I12500J0D01*
G01X350000D01*
G02X362500Y700000I0J-12500D01*
G01Y0D01*
G02X350000Y-12500I-12500J0D01*
G01X0D01*
G02X-12500Y0I0J12500D01*
G54D52*
X51500Y485500D03*
Y500500D03*
X61500Y485500D03*
Y500500D03*
G54D25*
X7800Y392200D03*
X1800D03*
X13800D03*
X163800Y551800D03*
X169800D03*
X175800D03*
X196500Y311000D03*
X190500D03*
X181500Y530000D03*
X187500D03*
X193500D03*
X202500Y311000D03*
G54D43*
X24459Y390400D03*
X19341D03*
Y383400D03*
X24459D03*
X28841Y390400D03*
X39059Y155496D03*
X33941D03*
X33959Y390400D03*
X39041Y550300D03*
X44159D03*
X43659Y565400D03*
X38541D03*
Y560500D03*
X43659D03*
X38541Y555700D03*
X43659D03*
X70041Y685500D03*
X88441Y560400D03*
X93559D03*
X75159Y685500D03*
X155096Y453805D03*
X160214D03*
X221441Y525700D03*
X243959Y516000D03*
X238841D03*
X226559Y525700D03*
X266241Y277500D03*
X284441Y224500D03*
X271359Y277500D03*
X282059Y504000D03*
X276941D03*
X271141Y511100D03*
X276259D03*
X289559Y224500D03*
X302659Y281500D03*
X297541D03*
X320559Y390500D03*
X315441D03*
Y385500D03*
X320559D03*
X343341Y185000D03*
X348459D03*
X348559Y190000D03*
X343441D03*
X343059Y459500D03*
X337941D03*
G54D109*
X272162Y217480D03*
Y220039D03*
Y222598D03*
X279840D03*
Y220039D03*
Y217480D03*
G54D16*
X5381Y44180D03*
Y49298D03*
X-4500Y124437D03*
Y129555D03*
X62800Y535341D03*
Y540459D03*
X68200Y535341D03*
Y540459D03*
X60700Y586541D03*
Y591659D03*
X61600Y641441D03*
Y646559D03*
X79300Y535341D03*
Y540459D03*
X73900Y535341D03*
Y540459D03*
X179490Y287719D03*
Y282601D03*
X173000Y286559D03*
Y281441D03*
X178600Y305441D03*
Y310559D03*
X173500Y301259D03*
Y296141D03*
X174500Y455559D03*
Y450441D03*
X179300Y455559D03*
Y450441D03*
X192500Y287559D03*
Y282441D03*
X194000Y348441D03*
Y353559D03*
X214000Y294059D03*
Y288941D03*
X204000Y294059D03*
Y288941D03*
X211500Y349441D03*
Y354559D03*
X229000Y462941D03*
X229500Y450441D03*
Y455559D03*
X229000Y468059D03*
X246500Y416559D03*
Y411441D03*
X247000Y456941D03*
Y462059D03*
X296800Y292059D03*
Y286941D03*
X302100Y292059D03*
Y286941D03*
X288500Y508559D03*
Y503441D03*
X293500Y508559D03*
Y503441D03*
X314000Y145941D03*
Y151059D03*
X320700Y610741D03*
Y615859D03*
X336000Y222359D03*
Y217241D03*
X341500Y216741D03*
Y221859D03*
G54D118*
X310200Y276500D03*
Y284500D03*
X318800Y280500D03*
G54D34*
X12674Y42327D03*
Y44297D03*
Y46267D03*
Y48237D03*
Y50207D03*
Y52177D03*
Y54147D03*
Y56117D03*
X30944D03*
Y54147D03*
Y52177D03*
Y50207D03*
Y48237D03*
Y46267D03*
Y44297D03*
Y42327D03*
G54D61*
X67900Y647000D03*
G54D127*
X321574Y531579D03*
Y521736D03*
Y551264D03*
Y541421D03*
G54D70*
X81630Y372000D03*
X80095Y375000D03*
X75490Y372000D03*
X73955Y375000D03*
X72420Y372000D03*
X83165Y375000D03*
X84700Y372000D03*
X87770D03*
X77025Y375000D03*
X78560Y372000D03*
X86235Y375000D03*
X92375Y374700D03*
X90840Y372700D03*
X89305Y375000D03*
X81630Y400350D03*
X75490D03*
X72420D03*
X84700D03*
X78560D03*
X87770D03*
X90840D03*
X80095Y403350D03*
X73955D03*
X83165D03*
X77025D03*
X86235D03*
X92375D03*
X89305D03*
X81630Y428693D03*
X75490D03*
X72420D03*
X84700D03*
X78560D03*
X87770D03*
X80095Y431693D03*
X73955D03*
X83165D03*
X77025D03*
X86235D03*
X90840Y429393D03*
X92375Y431393D03*
X89305Y431693D03*
X101580Y375000D03*
X95440D03*
X98510D03*
X93910Y372000D03*
X96980D03*
X104650Y375000D03*
X107720D03*
X106190Y372000D03*
X100050D03*
X103120D03*
X109260D03*
X93910Y400350D03*
X96980D03*
X106190D03*
X100050D03*
X103120D03*
X109260D03*
X101585Y403350D03*
X95445D03*
X98515D03*
X104655D03*
X107725D03*
X93910Y428693D03*
X96980D03*
X106190D03*
X100050D03*
X103120D03*
X109260D03*
X101580Y431693D03*
X95440D03*
X98510D03*
X104650D03*
X107720D03*
G54D137*
G01X286025Y-134967D02*
X286492Y-135300D01*
X287017Y-135500D01*
X287483D01*
X287950Y-135300D01*
X288300Y-134967D01*
X288475Y-134500D01*
X288358Y-134033D01*
X288067Y-133633D01*
X287542Y-133367D01*
X286842Y-133233D01*
X286433Y-132967D01*
X286258Y-132500D01*
X286375Y-132033D01*
X286667Y-131700D01*
X287075Y-131500D01*
X287483D01*
X287892Y-131633D01*
X288242Y-131967D01*
G01X290825Y-135500D02*
Y-131500D01*
G01X293275D02*
Y-135500D01*
G01Y-133500D02*
X290825D01*
G01X298017Y-135500D02*
X295683D01*
Y-131500D01*
X298017D01*
G01X297083Y-133433D02*
X295683D01*
G01X302817Y-135500D02*
X300483D01*
Y-131500D01*
X302817D01*
G01X301883Y-133433D02*
X300483D01*
G01X306450Y-131500D02*
Y-135500D01*
G01X305108Y-131500D02*
X307792D01*
G01X285792Y-74500D02*
X287250Y-70500D01*
X288708Y-74500D01*
G01X288183Y-73100D02*
X286317D01*
G01X290767Y-70500D02*
Y-73367D01*
X291000Y-73967D01*
X291467Y-74367D01*
X292050Y-74500D01*
X292633Y-74367D01*
X293100Y-73967D01*
X293333Y-73367D01*
Y-70500D01*
G01X295625Y-73967D02*
X296092Y-74300D01*
X296617Y-74500D01*
X297083D01*
X297550Y-74300D01*
X297900Y-73967D01*
X298075Y-73500D01*
X297958Y-73033D01*
X297667Y-72633D01*
X297142Y-72367D01*
X296442Y-72233D01*
X296033Y-71967D01*
X295858Y-71500D01*
X295975Y-71033D01*
X296267Y-70700D01*
X296675Y-70500D01*
X297083D01*
X297492Y-70633D01*
X297842Y-70967D01*
G01X301650Y-70500D02*
Y-74500D01*
G01X300308Y-70500D02*
X302992D01*
G01X305750D02*
X307150D01*
G01X306450D02*
Y-74500D01*
G01X305750D02*
X307150D01*
G01X309908D02*
Y-70500D01*
X312592Y-74500D01*
Y-70500D01*
G01X316050Y-74633D02*
X315933Y-74567D01*
Y-74433D01*
X316050Y-74367D01*
X316167Y-74433D01*
Y-74567D01*
X316050Y-74633D01*
G01X325650Y-70500D02*
Y-74500D01*
G01X324308Y-70500D02*
X326992D01*
G01X331617Y-74500D02*
X329283D01*
Y-70500D01*
X331617D01*
G01X330683Y-72433D02*
X329283D01*
G01X334025Y-74500D02*
X336475Y-70500D01*
G01X334025D02*
X336475Y-74500D01*
G01X338592D02*
X340050Y-70500D01*
X341508Y-74500D01*
G01X340983Y-73100D02*
X339117D01*
G01X343625Y-73967D02*
X344092Y-74300D01*
X344617Y-74500D01*
X345083D01*
X345550Y-74300D01*
X345900Y-73967D01*
X346075Y-73500D01*
X345958Y-73033D01*
X345667Y-72633D01*
X345142Y-72367D01*
X344442Y-72233D01*
X344033Y-71967D01*
X343858Y-71500D01*
X343975Y-71033D01*
X344267Y-70700D01*
X344675Y-70500D01*
X345083D01*
X345492Y-70633D01*
X345842Y-70967D01*
G01X354333Y-74500D02*
X354450Y-73633D01*
X354625Y-72900D01*
X354858Y-72233D01*
X355150Y-71500D01*
X355617Y-70500D01*
X353283D01*
G01X359250Y-74500D02*
X359658Y-74433D01*
X360125Y-74233D01*
X360417Y-73900D01*
X360533Y-73433D01*
X360417Y-72967D01*
X360067Y-72567D01*
X359542Y-72367D01*
X358958D01*
X358608Y-72233D01*
X358317Y-71900D01*
X358200Y-71433D01*
X358375Y-70967D01*
X358783Y-70633D01*
X359250Y-70500D01*
X359717Y-70633D01*
X360125Y-70967D01*
X360300Y-71433D01*
X360183Y-71900D01*
X359892Y-72233D01*
X359542Y-72367D01*
X358958D01*
X358433Y-72567D01*
X358083Y-72967D01*
X357967Y-73433D01*
X358083Y-73900D01*
X358375Y-74233D01*
X358842Y-74433D01*
X359250Y-74500D01*
G01X363933D02*
X364050Y-73633D01*
X364225Y-72900D01*
X364458Y-72233D01*
X364750Y-71500D01*
X365217Y-70500D01*
X362883D01*
G01X367567Y-73700D02*
X367917Y-74167D01*
X368383Y-74433D01*
X368908Y-74500D01*
X369375Y-74433D01*
X369842Y-74100D01*
X370133Y-73700D01*
X370192Y-73300D01*
X370075Y-72833D01*
X369667Y-72500D01*
X369258Y-72367D01*
X368733D01*
G01X369258D02*
X369608Y-72167D01*
X369900Y-71833D01*
X370017Y-71433D01*
X369900Y-71033D01*
X369608Y-70700D01*
X369083Y-70500D01*
X368558Y-70567D01*
X368033Y-70833D01*
G01X372367Y-73900D02*
X372717Y-74233D01*
X373125Y-74433D01*
X373650Y-74500D01*
X374175Y-74367D01*
X374583Y-74100D01*
X374875Y-73633D01*
X374933Y-73100D01*
X374817Y-72567D01*
X374525Y-72233D01*
X374117Y-71967D01*
X373708Y-71900D01*
X373300Y-71967D01*
X372775Y-72233D01*
X372950Y-70500D01*
X374525D01*
G01X381967D02*
Y-73367D01*
X382200Y-73967D01*
X382667Y-74367D01*
X383250Y-74500D01*
X383833Y-74367D01*
X384300Y-73967D01*
X384533Y-73367D01*
Y-70500D01*
G01X386825Y-73967D02*
X387292Y-74300D01*
X387817Y-74500D01*
X388283D01*
X388750Y-74300D01*
X389100Y-73967D01*
X389275Y-73500D01*
X389158Y-73033D01*
X388867Y-72633D01*
X388342Y-72367D01*
X387642Y-72233D01*
X387233Y-71967D01*
X387058Y-71500D01*
X387175Y-71033D01*
X387467Y-70700D01*
X387875Y-70500D01*
X388283D01*
X388692Y-70633D01*
X389042Y-70967D01*
G01X391392Y-74500D02*
X392850Y-70500D01*
X394308Y-74500D01*
G01X393783Y-73100D02*
X391917D01*
G01X286142Y-65833D02*
X286550Y-65367D01*
X286900Y-65100D01*
X287367Y-64967D01*
X287775Y-65100D01*
X288067Y-65367D01*
X288300Y-65767D01*
X288358Y-66233D01*
X288300Y-66633D01*
X288067Y-67033D01*
X287717Y-67367D01*
X287308Y-67500D01*
X286842Y-67367D01*
X286433Y-66967D01*
X286200Y-66367D01*
X286142Y-65700D01*
X286258Y-64833D01*
X286433Y-64367D01*
X286725Y-63900D01*
X287133Y-63567D01*
X287542Y-63500D01*
X287950Y-63633D01*
X288242Y-63967D01*
G01X290767Y-66900D02*
X291117Y-67233D01*
X291525Y-67433D01*
X292050Y-67500D01*
X292575Y-67367D01*
X292983Y-67100D01*
X293275Y-66633D01*
X293333Y-66100D01*
X293217Y-65567D01*
X292925Y-65233D01*
X292517Y-64967D01*
X292108Y-64900D01*
X291700Y-64967D01*
X291175Y-65233D01*
X291350Y-63500D01*
X292925D01*
G01X296850D02*
X296383Y-63633D01*
X296033Y-63967D01*
X295800Y-64367D01*
X295625Y-64900D01*
X295567Y-65500D01*
X295625Y-66100D01*
X295800Y-66633D01*
X296033Y-67033D01*
X296383Y-67367D01*
X296850Y-67500D01*
X297317Y-67367D01*
X297667Y-67033D01*
X297900Y-66633D01*
X298075Y-66100D01*
X298133Y-65500D01*
X298075Y-64900D01*
X297900Y-64367D01*
X297667Y-63967D01*
X297317Y-63633D01*
X296850Y-63500D01*
G01X301650Y-67500D02*
Y-63500D01*
X300950Y-64300D01*
G01Y-67500D02*
X302350D01*
G01X309500Y-63500D02*
X310317Y-67500D01*
X311250Y-63500D01*
X312183Y-67500D01*
X313000Y-63500D01*
G01X315350D02*
X316750D01*
G01X316050D02*
Y-67500D01*
G01X315350D02*
X316750D01*
G01X319683Y-63500D02*
Y-67500D01*
X322017D01*
G01X324483Y-63500D02*
Y-67500D01*
X326817D01*
G01X329750Y-63500D02*
X331150D01*
G01X330450D02*
Y-67500D01*
G01X329750D02*
X331150D01*
G01X333792D02*
X335250Y-63500D01*
X336708Y-67500D01*
G01X336183Y-66100D02*
X334317D01*
G01X338533Y-67500D02*
Y-63500D01*
X340050Y-66833D01*
X341567Y-63500D01*
Y-67500D01*
G01X350933Y-63833D02*
X350583Y-63633D01*
X350175Y-63500D01*
X349708D01*
X349183Y-63700D01*
X348775Y-64033D01*
X348483Y-64433D01*
X348250Y-65100D01*
X348192Y-65700D01*
X348308Y-66300D01*
X348483Y-66700D01*
X348833Y-67100D01*
X349242Y-67367D01*
X349650Y-67500D01*
X350058D01*
X350467Y-67367D01*
X350817Y-67167D01*
X351108Y-66900D01*
G01X352992Y-67500D02*
X354450Y-63500D01*
X355908Y-67500D01*
G01X355383Y-66100D02*
X353517D01*
G01X357908Y-67500D02*
Y-63500D01*
X360592Y-67500D01*
Y-63500D01*
G01X362708Y-67500D02*
Y-63500D01*
X365392Y-67500D01*
Y-63500D01*
G01X368850Y-67500D02*
X368383Y-67433D01*
X367975Y-67167D01*
X367625Y-66767D01*
X367392Y-66300D01*
X367275Y-65767D01*
Y-65233D01*
X367392Y-64700D01*
X367625Y-64233D01*
X367975Y-63833D01*
X368383Y-63567D01*
X368850Y-63500D01*
X369317Y-63567D01*
X369725Y-63833D01*
X370075Y-64233D01*
X370308Y-64700D01*
X370425Y-65233D01*
Y-65767D01*
X370308Y-66300D01*
X370075Y-66767D01*
X369725Y-67167D01*
X369317Y-67433D01*
X368850Y-67500D01*
G01X372308D02*
Y-63500D01*
X374992Y-67500D01*
Y-63500D01*
G01X381967Y-67500D02*
Y-63500D01*
X383133D01*
X383600Y-63700D01*
X383950Y-63967D01*
X384242Y-64367D01*
X384475Y-64833D01*
X384533Y-65500D01*
X384475Y-66167D01*
X384242Y-66633D01*
X383950Y-67033D01*
X383600Y-67300D01*
X383133Y-67500D01*
X381967D01*
G01X386883D02*
Y-63500D01*
X388342D01*
X388808Y-63700D01*
X389100Y-63967D01*
X389217Y-64500D01*
X389100Y-65033D01*
X388750Y-65367D01*
X388342Y-65567D01*
X386883D01*
G01X388342D02*
X389217Y-67500D01*
G01X392150Y-63500D02*
X393550D01*
G01X392850D02*
Y-67500D01*
G01X392150D02*
X393550D01*
G01X396192Y-63500D02*
X397650Y-67500D01*
X399108Y-63500D01*
G01X403617Y-67500D02*
X401283D01*
Y-63500D01*
X403617D01*
G01X402683Y-65433D02*
X401283D01*
G01X410300Y-63500D02*
X411117Y-67500D01*
X412050Y-63500D01*
X412983Y-67500D01*
X413800Y-63500D01*
G01X418017Y-67500D02*
X415683D01*
Y-63500D01*
X418017D01*
G01X417083Y-65433D02*
X415683D01*
G01X420425Y-66967D02*
X420892Y-67300D01*
X421417Y-67500D01*
X421883D01*
X422350Y-67300D01*
X422700Y-66967D01*
X422875Y-66500D01*
X422758Y-66033D01*
X422467Y-65633D01*
X421942Y-65367D01*
X421242Y-65233D01*
X420833Y-64967D01*
X420658Y-64500D01*
X420775Y-64033D01*
X421067Y-63700D01*
X421475Y-63500D01*
X421883D01*
X422292Y-63633D01*
X422642Y-63967D01*
G01X426450Y-63500D02*
Y-67500D01*
G01X425108Y-63500D02*
X427792D01*
G01X294142Y-124500D02*
Y-120500D01*
X296358D01*
G01X295542Y-122433D02*
X294142D01*
G01X298883Y-124500D02*
Y-120500D01*
X300342D01*
X300808Y-120700D01*
X301100Y-120967D01*
X301217Y-121500D01*
X301100Y-122033D01*
X300750Y-122367D01*
X300342Y-122567D01*
X298883D01*
G01X300342D02*
X301217Y-124500D01*
G01X306017D02*
X303683D01*
Y-120500D01*
X306017D01*
G01X305083Y-122433D02*
X303683D01*
G01X310817Y-124500D02*
X308483D01*
Y-120500D01*
X310817D01*
G01X309883Y-122433D02*
X308483D01*
G01X313225Y-123967D02*
X313692Y-124300D01*
X314217Y-124500D01*
X314683D01*
X315150Y-124300D01*
X315500Y-123967D01*
X315675Y-123500D01*
X315558Y-123033D01*
X315267Y-122633D01*
X314742Y-122367D01*
X314042Y-122233D01*
X313633Y-121967D01*
X313458Y-121500D01*
X313575Y-121033D01*
X313867Y-120700D01*
X314275Y-120500D01*
X314683D01*
X315092Y-120633D01*
X315442Y-120967D01*
G01X320533Y-120833D02*
X320183Y-120633D01*
X319775Y-120500D01*
X319308D01*
X318783Y-120700D01*
X318375Y-121033D01*
X318083Y-121433D01*
X317850Y-122100D01*
X317792Y-122700D01*
X317908Y-123300D01*
X318083Y-123700D01*
X318433Y-124100D01*
X318842Y-124367D01*
X319250Y-124500D01*
X319658D01*
X320067Y-124367D01*
X320417Y-124167D01*
X320708Y-123900D01*
G01X322592Y-124500D02*
X324050Y-120500D01*
X325508Y-124500D01*
G01X324983Y-123100D02*
X323117D01*
G01X327683Y-120500D02*
Y-124500D01*
X330017D01*
G01X334817D02*
X332483D01*
Y-120500D01*
X334817D01*
G01X333883Y-122433D02*
X332483D01*
G01X338450Y-124633D02*
X338333Y-124567D01*
Y-124433D01*
X338450Y-124367D01*
X338567Y-124433D01*
Y-124567D01*
X338450Y-124633D01*
G01X294250Y-116500D02*
X293783Y-116433D01*
X293375Y-116167D01*
X293025Y-115767D01*
X292792Y-115300D01*
X292675Y-114767D01*
Y-114233D01*
X292792Y-113700D01*
X293025Y-113233D01*
X293375Y-112833D01*
X293783Y-112567D01*
X294250Y-112500D01*
X294717Y-112567D01*
X295125Y-112833D01*
X295475Y-113233D01*
X295708Y-113700D01*
X295825Y-114233D01*
Y-114767D01*
X295708Y-115300D01*
X295475Y-115767D01*
X295125Y-116167D01*
X294717Y-116433D01*
X294250Y-116500D01*
G01X297883D02*
Y-112500D01*
X299342D01*
X299808Y-112700D01*
X300100Y-112967D01*
X300217Y-113500D01*
X300100Y-114033D01*
X299750Y-114367D01*
X299342Y-114567D01*
X297883D01*
G01X299342D02*
X300217Y-116500D01*
G01X307950Y-112500D02*
X309350D01*
G01X308650D02*
Y-116500D01*
G01X307950D02*
X309350D01*
G01X312108D02*
Y-112500D01*
X314792Y-116500D01*
Y-112500D01*
G01X321883Y-116500D02*
Y-112500D01*
X323283D01*
X323750Y-112700D01*
X324100Y-113167D01*
X324217Y-113700D01*
X324100Y-114233D01*
X323808Y-114633D01*
X323283Y-114833D01*
X321883D01*
G01X326392Y-116500D02*
X327850Y-112500D01*
X329308Y-116500D01*
G01X328783Y-115100D02*
X326917D01*
G01X331483Y-116500D02*
Y-112500D01*
X332942D01*
X333408Y-112700D01*
X333700Y-112967D01*
X333817Y-113500D01*
X333700Y-114033D01*
X333350Y-114367D01*
X332942Y-114567D01*
X331483D01*
G01X332942D02*
X333817Y-116500D01*
G01X337450Y-112500D02*
Y-116500D01*
G01X336108Y-112500D02*
X338792D01*
G01X345300D02*
X346117Y-116500D01*
X347050Y-112500D01*
X347983Y-116500D01*
X348800Y-112500D01*
G01X351150D02*
X352550D01*
G01X351850D02*
Y-116500D01*
G01X351150D02*
X352550D01*
G01X356650Y-112500D02*
Y-116500D01*
G01X355308Y-112500D02*
X357992D01*
G01X360225Y-116500D02*
Y-112500D01*
G01X362675D02*
Y-116500D01*
G01Y-114500D02*
X360225D01*
G01X366250Y-116500D02*
X365783Y-116433D01*
X365375Y-116167D01*
X365025Y-115767D01*
X364792Y-115300D01*
X364675Y-114767D01*
Y-114233D01*
X364792Y-113700D01*
X365025Y-113233D01*
X365375Y-112833D01*
X365783Y-112567D01*
X366250Y-112500D01*
X366717Y-112567D01*
X367125Y-112833D01*
X367475Y-113233D01*
X367708Y-113700D01*
X367825Y-114233D01*
Y-114767D01*
X367708Y-115300D01*
X367475Y-115767D01*
X367125Y-116167D01*
X366717Y-116433D01*
X366250Y-116500D01*
G01X369767Y-112500D02*
Y-115367D01*
X370000Y-115967D01*
X370467Y-116367D01*
X371050Y-116500D01*
X371633Y-116367D01*
X372100Y-115967D01*
X372333Y-115367D01*
Y-112500D01*
G01X375850D02*
Y-116500D01*
G01X374508Y-112500D02*
X377192D01*
G01X385450D02*
Y-116500D01*
G01X384108Y-112500D02*
X386792D01*
G01X389025Y-116500D02*
Y-112500D01*
G01X391475D02*
Y-116500D01*
G01Y-114500D02*
X389025D01*
G01X396217Y-116500D02*
X393883D01*
Y-112500D01*
X396217D01*
G01X395283Y-114433D02*
X393883D01*
G01X405933Y-112833D02*
X405583Y-112633D01*
X405175Y-112500D01*
X404708D01*
X404183Y-112700D01*
X403775Y-113033D01*
X403483Y-113433D01*
X403250Y-114100D01*
X403192Y-114700D01*
X403308Y-115300D01*
X403483Y-115700D01*
X403833Y-116100D01*
X404242Y-116367D01*
X404650Y-116500D01*
X405058D01*
X405467Y-116367D01*
X405817Y-116167D01*
X406108Y-115900D01*
G01X409450Y-116500D02*
X408983Y-116433D01*
X408575Y-116167D01*
X408225Y-115767D01*
X407992Y-115300D01*
X407875Y-114767D01*
Y-114233D01*
X407992Y-113700D01*
X408225Y-113233D01*
X408575Y-112833D01*
X408983Y-112567D01*
X409450Y-112500D01*
X409917Y-112567D01*
X410325Y-112833D01*
X410675Y-113233D01*
X410908Y-113700D01*
X411025Y-114233D01*
Y-114767D01*
X410908Y-115300D01*
X410675Y-115767D01*
X410325Y-116167D01*
X409917Y-116433D01*
X409450Y-116500D01*
G01X412908D02*
Y-112500D01*
X415592Y-116500D01*
Y-112500D01*
G01X417825Y-115967D02*
X418292Y-116300D01*
X418817Y-116500D01*
X419283D01*
X419750Y-116300D01*
X420100Y-115967D01*
X420275Y-115500D01*
X420158Y-115033D01*
X419867Y-114633D01*
X419342Y-114367D01*
X418642Y-114233D01*
X418233Y-113967D01*
X418058Y-113500D01*
X418175Y-113033D01*
X418467Y-112700D01*
X418875Y-112500D01*
X419283D01*
X419692Y-112633D01*
X420042Y-112967D01*
G01X425017Y-116500D02*
X422683D01*
Y-112500D01*
X425017D01*
G01X424083Y-114433D02*
X422683D01*
G01X427308Y-116500D02*
Y-112500D01*
X429992Y-116500D01*
Y-112500D01*
G01X433450D02*
Y-116500D01*
G01X432108Y-112500D02*
X434792D01*
G01X443050Y-116500D02*
X442583Y-116433D01*
X442175Y-116167D01*
X441825Y-115767D01*
X441592Y-115300D01*
X441475Y-114767D01*
Y-114233D01*
X441592Y-113700D01*
X441825Y-113233D01*
X442175Y-112833D01*
X442583Y-112567D01*
X443050Y-112500D01*
X443517Y-112567D01*
X443925Y-112833D01*
X444275Y-113233D01*
X444508Y-113700D01*
X444625Y-114233D01*
Y-114767D01*
X444508Y-115300D01*
X444275Y-115767D01*
X443925Y-116167D01*
X443517Y-116433D01*
X443050Y-116500D01*
G01X446742D02*
Y-112500D01*
X448958D01*
G01X448142Y-114433D02*
X446742D01*
G01X293083Y-108500D02*
Y-104500D01*
X294483D01*
X294950Y-104700D01*
X295300Y-105167D01*
X295417Y-105700D01*
X295300Y-106233D01*
X295008Y-106633D01*
X294483Y-106833D01*
X293083D01*
G01X297883Y-108500D02*
Y-104500D01*
X299342D01*
X299808Y-104700D01*
X300100Y-104967D01*
X300217Y-105500D01*
X300100Y-106033D01*
X299750Y-106367D01*
X299342Y-106567D01*
X297883D01*
G01X299342D02*
X300217Y-108500D01*
G01X303850D02*
X303383Y-108433D01*
X302975Y-108167D01*
X302625Y-107767D01*
X302392Y-107300D01*
X302275Y-106767D01*
Y-106233D01*
X302392Y-105700D01*
X302625Y-105233D01*
X302975Y-104833D01*
X303383Y-104567D01*
X303850Y-104500D01*
X304317Y-104567D01*
X304725Y-104833D01*
X305075Y-105233D01*
X305308Y-105700D01*
X305425Y-106233D01*
Y-106767D01*
X305308Y-107300D01*
X305075Y-107767D01*
X304725Y-108167D01*
X304317Y-108433D01*
X303850Y-108500D01*
G01X309933Y-104833D02*
X309583Y-104633D01*
X309175Y-104500D01*
X308708D01*
X308183Y-104700D01*
X307775Y-105033D01*
X307483Y-105433D01*
X307250Y-106100D01*
X307192Y-106700D01*
X307308Y-107300D01*
X307483Y-107700D01*
X307833Y-108100D01*
X308242Y-108367D01*
X308650Y-108500D01*
X309058D01*
X309467Y-108367D01*
X309817Y-108167D01*
X310108Y-107900D01*
G01X312167Y-104500D02*
Y-107367D01*
X312400Y-107967D01*
X312867Y-108367D01*
X313450Y-108500D01*
X314033Y-108367D01*
X314500Y-107967D01*
X314733Y-107367D01*
Y-104500D01*
G01X317083Y-108500D02*
Y-104500D01*
X318542D01*
X319008Y-104700D01*
X319300Y-104967D01*
X319417Y-105500D01*
X319300Y-106033D01*
X318950Y-106367D01*
X318542Y-106567D01*
X317083D01*
G01X318542D02*
X319417Y-108500D01*
G01X324217D02*
X321883D01*
Y-104500D01*
X324217D01*
G01X323283Y-106433D02*
X321883D01*
G01X326333Y-108500D02*
Y-104500D01*
X327850Y-107833D01*
X329367Y-104500D01*
Y-108500D01*
G01X333817D02*
X331483D01*
Y-104500D01*
X333817D01*
G01X332883Y-106433D02*
X331483D01*
G01X336108Y-108500D02*
Y-104500D01*
X338792Y-108500D01*
Y-104500D01*
G01X342250D02*
Y-108500D01*
G01X340908Y-104500D02*
X343592D01*
G01X351850Y-108500D02*
X351383Y-108433D01*
X350975Y-108167D01*
X350625Y-107767D01*
X350392Y-107300D01*
X350275Y-106767D01*
Y-106233D01*
X350392Y-105700D01*
X350625Y-105233D01*
X350975Y-104833D01*
X351383Y-104567D01*
X351850Y-104500D01*
X352317Y-104567D01*
X352725Y-104833D01*
X353075Y-105233D01*
X353308Y-105700D01*
X353425Y-106233D01*
Y-106767D01*
X353308Y-107300D01*
X353075Y-107767D01*
X352725Y-108167D01*
X352317Y-108433D01*
X351850Y-108500D01*
G01X355483D02*
Y-104500D01*
X356942D01*
X357408Y-104700D01*
X357700Y-104967D01*
X357817Y-105500D01*
X357700Y-106033D01*
X357350Y-106367D01*
X356942Y-106567D01*
X355483D01*
G01X356942D02*
X357817Y-108500D01*
G01X364733D02*
Y-104500D01*
X366250Y-107833D01*
X367767Y-104500D01*
Y-108500D01*
G01X369592D02*
X371050Y-104500D01*
X372508Y-108500D01*
G01X371983Y-107100D02*
X370117D01*
G01X374508Y-108500D02*
Y-104500D01*
X377192Y-108500D01*
Y-104500D01*
G01X379367D02*
Y-107367D01*
X379600Y-107967D01*
X380067Y-108367D01*
X380650Y-108500D01*
X381233Y-108367D01*
X381700Y-107967D01*
X381933Y-107367D01*
Y-104500D01*
G01X384342Y-108500D02*
Y-104500D01*
X386558D01*
G01X385742Y-106433D02*
X384342D01*
G01X388792Y-108500D02*
X390250Y-104500D01*
X391708Y-108500D01*
G01X391183Y-107100D02*
X389317D01*
G01X396333Y-104833D02*
X395983Y-104633D01*
X395575Y-104500D01*
X395108D01*
X394583Y-104700D01*
X394175Y-105033D01*
X393883Y-105433D01*
X393650Y-106100D01*
X393592Y-106700D01*
X393708Y-107300D01*
X393883Y-107700D01*
X394233Y-108100D01*
X394642Y-108367D01*
X395050Y-108500D01*
X395458D01*
X395867Y-108367D01*
X396217Y-108167D01*
X396508Y-107900D01*
G01X399850Y-104500D02*
Y-108500D01*
G01X398508Y-104500D02*
X401192D01*
G01X403367D02*
Y-107367D01*
X403600Y-107967D01*
X404067Y-108367D01*
X404650Y-108500D01*
X405233Y-108367D01*
X405700Y-107967D01*
X405933Y-107367D01*
Y-104500D01*
G01X408283Y-108500D02*
Y-104500D01*
X409742D01*
X410208Y-104700D01*
X410500Y-104967D01*
X410617Y-105500D01*
X410500Y-106033D01*
X410150Y-106367D01*
X409742Y-106567D01*
X408283D01*
G01X409742D02*
X410617Y-108500D01*
G01X415417D02*
X413083D01*
Y-104500D01*
X415417D01*
G01X414483Y-106433D02*
X413083D01*
G01X423150Y-104500D02*
X424550D01*
G01X423850D02*
Y-108500D01*
G01X423150D02*
X424550D01*
G01X427308D02*
Y-104500D01*
X429992Y-108500D01*
Y-104500D01*
G01X436500D02*
X437317Y-108500D01*
X438250Y-104500D01*
X439183Y-108500D01*
X440000Y-104500D01*
G01X441825Y-108500D02*
Y-104500D01*
G01X444275D02*
Y-108500D01*
G01Y-106500D02*
X441825D01*
G01X447850Y-108500D02*
X447383Y-108433D01*
X446975Y-108167D01*
X446625Y-107767D01*
X446392Y-107300D01*
X446275Y-106767D01*
Y-106233D01*
X446392Y-105700D01*
X446625Y-105233D01*
X446975Y-104833D01*
X447383Y-104567D01*
X447850Y-104500D01*
X448317Y-104567D01*
X448725Y-104833D01*
X449075Y-105233D01*
X449308Y-105700D01*
X449425Y-106233D01*
Y-106767D01*
X449308Y-107300D01*
X449075Y-107767D01*
X448725Y-108167D01*
X448317Y-108433D01*
X447850Y-108500D01*
G01X451483Y-104500D02*
Y-108500D01*
X453817D01*
G01X458617D02*
X456283D01*
Y-104500D01*
X458617D01*
G01X457683Y-106433D02*
X456283D01*
G01X292908Y-100500D02*
Y-96500D01*
X295592Y-100500D01*
Y-96500D01*
G01X299050Y-100500D02*
X298583Y-100433D01*
X298175Y-100167D01*
X297825Y-99767D01*
X297592Y-99300D01*
X297475Y-98767D01*
Y-98233D01*
X297592Y-97700D01*
X297825Y-97233D01*
X298175Y-96833D01*
X298583Y-96567D01*
X299050Y-96500D01*
X299517Y-96567D01*
X299925Y-96833D01*
X300275Y-97233D01*
X300508Y-97700D01*
X300625Y-98233D01*
Y-98767D01*
X300508Y-99300D01*
X300275Y-99767D01*
X299925Y-100167D01*
X299517Y-100433D01*
X299050Y-100500D01*
G01X303850Y-96500D02*
Y-100500D01*
G01X302508Y-96500D02*
X305192D01*
G01X313917Y-98367D02*
X314150Y-98167D01*
X314325Y-97833D01*
X314442Y-97367D01*
X314325Y-96967D01*
X314092Y-96700D01*
X313683Y-96500D01*
X312108D01*
Y-100500D01*
X314033D01*
X314442Y-100233D01*
X314675Y-99833D01*
X314792Y-99367D01*
X314675Y-98900D01*
X314325Y-98500D01*
X313917Y-98367D01*
X312108D01*
G01X319417Y-100500D02*
X317083D01*
Y-96500D01*
X319417D01*
G01X318483Y-98433D02*
X317083D01*
G01X326567Y-96500D02*
Y-99367D01*
X326800Y-99967D01*
X327267Y-100367D01*
X327850Y-100500D01*
X328433Y-100367D01*
X328900Y-99967D01*
X329133Y-99367D01*
Y-96500D01*
G01X331425Y-99967D02*
X331892Y-100300D01*
X332417Y-100500D01*
X332883D01*
X333350Y-100300D01*
X333700Y-99967D01*
X333875Y-99500D01*
X333758Y-99033D01*
X333467Y-98633D01*
X332942Y-98367D01*
X332242Y-98233D01*
X331833Y-97967D01*
X331658Y-97500D01*
X331775Y-97033D01*
X332067Y-96700D01*
X332475Y-96500D01*
X332883D01*
X333292Y-96633D01*
X333642Y-96967D01*
G01X338617Y-100500D02*
X336283D01*
Y-96500D01*
X338617D01*
G01X337683Y-98433D02*
X336283D01*
G01X340967Y-100500D02*
Y-96500D01*
X342133D01*
X342600Y-96700D01*
X342950Y-96967D01*
X343242Y-97367D01*
X343475Y-97833D01*
X343533Y-98500D01*
X343475Y-99167D01*
X343242Y-99633D01*
X342950Y-100033D01*
X342600Y-100300D01*
X342133Y-100500D01*
X340967D01*
G01X350742D02*
Y-96500D01*
X352958D01*
G01X352142Y-98433D02*
X350742D01*
G01X356650Y-100500D02*
X356183Y-100433D01*
X355775Y-100167D01*
X355425Y-99767D01*
X355192Y-99300D01*
X355075Y-98767D01*
Y-98233D01*
X355192Y-97700D01*
X355425Y-97233D01*
X355775Y-96833D01*
X356183Y-96567D01*
X356650Y-96500D01*
X357117Y-96567D01*
X357525Y-96833D01*
X357875Y-97233D01*
X358108Y-97700D01*
X358225Y-98233D01*
Y-98767D01*
X358108Y-99300D01*
X357875Y-99767D01*
X357525Y-100167D01*
X357117Y-100433D01*
X356650Y-100500D01*
G01X360283D02*
Y-96500D01*
X361742D01*
X362208Y-96700D01*
X362500Y-96967D01*
X362617Y-97500D01*
X362500Y-98033D01*
X362150Y-98367D01*
X361742Y-98567D01*
X360283D01*
G01X361742D02*
X362617Y-100500D01*
G01X372217D02*
X369883D01*
Y-96500D01*
X372217D01*
G01X371283Y-98433D02*
X369883D01*
G01X374508Y-100500D02*
Y-96500D01*
X377192Y-100500D01*
Y-96500D01*
G01X381000Y-98500D02*
X382167D01*
Y-99700D01*
X381817Y-100100D01*
X381408Y-100367D01*
X380825Y-100500D01*
X380242Y-100367D01*
X379833Y-100100D01*
X379483Y-99700D01*
X379250Y-99233D01*
X379133Y-98700D01*
Y-98233D01*
X379250Y-97833D01*
X379483Y-97367D01*
X379833Y-96967D01*
X380183Y-96700D01*
X380650Y-96500D01*
X381058D01*
X381525Y-96633D01*
X381875Y-96900D01*
G01X384750Y-96500D02*
X386150D01*
G01X385450D02*
Y-100500D01*
G01X384750D02*
X386150D01*
G01X388908D02*
Y-96500D01*
X391592Y-100500D01*
Y-96500D01*
G01X396217Y-100500D02*
X393883D01*
Y-96500D01*
X396217D01*
G01X395283Y-98433D02*
X393883D01*
G01X401017Y-100500D02*
X398683D01*
Y-96500D01*
X401017D01*
G01X400083Y-98433D02*
X398683D01*
G01X403483Y-100500D02*
Y-96500D01*
X404942D01*
X405408Y-96700D01*
X405700Y-96967D01*
X405817Y-97500D01*
X405700Y-98033D01*
X405350Y-98367D01*
X404942Y-98567D01*
X403483D01*
G01X404942D02*
X405817Y-100500D01*
G01X408750Y-96500D02*
X410150D01*
G01X409450D02*
Y-100500D01*
G01X408750D02*
X410150D01*
G01X412908D02*
Y-96500D01*
X415592Y-100500D01*
Y-96500D01*
G01X419400Y-98500D02*
X420567D01*
Y-99700D01*
X420217Y-100100D01*
X419808Y-100367D01*
X419225Y-100500D01*
X418642Y-100367D01*
X418233Y-100100D01*
X417883Y-99700D01*
X417650Y-99233D01*
X417533Y-98700D01*
Y-98233D01*
X417650Y-97833D01*
X417883Y-97367D01*
X418233Y-96967D01*
X418583Y-96700D01*
X419050Y-96500D01*
X419458D01*
X419925Y-96633D01*
X420275Y-96900D01*
G01X427367Y-100500D02*
Y-96500D01*
X428533D01*
X429000Y-96700D01*
X429350Y-96967D01*
X429642Y-97367D01*
X429875Y-97833D01*
X429933Y-98500D01*
X429875Y-99167D01*
X429642Y-99633D01*
X429350Y-100033D01*
X429000Y-100300D01*
X428533Y-100500D01*
X427367D01*
G01X434617D02*
X432283D01*
Y-96500D01*
X434617D01*
G01X433683Y-98433D02*
X432283D01*
G01X437025Y-99967D02*
X437492Y-100300D01*
X438017Y-100500D01*
X438483D01*
X438950Y-100300D01*
X439300Y-99967D01*
X439475Y-99500D01*
X439358Y-99033D01*
X439067Y-98633D01*
X438542Y-98367D01*
X437842Y-98233D01*
X437433Y-97967D01*
X437258Y-97500D01*
X437375Y-97033D01*
X437667Y-96700D01*
X438075Y-96500D01*
X438483D01*
X438892Y-96633D01*
X439242Y-96967D01*
G01X442350Y-96500D02*
X443750D01*
G01X443050D02*
Y-100500D01*
G01X442350D02*
X443750D01*
G01X448200Y-98500D02*
X449367D01*
Y-99700D01*
X449017Y-100100D01*
X448608Y-100367D01*
X448025Y-100500D01*
X447442Y-100367D01*
X447033Y-100100D01*
X446683Y-99700D01*
X446450Y-99233D01*
X446333Y-98700D01*
Y-98233D01*
X446450Y-97833D01*
X446683Y-97367D01*
X447033Y-96967D01*
X447383Y-96700D01*
X447850Y-96500D01*
X448258D01*
X448725Y-96633D01*
X449075Y-96900D01*
G01X451308Y-100500D02*
Y-96500D01*
X453992Y-100500D01*
Y-96500D01*
G01X293083Y-92500D02*
Y-88500D01*
X294483D01*
X294950Y-88700D01*
X295300Y-89167D01*
X295417Y-89700D01*
X295300Y-90233D01*
X295008Y-90633D01*
X294483Y-90833D01*
X293083D01*
G01X297883Y-92500D02*
Y-88500D01*
X299342D01*
X299808Y-88700D01*
X300100Y-88967D01*
X300217Y-89500D01*
X300100Y-90033D01*
X299750Y-90367D01*
X299342Y-90567D01*
X297883D01*
G01X299342D02*
X300217Y-92500D01*
G01X303850D02*
X303383Y-92433D01*
X302975Y-92167D01*
X302625Y-91767D01*
X302392Y-91300D01*
X302275Y-90767D01*
Y-90233D01*
X302392Y-89700D01*
X302625Y-89233D01*
X302975Y-88833D01*
X303383Y-88567D01*
X303850Y-88500D01*
X304317Y-88567D01*
X304725Y-88833D01*
X305075Y-89233D01*
X305308Y-89700D01*
X305425Y-90233D01*
Y-90767D01*
X305308Y-91300D01*
X305075Y-91767D01*
X304725Y-92167D01*
X304317Y-92433D01*
X303850Y-92500D01*
G01X307483D02*
Y-88500D01*
X308883D01*
X309350Y-88700D01*
X309700Y-89167D01*
X309817Y-89700D01*
X309700Y-90233D01*
X309408Y-90633D01*
X308883Y-90833D01*
X307483D01*
G01X312283Y-92500D02*
Y-88500D01*
X313742D01*
X314208Y-88700D01*
X314500Y-88967D01*
X314617Y-89500D01*
X314500Y-90033D01*
X314150Y-90367D01*
X313742Y-90567D01*
X312283D01*
G01X313742D02*
X314617Y-92500D01*
G01X317550Y-88500D02*
X318950D01*
G01X318250D02*
Y-92500D01*
G01X317550D02*
X318950D01*
G01X324217D02*
X321883D01*
Y-88500D01*
X324217D01*
G01X323283Y-90433D02*
X321883D01*
G01X327850Y-88500D02*
Y-92500D01*
G01X326508Y-88500D02*
X329192D01*
G01X331192Y-92500D02*
X332650Y-88500D01*
X334108Y-92500D01*
G01X333583Y-91100D02*
X331717D01*
G01X336283Y-92500D02*
Y-88500D01*
X337742D01*
X338208Y-88700D01*
X338500Y-88967D01*
X338617Y-89500D01*
X338500Y-90033D01*
X338150Y-90367D01*
X337742Y-90567D01*
X336283D01*
G01X337742D02*
X338617Y-92500D01*
G01X342250D02*
Y-90700D01*
X341083Y-88500D01*
G01X343417D02*
X342250Y-90700D01*
G01X351850Y-88500D02*
Y-92500D01*
G01X350508Y-88500D02*
X353192D01*
G01X356650Y-92500D02*
X356183Y-92433D01*
X355775Y-92167D01*
X355425Y-91767D01*
X355192Y-91300D01*
X355075Y-90767D01*
Y-90233D01*
X355192Y-89700D01*
X355425Y-89233D01*
X355775Y-88833D01*
X356183Y-88567D01*
X356650Y-88500D01*
X357117Y-88567D01*
X357525Y-88833D01*
X357875Y-89233D01*
X358108Y-89700D01*
X358225Y-90233D01*
Y-90767D01*
X358108Y-91300D01*
X357875Y-91767D01*
X357525Y-92167D01*
X357117Y-92433D01*
X356650Y-92500D01*
G01X365142D02*
Y-88500D01*
X367358D01*
G01X366542Y-90433D02*
X365142D01*
G01X369883Y-92500D02*
Y-88500D01*
X371342D01*
X371808Y-88700D01*
X372100Y-88967D01*
X372217Y-89500D01*
X372100Y-90033D01*
X371750Y-90367D01*
X371342Y-90567D01*
X369883D01*
G01X371342D02*
X372217Y-92500D01*
G01X377017D02*
X374683D01*
Y-88500D01*
X377017D01*
G01X376083Y-90433D02*
X374683D01*
G01X381817Y-92500D02*
X379483D01*
Y-88500D01*
X381817D01*
G01X380883Y-90433D02*
X379483D01*
G01X384225Y-91967D02*
X384692Y-92300D01*
X385217Y-92500D01*
X385683D01*
X386150Y-92300D01*
X386500Y-91967D01*
X386675Y-91500D01*
X386558Y-91033D01*
X386267Y-90633D01*
X385742Y-90367D01*
X385042Y-90233D01*
X384633Y-89967D01*
X384458Y-89500D01*
X384575Y-89033D01*
X384867Y-88700D01*
X385275Y-88500D01*
X385683D01*
X386092Y-88633D01*
X386442Y-88967D01*
G01X391533Y-88833D02*
X391183Y-88633D01*
X390775Y-88500D01*
X390308D01*
X389783Y-88700D01*
X389375Y-89033D01*
X389083Y-89433D01*
X388850Y-90100D01*
X388792Y-90700D01*
X388908Y-91300D01*
X389083Y-91700D01*
X389433Y-92100D01*
X389842Y-92367D01*
X390250Y-92500D01*
X390658D01*
X391067Y-92367D01*
X391417Y-92167D01*
X391708Y-91900D01*
G01X393592Y-92500D02*
X395050Y-88500D01*
X396508Y-92500D01*
G01X395983Y-91100D02*
X394117D01*
G01X398683Y-88500D02*
Y-92500D01*
X401017D01*
G01X405817D02*
X403483D01*
Y-88500D01*
X405817D01*
G01X404883Y-90433D02*
X403483D01*
G01X412792Y-92500D02*
X414250Y-88500D01*
X415708Y-92500D01*
G01X415183Y-91100D02*
X413317D01*
G01X417708Y-92500D02*
Y-88500D01*
X420392Y-92500D01*
Y-88500D01*
G01X422567Y-92500D02*
Y-88500D01*
X423733D01*
X424200Y-88700D01*
X424550Y-88967D01*
X424842Y-89367D01*
X425075Y-89833D01*
X425133Y-90500D01*
X425075Y-91167D01*
X424842Y-91633D01*
X424550Y-92033D01*
X424200Y-92300D01*
X423733Y-92500D01*
X422567D01*
G01X432225Y-91967D02*
X432692Y-92300D01*
X433217Y-92500D01*
X433683D01*
X434150Y-92300D01*
X434500Y-91967D01*
X434675Y-91500D01*
X434558Y-91033D01*
X434267Y-90633D01*
X433742Y-90367D01*
X433042Y-90233D01*
X432633Y-89967D01*
X432458Y-89500D01*
X432575Y-89033D01*
X432867Y-88700D01*
X433275Y-88500D01*
X433683D01*
X434092Y-88633D01*
X434442Y-88967D01*
G01X437025Y-92500D02*
Y-88500D01*
G01X439475D02*
Y-92500D01*
G01Y-90500D02*
X437025D01*
G01X441592Y-92500D02*
X443050Y-88500D01*
X444508Y-92500D01*
G01X443983Y-91100D02*
X442117D01*
G01X446683Y-88500D02*
Y-92500D01*
X449017D01*
G01X451483Y-88500D02*
Y-92500D01*
X453817D01*
G01X293250Y-80500D02*
Y-84500D01*
G01X291908Y-80500D02*
X294592D01*
G01X296825Y-84500D02*
Y-80500D01*
G01X299275D02*
Y-84500D01*
G01Y-82500D02*
X296825D01*
G01X302150Y-80500D02*
X303550D01*
G01X302850D02*
Y-84500D01*
G01X302150D02*
X303550D01*
G01X306425Y-83967D02*
X306892Y-84300D01*
X307417Y-84500D01*
X307883D01*
X308350Y-84300D01*
X308700Y-83967D01*
X308875Y-83500D01*
X308758Y-83033D01*
X308467Y-82633D01*
X307942Y-82367D01*
X307242Y-82233D01*
X306833Y-81967D01*
X306658Y-81500D01*
X306775Y-81033D01*
X307067Y-80700D01*
X307475Y-80500D01*
X307883D01*
X308292Y-80633D01*
X308642Y-80967D01*
G01X315967Y-84500D02*
Y-80500D01*
X317133D01*
X317600Y-80700D01*
X317950Y-80967D01*
X318242Y-81367D01*
X318475Y-81833D01*
X318533Y-82500D01*
X318475Y-83167D01*
X318242Y-83633D01*
X317950Y-84033D01*
X317600Y-84300D01*
X317133Y-84500D01*
X315967D01*
G01X322050D02*
X321583Y-84433D01*
X321175Y-84167D01*
X320825Y-83767D01*
X320592Y-83300D01*
X320475Y-82767D01*
Y-82233D01*
X320592Y-81700D01*
X320825Y-81233D01*
X321175Y-80833D01*
X321583Y-80567D01*
X322050Y-80500D01*
X322517Y-80567D01*
X322925Y-80833D01*
X323275Y-81233D01*
X323508Y-81700D01*
X323625Y-82233D01*
Y-82767D01*
X323508Y-83300D01*
X323275Y-83767D01*
X322925Y-84167D01*
X322517Y-84433D01*
X322050Y-84500D01*
G01X328133Y-80833D02*
X327783Y-80633D01*
X327375Y-80500D01*
X326908D01*
X326383Y-80700D01*
X325975Y-81033D01*
X325683Y-81433D01*
X325450Y-82100D01*
X325392Y-82700D01*
X325508Y-83300D01*
X325683Y-83700D01*
X326033Y-84100D01*
X326442Y-84367D01*
X326850Y-84500D01*
X327258D01*
X327667Y-84367D01*
X328017Y-84167D01*
X328308Y-83900D01*
G01X330367Y-80500D02*
Y-83367D01*
X330600Y-83967D01*
X331067Y-84367D01*
X331650Y-84500D01*
X332233Y-84367D01*
X332700Y-83967D01*
X332933Y-83367D01*
Y-80500D01*
G01X334933Y-84500D02*
Y-80500D01*
X336450Y-83833D01*
X337967Y-80500D01*
Y-84500D01*
G01X342417D02*
X340083D01*
Y-80500D01*
X342417D01*
G01X341483Y-82433D02*
X340083D01*
G01X344708Y-84500D02*
Y-80500D01*
X347392Y-84500D01*
Y-80500D01*
G01X350850D02*
Y-84500D01*
G01X349508Y-80500D02*
X352192D01*
G01X361733Y-80833D02*
X361383Y-80633D01*
X360975Y-80500D01*
X360508D01*
X359983Y-80700D01*
X359575Y-81033D01*
X359283Y-81433D01*
X359050Y-82100D01*
X358992Y-82700D01*
X359108Y-83300D01*
X359283Y-83700D01*
X359633Y-84100D01*
X360042Y-84367D01*
X360450Y-84500D01*
X360858D01*
X361267Y-84367D01*
X361617Y-84167D01*
X361908Y-83900D01*
G01X365250Y-84500D02*
X364783Y-84433D01*
X364375Y-84167D01*
X364025Y-83767D01*
X363792Y-83300D01*
X363675Y-82767D01*
Y-82233D01*
X363792Y-81700D01*
X364025Y-81233D01*
X364375Y-80833D01*
X364783Y-80567D01*
X365250Y-80500D01*
X365717Y-80567D01*
X366125Y-80833D01*
X366475Y-81233D01*
X366708Y-81700D01*
X366825Y-82233D01*
Y-82767D01*
X366708Y-83300D01*
X366475Y-83767D01*
X366125Y-84167D01*
X365717Y-84433D01*
X365250Y-84500D01*
G01X368708D02*
Y-80500D01*
X371392Y-84500D01*
Y-80500D01*
G01X374850D02*
Y-84500D01*
G01X373508Y-80500D02*
X376192D01*
G01X378192Y-84500D02*
X379650Y-80500D01*
X381108Y-84500D01*
G01X380583Y-83100D02*
X378717D01*
G01X383750Y-80500D02*
X385150D01*
G01X384450D02*
Y-84500D01*
G01X383750D02*
X385150D01*
G01X387908D02*
Y-80500D01*
X390592Y-84500D01*
Y-80500D01*
G01X392825Y-83967D02*
X393292Y-84300D01*
X393817Y-84500D01*
X394283D01*
X394750Y-84300D01*
X395100Y-83967D01*
X395275Y-83500D01*
X395158Y-83033D01*
X394867Y-82633D01*
X394342Y-82367D01*
X393642Y-82233D01*
X393233Y-81967D01*
X393058Y-81500D01*
X393175Y-81033D01*
X393467Y-80700D01*
X393875Y-80500D01*
X394283D01*
X394692Y-80633D01*
X395042Y-80967D01*
G01X402950Y-80500D02*
X404350D01*
G01X403650D02*
Y-84500D01*
G01X402950D02*
X404350D01*
G01X407108D02*
Y-80500D01*
X409792Y-84500D01*
Y-80500D01*
G01X412142Y-84500D02*
Y-80500D01*
X414358D01*
G01X413542Y-82433D02*
X412142D01*
G01X418050Y-84500D02*
X417583Y-84433D01*
X417175Y-84167D01*
X416825Y-83767D01*
X416592Y-83300D01*
X416475Y-82767D01*
Y-82233D01*
X416592Y-81700D01*
X416825Y-81233D01*
X417175Y-80833D01*
X417583Y-80567D01*
X418050Y-80500D01*
X418517Y-80567D01*
X418925Y-80833D01*
X419275Y-81233D01*
X419508Y-81700D01*
X419625Y-82233D01*
Y-82767D01*
X419508Y-83300D01*
X419275Y-83767D01*
X418925Y-84167D01*
X418517Y-84433D01*
X418050Y-84500D01*
G01X421683D02*
Y-80500D01*
X423142D01*
X423608Y-80700D01*
X423900Y-80967D01*
X424017Y-81500D01*
X423900Y-82033D01*
X423550Y-82367D01*
X423142Y-82567D01*
X421683D01*
G01X423142D02*
X424017Y-84500D01*
G01X426133D02*
Y-80500D01*
X427650Y-83833D01*
X429167Y-80500D01*
Y-84500D01*
G01X430992D02*
X432450Y-80500D01*
X433908Y-84500D01*
G01X433383Y-83100D02*
X431517D01*
G01X437250Y-80500D02*
Y-84500D01*
G01X435908Y-80500D02*
X438592D01*
G01X441350D02*
X442750D01*
G01X442050D02*
Y-84500D01*
G01X441350D02*
X442750D01*
G01X446850D02*
X446383Y-84433D01*
X445975Y-84167D01*
X445625Y-83767D01*
X445392Y-83300D01*
X445275Y-82767D01*
Y-82233D01*
X445392Y-81700D01*
X445625Y-81233D01*
X445975Y-80833D01*
X446383Y-80567D01*
X446850Y-80500D01*
X447317Y-80567D01*
X447725Y-80833D01*
X448075Y-81233D01*
X448308Y-81700D01*
X448425Y-82233D01*
Y-82767D01*
X448308Y-83300D01*
X448075Y-83767D01*
X447725Y-84167D01*
X447317Y-84433D01*
X446850Y-84500D01*
G01X450308D02*
Y-80500D01*
X452992Y-84500D01*
Y-80500D01*
G01X336142Y-135500D02*
Y-131500D01*
X338358D01*
G01X337542Y-133433D02*
X336142D01*
G01X341350Y-131500D02*
X342750D01*
G01X342050D02*
Y-135500D01*
G01X341350D02*
X342750D01*
G01X345683Y-131500D02*
Y-135500D01*
X348017D01*
G01X350133D02*
Y-131500D01*
X351650Y-134833D01*
X353167Y-131500D01*
Y-135500D01*
G01X464250Y-139500D02*
X463783Y-139633D01*
X463433Y-139967D01*
X463200Y-140367D01*
X463025Y-140900D01*
X462967Y-141500D01*
X463025Y-142100D01*
X463200Y-142633D01*
X463433Y-143033D01*
X463783Y-143367D01*
X464250Y-143500D01*
X464717Y-143367D01*
X465067Y-143033D01*
X465300Y-142633D01*
X465475Y-142100D01*
X465533Y-141500D01*
X465475Y-140900D01*
X465300Y-140367D01*
X465067Y-139967D01*
X464717Y-139633D01*
X464250Y-139500D01*
G01X468058Y-143033D02*
X468467Y-143367D01*
X468933Y-143500D01*
X469400Y-143367D01*
X469808Y-142967D01*
X470100Y-142367D01*
X470217Y-141767D01*
Y-141033D01*
X470100Y-140433D01*
X469808Y-139900D01*
X469458Y-139633D01*
X469050Y-139500D01*
X468583Y-139633D01*
X468233Y-139900D01*
X468000Y-140300D01*
X467883Y-140833D01*
X468000Y-141300D01*
X468292Y-141767D01*
X468642Y-142033D01*
X469050Y-142100D01*
X469517Y-141967D01*
X469867Y-141633D01*
X470217Y-141033D01*
G01X473092Y-142167D02*
X474608D01*
G01X478650Y-143500D02*
Y-139500D01*
X477950Y-140300D01*
G01Y-143500D02*
X479350D01*
G01X482458Y-143033D02*
X482867Y-143367D01*
X483333Y-143500D01*
X483800Y-143367D01*
X484208Y-142967D01*
X484500Y-142367D01*
X484617Y-141767D01*
Y-141033D01*
X484500Y-140433D01*
X484208Y-139900D01*
X483858Y-139633D01*
X483450Y-139500D01*
X482983Y-139633D01*
X482633Y-139900D01*
X482400Y-140300D01*
X482283Y-140833D01*
X482400Y-141300D01*
X482692Y-141767D01*
X483042Y-142033D01*
X483450Y-142100D01*
X483917Y-141967D01*
X484267Y-141633D01*
X484617Y-141033D01*
G01X487492Y-142167D02*
X489008D01*
G01X493050Y-143500D02*
Y-139500D01*
X492350Y-140300D01*
G01Y-143500D02*
X493750D01*
G01X496742Y-140167D02*
X497092Y-139767D01*
X497500Y-139567D01*
X497967Y-139500D01*
X498550Y-139633D01*
X498958Y-139967D01*
X499075Y-140367D01*
X499017Y-140767D01*
X498783Y-141100D01*
X497617Y-141767D01*
X497092Y-142233D01*
X496742Y-142900D01*
X496625Y-143500D01*
X499075D01*
G01X470500Y-121333D02*
X474000D01*
G01X475300D02*
X478800D01*
G01X480100D02*
X483600D01*
G01X490342Y-120000D02*
Y-116000D01*
X492558D01*
G01X491742Y-117933D02*
X490342D01*
G01X497533Y-116333D02*
X497183Y-116133D01*
X496775Y-116000D01*
X496308D01*
X495783Y-116200D01*
X495375Y-116533D01*
X495083Y-116933D01*
X494850Y-117600D01*
X494792Y-118200D01*
X494908Y-118800D01*
X495083Y-119200D01*
X495433Y-119600D01*
X495842Y-119867D01*
X496250Y-120000D01*
X496658D01*
X497067Y-119867D01*
X497417Y-119667D01*
X497708Y-119400D01*
G01X499883Y-120000D02*
Y-116000D01*
X501283D01*
X501750Y-116200D01*
X502100Y-116667D01*
X502217Y-117200D01*
X502100Y-117733D01*
X501808Y-118133D01*
X501283Y-118333D01*
X499883D01*
G01X510358Y-121333D02*
X509775Y-120667D01*
X509483Y-120000D01*
Y-117333D01*
X509775Y-116667D01*
X510358Y-116000D01*
G01X514342Y-120000D02*
Y-116000D01*
X516558D01*
G01X515742Y-117933D02*
X514342D01*
G01X519083Y-120000D02*
Y-116000D01*
X520542D01*
X521008Y-116200D01*
X521300Y-116467D01*
X521417Y-117000D01*
X521300Y-117533D01*
X520950Y-117867D01*
X520542Y-118067D01*
X519083D01*
G01X520542D02*
X521417Y-120000D01*
G01X526217D02*
X523883D01*
Y-116000D01*
X526217D01*
G01X525283Y-117933D02*
X523883D01*
G01X531017Y-120000D02*
X528683D01*
Y-116000D01*
X531017D01*
G01X530083Y-117933D02*
X528683D01*
G01X533425Y-119467D02*
X533892Y-119800D01*
X534417Y-120000D01*
X534883D01*
X535350Y-119800D01*
X535700Y-119467D01*
X535875Y-119000D01*
X535758Y-118533D01*
X535467Y-118133D01*
X534942Y-117867D01*
X534242Y-117733D01*
X533833Y-117467D01*
X533658Y-117000D01*
X533775Y-116533D01*
X534067Y-116200D01*
X534475Y-116000D01*
X534883D01*
X535292Y-116133D01*
X535642Y-116467D01*
G01X540733Y-116333D02*
X540383Y-116133D01*
X539975Y-116000D01*
X539508D01*
X538983Y-116200D01*
X538575Y-116533D01*
X538283Y-116933D01*
X538050Y-117600D01*
X537992Y-118200D01*
X538108Y-118800D01*
X538283Y-119200D01*
X538633Y-119600D01*
X539042Y-119867D01*
X539450Y-120000D01*
X539858D01*
X540267Y-119867D01*
X540617Y-119667D01*
X540908Y-119400D01*
G01X542792Y-120000D02*
X544250Y-116000D01*
X545708Y-120000D01*
G01X545183Y-118600D02*
X543317D01*
G01X547883Y-116000D02*
Y-120000D01*
X550217D01*
G01X555017D02*
X552683D01*
Y-116000D01*
X555017D01*
G01X554083Y-117933D02*
X552683D01*
G01X564733Y-116333D02*
X564383Y-116133D01*
X563975Y-116000D01*
X563508D01*
X562983Y-116200D01*
X562575Y-116533D01*
X562283Y-116933D01*
X562050Y-117600D01*
X561992Y-118200D01*
X562108Y-118800D01*
X562283Y-119200D01*
X562633Y-119600D01*
X563042Y-119867D01*
X563450Y-120000D01*
X563858D01*
X564267Y-119867D01*
X564617Y-119667D01*
X564908Y-119400D01*
G01X568250Y-120000D02*
X567783Y-119933D01*
X567375Y-119667D01*
X567025Y-119267D01*
X566792Y-118800D01*
X566675Y-118267D01*
Y-117733D01*
X566792Y-117200D01*
X567025Y-116733D01*
X567375Y-116333D01*
X567783Y-116067D01*
X568250Y-116000D01*
X568717Y-116067D01*
X569125Y-116333D01*
X569475Y-116733D01*
X569708Y-117200D01*
X569825Y-117733D01*
Y-118267D01*
X569708Y-118800D01*
X569475Y-119267D01*
X569125Y-119667D01*
X568717Y-119933D01*
X568250Y-120000D01*
G01X571708D02*
Y-116000D01*
X574392Y-120000D01*
Y-116000D01*
G01X576742Y-120000D02*
Y-116000D01*
X578958D01*
G01X578142Y-117933D02*
X576742D01*
G01X581950Y-116000D02*
X583350D01*
G01X582650D02*
Y-120000D01*
G01X581950D02*
X583350D01*
G01X586167D02*
Y-116000D01*
X587333D01*
X587800Y-116200D01*
X588150Y-116467D01*
X588442Y-116867D01*
X588675Y-117333D01*
X588733Y-118000D01*
X588675Y-118667D01*
X588442Y-119133D01*
X588150Y-119533D01*
X587800Y-119800D01*
X587333Y-120000D01*
X586167D01*
G01X593417D02*
X591083D01*
Y-116000D01*
X593417D01*
G01X592483Y-117933D02*
X591083D01*
G01X595708Y-120000D02*
Y-116000D01*
X598392Y-120000D01*
Y-116000D01*
G01X601850D02*
Y-120000D01*
G01X600508Y-116000D02*
X603192D01*
G01X605950D02*
X607350D01*
G01X606650D02*
Y-120000D01*
G01X605950D02*
X607350D01*
G01X609992D02*
X611450Y-116000D01*
X612908Y-120000D01*
G01X612383Y-118600D02*
X610517D01*
G01X615083Y-116000D02*
Y-120000D01*
X617417D01*
G01X624683D02*
Y-116000D01*
X626083D01*
X626550Y-116200D01*
X626900Y-116667D01*
X627017Y-117200D01*
X626900Y-117733D01*
X626608Y-118133D01*
X626083Y-118333D01*
X624683D01*
G01X629483Y-120000D02*
Y-116000D01*
X630942D01*
X631408Y-116200D01*
X631700Y-116467D01*
X631817Y-117000D01*
X631700Y-117533D01*
X631350Y-117867D01*
X630942Y-118067D01*
X629483D01*
G01X630942D02*
X631817Y-120000D01*
G01X635450D02*
X634983Y-119933D01*
X634575Y-119667D01*
X634225Y-119267D01*
X633992Y-118800D01*
X633875Y-118267D01*
Y-117733D01*
X633992Y-117200D01*
X634225Y-116733D01*
X634575Y-116333D01*
X634983Y-116067D01*
X635450Y-116000D01*
X635917Y-116067D01*
X636325Y-116333D01*
X636675Y-116733D01*
X636908Y-117200D01*
X637025Y-117733D01*
Y-118267D01*
X636908Y-118800D01*
X636675Y-119267D01*
X636325Y-119667D01*
X635917Y-119933D01*
X635450Y-120000D01*
G01X639083D02*
Y-116000D01*
X640483D01*
X640950Y-116200D01*
X641300Y-116667D01*
X641417Y-117200D01*
X641300Y-117733D01*
X641008Y-118133D01*
X640483Y-118333D01*
X639083D01*
G01X643883Y-120000D02*
Y-116000D01*
X645342D01*
X645808Y-116200D01*
X646100Y-116467D01*
X646217Y-117000D01*
X646100Y-117533D01*
X645750Y-117867D01*
X645342Y-118067D01*
X643883D01*
G01X645342D02*
X646217Y-120000D01*
G01X649150Y-116000D02*
X650550D01*
G01X649850D02*
Y-120000D01*
G01X649150D02*
X650550D01*
G01X655817D02*
X653483D01*
Y-116000D01*
X655817D01*
G01X654883Y-117933D02*
X653483D01*
G01X659450Y-116000D02*
Y-120000D01*
G01X658108Y-116000D02*
X660792D01*
G01X662792Y-120000D02*
X664250Y-116000D01*
X665708Y-120000D01*
G01X665183Y-118600D02*
X663317D01*
G01X667883Y-120000D02*
Y-116000D01*
X669342D01*
X669808Y-116200D01*
X670100Y-116467D01*
X670217Y-117000D01*
X670100Y-117533D01*
X669750Y-117867D01*
X669342Y-118067D01*
X667883D01*
G01X669342D02*
X670217Y-120000D01*
G01X673850D02*
Y-118200D01*
X672683Y-116000D01*
G01X675017D02*
X673850Y-118200D01*
G01X678942Y-121333D02*
X679525Y-120667D01*
X679817Y-120000D01*
Y-117333D01*
X679525Y-116667D01*
X678942Y-116000D01*
G01X460967Y-135500D02*
Y-131500D01*
X462133D01*
X462600Y-131700D01*
X462950Y-131967D01*
X463242Y-132367D01*
X463475Y-132833D01*
X463533Y-133500D01*
X463475Y-134167D01*
X463242Y-134633D01*
X462950Y-135033D01*
X462600Y-135300D01*
X462133Y-135500D01*
X460967D01*
G01X465592D02*
X467050Y-131500D01*
X468508Y-135500D01*
G01X467983Y-134100D02*
X466117D01*
G01X471850Y-131500D02*
Y-135500D01*
G01X470508Y-131500D02*
X473192D01*
G01X477817Y-135500D02*
X475483D01*
Y-131500D01*
X477817D01*
G01X476883Y-133433D02*
X475483D01*
G01X475205Y-104500D02*
X478495Y-98200D01*
G01X475205D02*
X478495Y-104500D01*
G01X470500Y-104833D02*
X474000D01*
G01X475300D02*
X478800D01*
G01X480100D02*
X483600D01*
G01X490342Y-103500D02*
Y-99500D01*
X492558D01*
G01X491742Y-101433D02*
X490342D01*
G01X495550Y-99500D02*
X496950D01*
G01X496250D02*
Y-103500D01*
G01X495550D02*
X496950D01*
G01X499767Y-99500D02*
Y-102367D01*
X500000Y-102967D01*
X500467Y-103367D01*
X501050Y-103500D01*
X501633Y-103367D01*
X502100Y-102967D01*
X502333Y-102367D01*
Y-99500D01*
G01X505850Y-103500D02*
X505383Y-103433D01*
X504975Y-103167D01*
X504625Y-102767D01*
X504392Y-102300D01*
X504275Y-101767D01*
Y-101233D01*
X504392Y-100700D01*
X504625Y-100233D01*
X504975Y-99833D01*
X505383Y-99567D01*
X505850Y-99500D01*
X506317Y-99567D01*
X506725Y-99833D01*
X507075Y-100233D01*
X507308Y-100700D01*
X507425Y-101233D01*
Y-101767D01*
X507308Y-102300D01*
X507075Y-102767D01*
X506725Y-103167D01*
X506317Y-103433D01*
X505850Y-103500D01*
G01X515158Y-104833D02*
X514575Y-104167D01*
X514283Y-103500D01*
Y-100833D01*
X514575Y-100167D01*
X515158Y-99500D01*
G01X519142Y-103500D02*
Y-99500D01*
X521358D01*
G01X520542Y-101433D02*
X519142D01*
G01X523883Y-103500D02*
Y-99500D01*
X525342D01*
X525808Y-99700D01*
X526100Y-99967D01*
X526217Y-100500D01*
X526100Y-101033D01*
X525750Y-101367D01*
X525342Y-101567D01*
X523883D01*
G01X525342D02*
X526217Y-103500D01*
G01X531017D02*
X528683D01*
Y-99500D01*
X531017D01*
G01X530083Y-101433D02*
X528683D01*
G01X535817Y-103500D02*
X533483D01*
Y-99500D01*
X535817D01*
G01X534883Y-101433D02*
X533483D01*
G01X538225Y-102967D02*
X538692Y-103300D01*
X539217Y-103500D01*
X539683D01*
X540150Y-103300D01*
X540500Y-102967D01*
X540675Y-102500D01*
X540558Y-102033D01*
X540267Y-101633D01*
X539742Y-101367D01*
X539042Y-101233D01*
X538633Y-100967D01*
X538458Y-100500D01*
X538575Y-100033D01*
X538867Y-99700D01*
X539275Y-99500D01*
X539683D01*
X540092Y-99633D01*
X540442Y-99967D01*
G01X545533Y-99833D02*
X545183Y-99633D01*
X544775Y-99500D01*
X544308D01*
X543783Y-99700D01*
X543375Y-100033D01*
X543083Y-100433D01*
X542850Y-101100D01*
X542792Y-101700D01*
X542908Y-102300D01*
X543083Y-102700D01*
X543433Y-103100D01*
X543842Y-103367D01*
X544250Y-103500D01*
X544658D01*
X545067Y-103367D01*
X545417Y-103167D01*
X545708Y-102900D01*
G01X547592Y-103500D02*
X549050Y-99500D01*
X550508Y-103500D01*
G01X549983Y-102100D02*
X548117D01*
G01X552683Y-99500D02*
Y-103500D01*
X555017D01*
G01X559817D02*
X557483D01*
Y-99500D01*
X559817D01*
G01X558883Y-101433D02*
X557483D01*
G01X567550Y-99500D02*
X568950D01*
G01X568250D02*
Y-103500D01*
G01X567550D02*
X568950D01*
G01X571708D02*
Y-99500D01*
X574392Y-103500D01*
Y-99500D01*
G01X577850D02*
Y-103500D01*
G01X576508Y-99500D02*
X579192D01*
G01X583817Y-103500D02*
X581483D01*
Y-99500D01*
X583817D01*
G01X582883Y-101433D02*
X581483D01*
G01X586283Y-103500D02*
Y-99500D01*
X587742D01*
X588208Y-99700D01*
X588500Y-99967D01*
X588617Y-100500D01*
X588500Y-101033D01*
X588150Y-101367D01*
X587742Y-101567D01*
X586283D01*
G01X587742D02*
X588617Y-103500D01*
G01X590908D02*
Y-99500D01*
X593592Y-103500D01*
Y-99500D01*
G01X595592Y-103500D02*
X597050Y-99500D01*
X598508Y-103500D01*
G01X597983Y-102100D02*
X596117D01*
G01X600683Y-99500D02*
Y-103500D01*
X603017D01*
G01X610167Y-99500D02*
Y-102367D01*
X610400Y-102967D01*
X610867Y-103367D01*
X611450Y-103500D01*
X612033Y-103367D01*
X612500Y-102967D01*
X612733Y-102367D01*
Y-99500D01*
G01X615025Y-102967D02*
X615492Y-103300D01*
X616017Y-103500D01*
X616483D01*
X616950Y-103300D01*
X617300Y-102967D01*
X617475Y-102500D01*
X617358Y-102033D01*
X617067Y-101633D01*
X616542Y-101367D01*
X615842Y-101233D01*
X615433Y-100967D01*
X615258Y-100500D01*
X615375Y-100033D01*
X615667Y-99700D01*
X616075Y-99500D01*
X616483D01*
X616892Y-99633D01*
X617242Y-99967D01*
G01X622217Y-103500D02*
X619883D01*
Y-99500D01*
X622217D01*
G01X621283Y-101433D02*
X619883D01*
G01X630650Y-103500D02*
X630183Y-103433D01*
X629775Y-103167D01*
X629425Y-102767D01*
X629192Y-102300D01*
X629075Y-101767D01*
Y-101233D01*
X629192Y-100700D01*
X629425Y-100233D01*
X629775Y-99833D01*
X630183Y-99567D01*
X630650Y-99500D01*
X631117Y-99567D01*
X631525Y-99833D01*
X631875Y-100233D01*
X632108Y-100700D01*
X632225Y-101233D01*
Y-101767D01*
X632108Y-102300D01*
X631875Y-102767D01*
X631525Y-103167D01*
X631117Y-103433D01*
X630650Y-103500D01*
G01X634108D02*
Y-99500D01*
X636792Y-103500D01*
Y-99500D01*
G01X639083D02*
Y-103500D01*
X641417D01*
G01X645050D02*
Y-101700D01*
X643883Y-99500D01*
G01X646217D02*
X645050Y-101700D01*
G01X650142Y-104833D02*
X650725Y-104167D01*
X651017Y-103500D01*
Y-100833D01*
X650725Y-100167D01*
X650142Y-99500D01*
G01X470500Y-88833D02*
X474000D01*
G01X475300D02*
X478800D01*
G01X480100D02*
X483600D01*
G01X490283Y-87500D02*
Y-83500D01*
X491683D01*
X492150Y-83700D01*
X492500Y-84167D01*
X492617Y-84700D01*
X492500Y-85233D01*
X492208Y-85633D01*
X491683Y-85833D01*
X490283D01*
G01X494967Y-83500D02*
Y-86367D01*
X495200Y-86967D01*
X495667Y-87367D01*
X496250Y-87500D01*
X496833Y-87367D01*
X497300Y-86967D01*
X497533Y-86367D01*
Y-83500D01*
G01X501517Y-85367D02*
X501750Y-85167D01*
X501925Y-84833D01*
X502042Y-84367D01*
X501925Y-83967D01*
X501692Y-83700D01*
X501283Y-83500D01*
X499708D01*
Y-87500D01*
X501633D01*
X502042Y-87233D01*
X502275Y-86833D01*
X502392Y-86367D01*
X502275Y-85900D01*
X501925Y-85500D01*
X501517Y-85367D01*
X499708D01*
G01X505150Y-83500D02*
X506550D01*
G01X505850D02*
Y-87500D01*
G01X505150D02*
X506550D01*
G01X515158Y-88833D02*
X514575Y-88167D01*
X514283Y-87500D01*
Y-84833D01*
X514575Y-84167D01*
X515158Y-83500D01*
G01X519083Y-87500D02*
Y-83500D01*
X520483D01*
X520950Y-83700D01*
X521300Y-84167D01*
X521417Y-84700D01*
X521300Y-85233D01*
X521008Y-85633D01*
X520483Y-85833D01*
X519083D01*
G01X523767Y-83500D02*
Y-86367D01*
X524000Y-86967D01*
X524467Y-87367D01*
X525050Y-87500D01*
X525633Y-87367D01*
X526100Y-86967D01*
X526333Y-86367D01*
Y-83500D01*
G01X530317Y-85367D02*
X530550Y-85167D01*
X530725Y-84833D01*
X530842Y-84367D01*
X530725Y-83967D01*
X530492Y-83700D01*
X530083Y-83500D01*
X528508D01*
Y-87500D01*
X530433D01*
X530842Y-87233D01*
X531075Y-86833D01*
X531192Y-86367D01*
X531075Y-85900D01*
X530725Y-85500D01*
X530317Y-85367D01*
X528508D01*
G01X533483Y-83500D02*
Y-87500D01*
X535817D01*
G01X538750Y-83500D02*
X540150D01*
G01X539450D02*
Y-87500D01*
G01X538750D02*
X540150D01*
G01X545533Y-83833D02*
X545183Y-83633D01*
X544775Y-83500D01*
X544308D01*
X543783Y-83700D01*
X543375Y-84033D01*
X543083Y-84433D01*
X542850Y-85100D01*
X542792Y-85700D01*
X542908Y-86300D01*
X543083Y-86700D01*
X543433Y-87100D01*
X543842Y-87367D01*
X544250Y-87500D01*
X544658D01*
X545067Y-87367D01*
X545417Y-87167D01*
X545708Y-86900D01*
G01X553150Y-83500D02*
X554550D01*
G01X553850D02*
Y-87500D01*
G01X553150D02*
X554550D01*
G01X557308D02*
Y-83500D01*
X559992Y-87500D01*
Y-83500D01*
G01X562342Y-87500D02*
Y-83500D01*
X564558D01*
G01X563742Y-85433D02*
X562342D01*
G01X568250Y-87500D02*
X567783Y-87433D01*
X567375Y-87167D01*
X567025Y-86767D01*
X566792Y-86300D01*
X566675Y-85767D01*
Y-85233D01*
X566792Y-84700D01*
X567025Y-84233D01*
X567375Y-83833D01*
X567783Y-83567D01*
X568250Y-83500D01*
X568717Y-83567D01*
X569125Y-83833D01*
X569475Y-84233D01*
X569708Y-84700D01*
X569825Y-85233D01*
Y-85767D01*
X569708Y-86300D01*
X569475Y-86767D01*
X569125Y-87167D01*
X568717Y-87433D01*
X568250Y-87500D01*
G01X571883D02*
Y-83500D01*
X573342D01*
X573808Y-83700D01*
X574100Y-83967D01*
X574217Y-84500D01*
X574100Y-85033D01*
X573750Y-85367D01*
X573342Y-85567D01*
X571883D01*
G01X573342D02*
X574217Y-87500D01*
G01X576333D02*
Y-83500D01*
X577850Y-86833D01*
X579367Y-83500D01*
Y-87500D01*
G01X581192D02*
X582650Y-83500D01*
X584108Y-87500D01*
G01X583583Y-86100D02*
X581717D01*
G01X587450Y-83500D02*
Y-87500D01*
G01X586108Y-83500D02*
X588792D01*
G01X591550D02*
X592950D01*
G01X592250D02*
Y-87500D01*
G01X591550D02*
X592950D01*
G01X597050D02*
X596583Y-87433D01*
X596175Y-87167D01*
X595825Y-86767D01*
X595592Y-86300D01*
X595475Y-85767D01*
Y-85233D01*
X595592Y-84700D01*
X595825Y-84233D01*
X596175Y-83833D01*
X596583Y-83567D01*
X597050Y-83500D01*
X597517Y-83567D01*
X597925Y-83833D01*
X598275Y-84233D01*
X598508Y-84700D01*
X598625Y-85233D01*
Y-85767D01*
X598508Y-86300D01*
X598275Y-86767D01*
X597925Y-87167D01*
X597517Y-87433D01*
X597050Y-87500D01*
G01X600508D02*
Y-83500D01*
X603192Y-87500D01*
Y-83500D01*
G01X606942Y-88833D02*
X607525Y-88167D01*
X607817Y-87500D01*
Y-84833D01*
X607525Y-84167D01*
X606942Y-83500D01*
G01X460908Y-55500D02*
Y-51500D01*
X463592Y-55500D01*
Y-51500D01*
G01X465592Y-55500D02*
X467050Y-51500D01*
X468508Y-55500D01*
G01X467983Y-54100D02*
X466117D01*
G01X470333Y-55500D02*
Y-51500D01*
X471850Y-54833D01*
X473367Y-51500D01*
Y-55500D01*
G01X477817D02*
X475483D01*
Y-51500D01*
X477817D01*
G01X476883Y-53433D02*
X475483D01*
G01X510908Y-135500D02*
Y-131500D01*
X513592Y-135500D01*
Y-131500D01*
G01X515767D02*
Y-134367D01*
X516000Y-134967D01*
X516467Y-135367D01*
X517050Y-135500D01*
X517633Y-135367D01*
X518100Y-134967D01*
X518333Y-134367D01*
Y-131500D01*
G01X520333Y-135500D02*
Y-131500D01*
X521850Y-134833D01*
X523367Y-131500D01*
Y-135500D01*
G01X527117Y-133367D02*
X527350Y-133167D01*
X527525Y-132833D01*
X527642Y-132367D01*
X527525Y-131967D01*
X527292Y-131700D01*
X526883Y-131500D01*
X525308D01*
Y-135500D01*
X527233D01*
X527642Y-135233D01*
X527875Y-134833D01*
X527992Y-134367D01*
X527875Y-133900D01*
X527525Y-133500D01*
X527117Y-133367D01*
X525308D01*
G01X532617Y-135500D02*
X530283D01*
Y-131500D01*
X532617D01*
G01X531683Y-133433D02*
X530283D01*
G01X535083Y-135500D02*
Y-131500D01*
X536542D01*
X537008Y-131700D01*
X537300Y-131967D01*
X537417Y-132500D01*
X537300Y-133033D01*
X536950Y-133367D01*
X536542Y-133567D01*
X535083D01*
G01X536542D02*
X537417Y-135500D01*
G01X545850Y-142500D02*
Y-136200D01*
X544910Y-137460D01*
G01Y-142500D02*
X546790D01*
G01X551993D02*
X552150Y-141135D01*
X552385Y-139980D01*
X552698Y-138930D01*
X553090Y-137775D01*
X553717Y-136200D01*
X550583D01*
G01X558450D02*
X557823Y-136410D01*
X557353Y-136935D01*
X557040Y-137565D01*
X556805Y-138405D01*
X556727Y-139350D01*
X556805Y-140295D01*
X557040Y-141135D01*
X557353Y-141765D01*
X557823Y-142290D01*
X558450Y-142500D01*
X559077Y-142290D01*
X559547Y-141765D01*
X559860Y-141135D01*
X560095Y-140295D01*
X560173Y-139350D01*
X560095Y-138405D01*
X559860Y-137565D01*
X559547Y-136935D01*
X559077Y-136410D01*
X558450Y-136200D01*
G01X563732Y-140400D02*
X565768D01*
G01X569562Y-137250D02*
X570032Y-136620D01*
X570580Y-136305D01*
X571207Y-136200D01*
X571990Y-136410D01*
X572538Y-136935D01*
X572695Y-137565D01*
X572617Y-138195D01*
X572303Y-138720D01*
X570737Y-139770D01*
X570032Y-140505D01*
X569562Y-141555D01*
X569405Y-142500D01*
X572695D01*
G01X577193D02*
X577350Y-141135D01*
X577585Y-139980D01*
X577898Y-138930D01*
X578290Y-137775D01*
X578917Y-136200D01*
X575783D01*
G01X581927Y-141240D02*
X582397Y-141975D01*
X583023Y-142395D01*
X583728Y-142500D01*
X584355Y-142395D01*
X584982Y-141870D01*
X585373Y-141240D01*
X585452Y-140610D01*
X585295Y-139875D01*
X584747Y-139350D01*
X584198Y-139140D01*
X583493D01*
G01X584198D02*
X584668Y-138825D01*
X585060Y-138300D01*
X585217Y-137670D01*
X585060Y-137040D01*
X584668Y-136515D01*
X583963Y-136200D01*
X583258Y-136305D01*
X582553Y-136725D01*
G01X588618Y-141765D02*
X589167Y-142290D01*
X589793Y-142500D01*
X590420Y-142290D01*
X590968Y-141660D01*
X591360Y-140715D01*
X591517Y-139770D01*
Y-138615D01*
X591360Y-137670D01*
X590968Y-136830D01*
X590498Y-136410D01*
X589950Y-136200D01*
X589323Y-136410D01*
X588853Y-136830D01*
X588540Y-137460D01*
X588383Y-138300D01*
X588540Y-139035D01*
X588932Y-139770D01*
X589402Y-140190D01*
X589950Y-140295D01*
X590577Y-140085D01*
X591047Y-139560D01*
X591517Y-138615D01*
G01X594762Y-137250D02*
X595232Y-136620D01*
X595780Y-136305D01*
X596407Y-136200D01*
X597190Y-136410D01*
X597738Y-136935D01*
X597895Y-137565D01*
X597817Y-138195D01*
X597503Y-138720D01*
X595937Y-139770D01*
X595232Y-140505D01*
X594762Y-141555D01*
X594605Y-142500D01*
X597895D01*
G01X638783D02*
Y-136200D01*
X640742D01*
X641368Y-136515D01*
X641760Y-136935D01*
X641917Y-137775D01*
X641760Y-138615D01*
X641290Y-139140D01*
X640742Y-139455D01*
X638783D01*
G01X640742D02*
X641917Y-142500D01*
G01X648217D02*
X645083D01*
Y-136200D01*
X648217D01*
G01X646963Y-139245D02*
X645083D01*
G01X650992Y-136200D02*
X652950Y-142500D01*
X654908Y-136200D01*
G01X667273Y-136725D02*
X666803Y-136410D01*
X666255Y-136200D01*
X665628D01*
X664923Y-136515D01*
X664375Y-137040D01*
X663983Y-137670D01*
X663670Y-138720D01*
X663592Y-139665D01*
X663748Y-140610D01*
X663983Y-141240D01*
X664453Y-141870D01*
X665002Y-142290D01*
X665550Y-142500D01*
X666098D01*
X666647Y-142290D01*
X667117Y-141975D01*
X667508Y-141555D01*
G01X545813Y-69500D02*
Y-63200D01*
X547850Y-68450D01*
X549887Y-63200D01*
Y-69500D01*
G01X555873Y-63725D02*
X555403Y-63410D01*
X554855Y-63200D01*
X554228D01*
X553523Y-63515D01*
X552975Y-64040D01*
X552583Y-64670D01*
X552270Y-65720D01*
X552192Y-66665D01*
X552348Y-67610D01*
X552583Y-68240D01*
X553053Y-68870D01*
X553602Y-69290D01*
X554150Y-69500D01*
X554698D01*
X555247Y-69290D01*
X555717Y-68975D01*
X556108Y-68555D01*
G01X559510Y-63200D02*
X561390D01*
G01X560450D02*
Y-69500D01*
G01X559510D02*
X561390D01*
G01X564713D02*
Y-63200D01*
X566750Y-68450D01*
X568787Y-63200D01*
Y-69500D01*
G01X571405D02*
X574695Y-63200D01*
G01X571405D02*
X574695Y-69500D01*
G01X577862Y-66875D02*
X578410Y-66140D01*
X578880Y-65720D01*
X579507Y-65510D01*
X580055Y-65720D01*
X580447Y-66140D01*
X580760Y-66770D01*
X580838Y-67505D01*
X580760Y-68135D01*
X580447Y-68765D01*
X579977Y-69290D01*
X579428Y-69500D01*
X578802Y-69290D01*
X578253Y-68660D01*
X577940Y-67715D01*
X577862Y-66665D01*
X578018Y-65300D01*
X578253Y-64565D01*
X578645Y-63830D01*
X579193Y-63305D01*
X579742Y-63200D01*
X580290Y-63410D01*
X580682Y-63935D01*
G01X583300Y-71600D02*
X588000D01*
G01X590305Y-68660D02*
X590932Y-69185D01*
X591637Y-69500D01*
X592263D01*
X592890Y-69185D01*
X593360Y-68660D01*
X593595Y-67925D01*
X593438Y-67190D01*
X593047Y-66560D01*
X592342Y-66140D01*
X591402Y-65930D01*
X590853Y-65510D01*
X590618Y-64775D01*
X590775Y-64040D01*
X591167Y-63515D01*
X591715Y-63200D01*
X592263D01*
X592812Y-63410D01*
X593282Y-63935D01*
G01X596527Y-69500D02*
Y-63200D01*
X598093D01*
X598720Y-63515D01*
X599190Y-63935D01*
X599582Y-64565D01*
X599895Y-65300D01*
X599973Y-66350D01*
X599895Y-67400D01*
X599582Y-68135D01*
X599190Y-68765D01*
X598720Y-69185D01*
X598093Y-69500D01*
X596527D01*
G54D26*
X-2026Y405759D03*
X-8718D03*
X-2026Y438245D03*
X-8718D03*
Y426429D03*
X-2026D03*
X-8718Y458915D03*
X-2026D03*
Y506255D03*
X-8718D03*
Y526925D03*
X-2026D03*
G54D44*
X20950Y504700D03*
X28850Y508400D03*
X20950Y512100D03*
G54D35*
X15500Y97700D03*
Y105300D03*
X78500Y606000D03*
Y613600D03*
X96000Y502200D03*
Y509800D03*
X140000Y548200D03*
Y555800D03*
X169500Y269200D03*
Y276800D03*
X190000Y458400D03*
Y450800D03*
X199000Y489700D03*
Y497300D03*
X222500Y534200D03*
Y541800D03*
X264500Y178800D03*
Y171200D03*
X254500Y553700D03*
Y561300D03*
G54D128*
X332327Y596161D03*
Y615846D03*
Y613878D03*
Y611909D03*
Y609941D03*
Y607972D03*
Y606004D03*
Y604035D03*
Y602067D03*
Y600098D03*
Y598130D03*
Y633563D03*
Y631594D03*
Y629626D03*
Y627657D03*
Y625689D03*
Y623720D03*
Y621752D03*
Y619783D03*
Y617815D03*
G54D71*
X80500Y443429D03*
Y449571D03*
X80700Y618929D03*
Y625071D03*
X240400Y454909D03*
Y461051D03*
X228500Y476929D03*
Y483071D03*
X346500Y435071D03*
Y428929D03*
G54D62*
X71500Y665200D03*
X63500D03*
X67500Y673800D03*
X317100Y333300D03*
X325100D03*
X321100Y324700D03*
G54D119*
X294600Y640588D03*
X303200Y640688D03*
Y651712D03*
X294600Y651612D03*
G54D17*
X1509Y62271D03*
Y64373D03*
X4809Y62271D03*
Y64373D03*
X21832Y33300D03*
X19730D03*
X13260Y35322D03*
X11158D03*
X24630Y63639D03*
X26732D03*
X152449Y398900D03*
X154551D03*
X152449Y396400D03*
X154551D03*
X152449Y401400D03*
X154551D03*
X152449Y393900D03*
X154551D03*
X163000Y157051D03*
Y154949D03*
X160706Y449805D03*
X158604D03*
X167481Y484859D03*
Y486961D03*
X232849Y518000D03*
X234951D03*
X224949Y530000D03*
X227051D03*
X242449Y522000D03*
X227551Y510000D03*
X225449D03*
X235551Y536500D03*
X233449D03*
X230051D03*
X227949D03*
X244551Y522000D03*
X275949Y442500D03*
X278051D03*
X290500Y291051D03*
Y288949D03*
G54D80*
X100357Y586861D03*
X267910Y673213D03*
G54D53*
X48500Y523500D03*
X68500D03*
X58500D03*
X96950Y163392D03*
Y174192D03*
Y184992D03*
X108150Y168792D03*
Y179592D03*
X96950Y195792D03*
X108150Y190392D03*
Y201192D03*
X306300Y531400D03*
Y541400D03*
Y551400D03*
G54D90*
X147527Y507473D03*
G54D129*
X346403Y104212D03*
Y298700D03*
G54D36*
X24500Y237000D03*
Y243000D03*
Y249000D03*
X17000Y237000D03*
Y243000D03*
Y249000D03*
X9500Y237000D03*
Y243000D03*
Y249000D03*
X49000Y237000D03*
Y243000D03*
Y249000D03*
X41500Y237000D03*
Y243000D03*
Y249000D03*
X56500Y237000D03*
Y243000D03*
Y249000D03*
X86000Y506500D03*
Y500500D03*
Y512500D03*
X99900Y484400D03*
Y478400D03*
Y490400D03*
X131000Y546000D03*
Y552000D03*
Y558000D03*
X209000Y502000D03*
Y496000D03*
Y490000D03*
G54D27*
X2290Y475642D03*
Y481547D03*
Y493358D03*
G54D72*
X79888Y478200D03*
X90912D03*
G54D63*
X53000Y682740D03*
X50440D03*
X55560D03*
Y675260D03*
X53000D03*
X50440D03*
G54D81*
X124900Y483616D03*
G54D54*
X44800Y614700D03*
X153500Y318000D03*
G54D45*
X30900Y567000D03*
Y614000D03*
G54D18*
X-6306Y76773D03*
X-4000Y136863D03*
Y216133D03*
X151686Y76773D03*
X321202Y314382D03*
Y472374D03*
G54D82*
X124900Y472184D03*
G54D91*
X140343Y541755D03*
Y535259D03*
X152541Y541755D03*
Y535259D03*
G54D37*
X30484Y263593D03*
Y265562D03*
Y267530D03*
Y269499D03*
Y271467D03*
Y273436D03*
Y275404D03*
Y277373D03*
Y279341D03*
Y281310D03*
Y283279D03*
Y285247D03*
Y287216D03*
Y289184D03*
Y291153D03*
Y293121D03*
Y295090D03*
Y297058D03*
Y299027D03*
X53516Y271467D03*
Y269499D03*
Y267530D03*
Y265562D03*
Y263593D03*
Y293121D03*
Y291153D03*
Y289184D03*
Y287216D03*
Y285247D03*
Y283279D03*
Y281310D03*
Y279341D03*
Y277373D03*
Y275404D03*
Y273436D03*
Y299027D03*
Y297058D03*
Y295090D03*
G54D73*
X90900Y487100D03*
X83300D03*
X112200Y534500D03*
X119800D03*
X162700Y542000D03*
X170300D03*
X192600Y519400D03*
X185000D03*
X241200Y509500D03*
X234200Y558500D03*
X241800D03*
X252200Y434500D03*
X259800D03*
X248800Y509500D03*
X315200Y353500D03*
X322800D03*
G54D28*
X-8931Y470130D03*
X-269D03*
X-8931Y498870D03*
X-269D03*
G54D64*
X80480Y28500D03*
X85480D03*
X90480D03*
Y58500D03*
X85480D03*
X80480D03*
X95480Y28500D03*
X100520D03*
X105520D03*
X110520D03*
X115520D03*
Y58500D03*
X110520D03*
X105520D03*
X100520D03*
X95480D03*
G54D46*
X30189Y636496D03*
G54D19*
X7100Y110600D03*
X-4600Y478594D03*
Y490406D03*
X9500Y125996D03*
X28500Y131000D03*
X19500Y125996D03*
X42500Y37500D03*
Y47500D03*
X40000Y137500D03*
X32500Y148000D03*
X167500Y305500D03*
X233000Y202000D03*
X278815Y273941D03*
X297500Y583500D03*
X305000Y587400D03*
Y579800D03*
Y595000D03*
Y602600D03*
X298800Y675800D03*
X293900Y684500D03*
X303800D03*
X311600Y675800D03*
X320600Y684400D03*
X347600Y239900D03*
G54D55*
X44800Y604700D03*
X143500Y273000D03*
Y283000D03*
Y293000D03*
X153500Y278000D03*
Y288000D03*
X143500Y303000D03*
Y313000D03*
X153500Y298000D03*
Y308000D03*
G54D38*
X20940Y271468D03*
Y269499D03*
Y293121D03*
Y291153D03*
Y289184D03*
Y287216D03*
Y285247D03*
Y283279D03*
Y281310D03*
Y279342D03*
Y277373D03*
Y275405D03*
Y273436D03*
Y304932D03*
Y302964D03*
Y300995D03*
Y299027D03*
Y297058D03*
Y295090D03*
G54D65*
X80051Y251500D03*
X73949D03*
G54D83*
X134732Y492308D03*
Y522638D03*
X136700Y492308D03*
X138669D03*
X140637D03*
X142606D03*
X144574D03*
X146543D03*
X148511D03*
X150480D03*
X152448D03*
X154417D03*
X156385D03*
X136700Y522638D03*
X138669D03*
X140637D03*
X142606D03*
X144574D03*
X146543D03*
X148511D03*
X150480D03*
X152448D03*
X154417D03*
X156385D03*
X158354Y492308D03*
X160322D03*
X158354Y522638D03*
X160322D03*
G54D47*
X18378Y655000D03*
G54D74*
X78500Y523500D03*
X96950Y206592D03*
X306300Y521400D03*
G54D92*
X147601Y649066D03*
X267910Y574787D03*
G54D29*
X-990Y542984D03*
Y579598D03*
Y589984D03*
Y626598D03*
X18695Y546528D03*
Y593528D03*
G54D56*
X42000Y655000D03*
G54D48*
X19500Y676949D03*
Y683051D03*
X32000D03*
Y676949D03*
X52600Y641449D03*
Y647551D03*
X84700Y679349D03*
Y685451D03*
X312300Y613949D03*
Y620051D03*
Y634951D03*
Y628849D03*
Y644349D03*
Y650451D03*
G54D93*
X163004Y146778D03*
G54D84*
X132362Y508457D03*
Y506489D03*
Y504520D03*
Y502552D03*
Y500583D03*
Y498615D03*
Y496646D03*
Y494678D03*
Y520268D03*
Y518300D03*
Y516331D03*
Y514363D03*
Y512394D03*
Y510426D03*
X162692Y508457D03*
Y506489D03*
Y504520D03*
Y502552D03*
Y500583D03*
Y498615D03*
Y496646D03*
Y494678D03*
Y520268D03*
Y518300D03*
Y516331D03*
Y514363D03*
Y512394D03*
Y510426D03*
G54D39*
X27860Y365540D03*
Y368100D03*
Y370660D03*
X35340D03*
Y365540D03*
G54D66*
X77300Y269400D03*
Y279400D03*
Y311600D03*
Y321600D03*
G54D57*
X51594Y551094D03*
X53563D03*
X55531D03*
X57500D03*
X59469D03*
X61437D03*
X63406D03*
X51594Y562906D03*
X53563D03*
X55531D03*
X57500D03*
X59469D03*
X61437D03*
X63406D03*
X51594Y560937D03*
X53563D03*
X55531D03*
X57500D03*
X59469D03*
X61437D03*
X63406D03*
X51594Y558969D03*
X53563D03*
X55531D03*
X57500D03*
X59469D03*
X61437D03*
X63406D03*
X51594Y557000D03*
X53563D03*
X55531D03*
X57500D03*
X59469D03*
X61437D03*
X63406D03*
X51594Y555031D03*
X53563D03*
X55531D03*
X57500D03*
X59469D03*
X61437D03*
X63406D03*
X51594Y553063D03*
X53563D03*
X55531D03*
X57500D03*
X59469D03*
X61437D03*
X63406D03*
G54D75*
X79300Y647000D03*
G54D94*
X177202Y163413D03*
X172477D03*
X167753D03*
X163028D03*
Y214987D03*
X167753D03*
X172477D03*
X177202D03*
X197674Y163413D03*
X181926D03*
Y214987D03*
X197674D03*
X216572Y163413D03*
X211847D03*
X207123D03*
X202398D03*
Y214987D03*
X207123D03*
X211847D03*
X216572D03*
G54D76*
X102550Y135792D03*
Y234192D03*
G54D67*
X93500Y273000D03*
Y318000D03*
G54D85*
X118830Y516343D03*
X188897Y501500D03*
G54D49*
X48406Y128724D03*
Y219276D03*
X301331Y569385D03*
Y659937D03*
G54D58*
X65600Y587600D03*
X65500Y580300D03*
X80200Y394700D03*
X89300D03*
X96350Y409500D03*
X144600Y482800D03*
X176560Y464500D03*
X182140Y465500D03*
X180000Y487500D03*
X320200Y605200D03*
X323900Y619800D03*
G54D59*
X69100Y628500D03*
G54D68*
X86429Y345000D03*
X92571D03*
X90429Y458500D03*
X96571D03*
X137571Y345000D03*
X131429D03*
X130929Y458500D03*
X137071D03*
X166071Y350000D03*
X159929D03*
X219929Y558500D03*
X226071D03*
X264429Y410600D03*
X270571D03*
G54D86*
X119333Y567334D03*
X129333D03*
X119333Y668594D03*
X129333D03*
X139333Y567334D03*
Y668594D03*
G54D77*
X108800Y264500D03*
Y326500D03*
G54D95*
G01X282500Y-147500D02*
Y-47500D01*
X682500D01*
G01D02*
Y-147500D01*
X282500D01*
X160205Y364705D03*
Y367854D03*
Y371004D03*
Y374154D03*
Y377303D03*
Y380453D03*
X163354Y364705D03*
Y367854D03*
Y371004D03*
Y374154D03*
Y377303D03*
Y380453D03*
X166504Y364705D03*
Y367854D03*
Y371004D03*
Y374154D03*
Y377303D03*
Y380453D03*
X169654Y364705D03*
Y367854D03*
Y371004D03*
Y374154D03*
Y377303D03*
Y380453D03*
X172803Y364705D03*
Y367854D03*
Y371004D03*
Y374154D03*
Y377303D03*
Y380453D03*
X175953Y364705D03*
Y367854D03*
Y371004D03*
Y374154D03*
Y377303D03*
Y380453D03*
X179102Y364705D03*
Y367854D03*
Y371004D03*
Y374154D03*
Y377303D03*
Y380453D03*
X160205Y383602D03*
Y386752D03*
Y389902D03*
Y393051D03*
Y396201D03*
Y399350D03*
X163354Y383602D03*
Y386752D03*
Y389902D03*
Y393051D03*
Y396201D03*
Y399350D03*
X166504Y383602D03*
Y386752D03*
Y389902D03*
Y393051D03*
Y396201D03*
Y399350D03*
X169654Y383602D03*
Y386752D03*
Y389902D03*
Y393051D03*
Y396201D03*
Y399350D03*
X172803Y383602D03*
Y386752D03*
Y389902D03*
Y393051D03*
Y396201D03*
Y399350D03*
X175953Y383602D03*
Y386752D03*
Y389902D03*
Y393051D03*
Y396201D03*
Y399350D03*
X179102Y383602D03*
Y386752D03*
Y389902D03*
Y393051D03*
Y396201D03*
Y399350D03*
X160205Y402500D03*
Y405650D03*
Y408799D03*
Y411949D03*
Y415098D03*
Y418248D03*
Y421398D03*
X163354Y402500D03*
Y405650D03*
Y408799D03*
Y411949D03*
Y415098D03*
Y418248D03*
Y421398D03*
X166504Y402500D03*
Y405650D03*
Y408799D03*
Y411949D03*
Y415098D03*
Y418248D03*
Y421398D03*
X169654Y402500D03*
Y405650D03*
Y408799D03*
Y411949D03*
Y415098D03*
Y418248D03*
Y421398D03*
X172803Y402500D03*
Y405650D03*
Y408799D03*
Y411949D03*
Y415098D03*
Y418248D03*
Y421398D03*
X175953Y402500D03*
Y405650D03*
Y408799D03*
Y411949D03*
Y415098D03*
Y418248D03*
Y421398D03*
X179102Y402500D03*
Y405650D03*
Y408799D03*
Y411949D03*
Y415098D03*
Y418248D03*
Y421398D03*
X160205Y424547D03*
Y427697D03*
Y430846D03*
Y433996D03*
Y437146D03*
Y440295D03*
X163354Y424547D03*
Y427697D03*
Y430846D03*
Y433996D03*
Y437146D03*
Y440295D03*
X166504Y424547D03*
Y427697D03*
Y430846D03*
Y433996D03*
Y437146D03*
Y440295D03*
X169654Y424547D03*
Y427697D03*
Y430846D03*
Y433996D03*
Y437146D03*
Y440295D03*
X172803Y424547D03*
Y427697D03*
Y430846D03*
Y433996D03*
Y437146D03*
Y440295D03*
X175953Y424547D03*
Y427697D03*
Y430846D03*
Y433996D03*
Y437146D03*
Y440295D03*
X179102Y424547D03*
Y427697D03*
Y430846D03*
Y433996D03*
Y437146D03*
Y440295D03*
X182252Y364705D03*
Y367854D03*
Y371004D03*
Y374154D03*
Y377303D03*
Y380453D03*
X185402Y364705D03*
Y367854D03*
Y371004D03*
Y374154D03*
Y377303D03*
Y380453D03*
X188551Y364705D03*
Y367854D03*
Y371004D03*
Y374154D03*
Y377303D03*
Y380453D03*
X191701Y364705D03*
Y367854D03*
Y371004D03*
Y374154D03*
Y377303D03*
Y380453D03*
X194850Y364705D03*
Y367854D03*
Y371004D03*
Y374154D03*
Y377303D03*
Y380453D03*
X198000Y364705D03*
Y367854D03*
Y371004D03*
Y374154D03*
Y377303D03*
Y380453D03*
X201150Y364705D03*
Y367854D03*
Y371004D03*
Y374154D03*
Y377303D03*
Y380453D03*
X182252Y383602D03*
Y386752D03*
Y389902D03*
Y393051D03*
Y396201D03*
Y399350D03*
X185402Y383602D03*
Y386752D03*
Y389902D03*
Y393051D03*
Y396201D03*
Y399350D03*
X188551Y383602D03*
Y386752D03*
Y389902D03*
Y393051D03*
Y396201D03*
Y399350D03*
X191701Y383602D03*
Y386752D03*
Y389902D03*
Y393051D03*
Y396201D03*
Y399350D03*
X194850Y383602D03*
Y386752D03*
Y389902D03*
Y393051D03*
Y396201D03*
Y399350D03*
X198000Y383602D03*
Y386752D03*
Y389902D03*
Y393051D03*
Y396201D03*
Y399350D03*
X201150Y383602D03*
Y386752D03*
Y389902D03*
Y393051D03*
Y396201D03*
Y399350D03*
X182252Y402500D03*
Y405650D03*
Y408799D03*
Y411949D03*
Y415098D03*
Y418248D03*
Y421398D03*
X185402Y402500D03*
Y405650D03*
Y408799D03*
Y411949D03*
Y415098D03*
Y418248D03*
Y421398D03*
X188551Y402500D03*
Y405650D03*
Y408799D03*
Y411949D03*
Y415098D03*
Y418248D03*
Y421398D03*
X191701Y402500D03*
Y405650D03*
Y408799D03*
Y411949D03*
Y415098D03*
Y418248D03*
Y421398D03*
X194850Y402500D03*
Y405650D03*
Y408799D03*
Y411949D03*
Y415098D03*
Y418248D03*
Y421398D03*
X198000Y402500D03*
Y405650D03*
Y408799D03*
Y411949D03*
Y415098D03*
Y418248D03*
Y421398D03*
X201150Y402500D03*
Y405650D03*
Y408799D03*
Y411949D03*
Y415098D03*
Y418248D03*
Y421398D03*
X182252Y424547D03*
Y427697D03*
Y430846D03*
Y433996D03*
Y437146D03*
Y440295D03*
X185402Y424547D03*
Y427697D03*
Y430846D03*
Y433996D03*
Y437146D03*
Y440295D03*
X188551Y424547D03*
Y427697D03*
Y430846D03*
Y433996D03*
Y437146D03*
Y440295D03*
X191701Y424547D03*
Y427697D03*
Y430846D03*
Y433996D03*
Y437146D03*
Y440295D03*
X194850Y424547D03*
Y427697D03*
Y430846D03*
Y433996D03*
Y437146D03*
Y440295D03*
X198000Y424547D03*
Y427697D03*
Y430846D03*
Y433996D03*
Y437146D03*
Y440295D03*
X201150Y424547D03*
Y427697D03*
Y430846D03*
Y433996D03*
Y437146D03*
Y440295D03*
X204299Y364705D03*
Y367854D03*
Y371004D03*
Y374154D03*
Y377303D03*
Y380453D03*
X207449Y364705D03*
Y367854D03*
Y371004D03*
Y374154D03*
Y377303D03*
Y380453D03*
X210598Y364705D03*
Y367854D03*
Y371004D03*
Y374154D03*
Y377303D03*
Y380453D03*
X213748Y364705D03*
Y367854D03*
Y371004D03*
Y374154D03*
Y377303D03*
Y380453D03*
X216898Y364705D03*
Y367854D03*
Y371004D03*
Y374154D03*
Y377303D03*
Y380453D03*
X220047Y364705D03*
Y367854D03*
Y371004D03*
Y374154D03*
Y377303D03*
Y380453D03*
X204299Y383602D03*
Y386752D03*
Y389902D03*
Y393051D03*
Y396201D03*
Y399350D03*
X207449Y383602D03*
Y386752D03*
Y389902D03*
Y393051D03*
Y396201D03*
Y399350D03*
X210598Y383602D03*
Y386752D03*
Y389902D03*
Y393051D03*
Y396201D03*
Y399350D03*
X213748Y383602D03*
Y386752D03*
Y389902D03*
Y393051D03*
Y396201D03*
Y399350D03*
X216898Y383602D03*
Y386752D03*
Y389902D03*
Y393051D03*
Y396201D03*
Y399350D03*
X220047Y383602D03*
Y386752D03*
Y389902D03*
Y393051D03*
Y396201D03*
Y399350D03*
X204299Y402500D03*
Y405650D03*
Y408799D03*
Y411949D03*
Y415098D03*
Y418248D03*
Y421398D03*
X207449Y402500D03*
Y405650D03*
Y408799D03*
Y411949D03*
Y415098D03*
Y418248D03*
Y421398D03*
X210598Y402500D03*
Y405650D03*
Y408799D03*
Y411949D03*
Y415098D03*
Y418248D03*
Y421398D03*
X213748Y402500D03*
Y405650D03*
Y408799D03*
Y411949D03*
Y415098D03*
Y418248D03*
Y421398D03*
X216898Y402500D03*
Y405650D03*
Y408799D03*
Y411949D03*
Y415098D03*
Y418248D03*
Y421398D03*
X220047Y402500D03*
Y405650D03*
Y408799D03*
Y411949D03*
Y415098D03*
Y418248D03*
Y421398D03*
X204299Y424547D03*
Y427697D03*
Y430846D03*
Y433996D03*
Y437146D03*
Y440295D03*
X207449Y424547D03*
Y427697D03*
Y430846D03*
Y433996D03*
Y437146D03*
Y440295D03*
X210598Y424547D03*
Y427697D03*
Y430846D03*
Y433996D03*
Y437146D03*
Y440295D03*
X213748Y424547D03*
Y427697D03*
Y430846D03*
Y433996D03*
Y437146D03*
Y440295D03*
X216898Y424547D03*
Y427697D03*
Y430846D03*
Y433996D03*
Y437146D03*
Y440295D03*
X220047Y424547D03*
Y427697D03*
Y430846D03*
Y433996D03*
Y437146D03*
Y440295D03*
X223197Y364705D03*
Y367854D03*
Y371004D03*
Y374154D03*
Y377303D03*
Y380453D03*
X226346Y364705D03*
Y367854D03*
Y371004D03*
Y374154D03*
Y377303D03*
Y380453D03*
X229496Y364705D03*
Y367854D03*
Y371004D03*
Y374154D03*
Y377303D03*
Y380453D03*
X232646Y364705D03*
Y367854D03*
Y371004D03*
Y374154D03*
Y377303D03*
Y380453D03*
X235795Y364705D03*
Y367854D03*
Y371004D03*
Y374154D03*
Y377303D03*
Y380453D03*
X223197Y383602D03*
Y386752D03*
Y389902D03*
Y393051D03*
Y396201D03*
Y399350D03*
X226346Y383602D03*
Y386752D03*
Y389902D03*
Y393051D03*
Y396201D03*
Y399350D03*
X229496Y383602D03*
Y386752D03*
Y389902D03*
Y393051D03*
Y396201D03*
Y399350D03*
X232646Y383602D03*
Y386752D03*
Y389902D03*
Y393051D03*
Y396201D03*
Y399350D03*
X235795Y383602D03*
Y386752D03*
Y389902D03*
Y393051D03*
Y396201D03*
Y399350D03*
X232646Y405650D03*
X223197Y402500D03*
Y405650D03*
Y408799D03*
Y411949D03*
Y415098D03*
Y418248D03*
Y421398D03*
X226346Y402500D03*
Y405650D03*
Y408799D03*
Y411949D03*
Y415098D03*
Y418248D03*
Y421398D03*
X229496Y402500D03*
Y405650D03*
Y408799D03*
Y411949D03*
Y415098D03*
Y418248D03*
Y421398D03*
X232646Y402500D03*
Y408799D03*
Y411949D03*
Y415098D03*
Y418248D03*
Y421398D03*
X235795Y402500D03*
Y405650D03*
Y408799D03*
Y411949D03*
Y415098D03*
Y418248D03*
Y421398D03*
X223197Y424547D03*
Y427697D03*
Y430846D03*
Y433996D03*
Y437146D03*
Y440295D03*
X226346Y424547D03*
Y427697D03*
Y430846D03*
Y433996D03*
Y437146D03*
Y440295D03*
X229496Y424547D03*
Y427697D03*
Y430846D03*
Y433996D03*
Y437146D03*
Y440295D03*
X232646Y424547D03*
Y427697D03*
Y430846D03*
Y433996D03*
Y437146D03*
Y440295D03*
X235795Y424547D03*
Y427697D03*
Y430846D03*
Y433996D03*
Y437146D03*
G54D96*
X179248Y518500D03*
X172752D03*
G54D87*
X157197Y140774D03*
X168811D03*
G54D78*
X110700Y470700D03*
X98500D03*
G54D69*
X89578Y360902D03*
Y364051D03*
Y367201D03*
X92728Y360902D03*
Y364051D03*
Y367201D03*
X89578Y379799D03*
X92728D03*
X89578Y382949D03*
Y386098D03*
X92728Y382949D03*
Y386098D03*
X89578Y417595D03*
Y420744D03*
X92728Y417595D03*
Y420744D03*
X89578Y423894D03*
X92728D03*
X89578Y436492D03*
Y439642D03*
Y442791D03*
X92728Y436492D03*
Y439642D03*
Y442791D03*
X95877Y360902D03*
Y364051D03*
Y367201D03*
X99027Y360902D03*
Y364051D03*
Y367201D03*
X102176Y360902D03*
Y364051D03*
Y367201D03*
X105326Y360902D03*
Y364051D03*
Y367201D03*
X108476Y360902D03*
Y364051D03*
Y367201D03*
X111625Y360902D03*
Y364051D03*
Y367201D03*
X114775Y360902D03*
Y364051D03*
Y367201D03*
X95877Y379799D03*
X99027D03*
X102176D03*
X105326D03*
X108476D03*
X111625D03*
X114775D03*
X95877Y382949D03*
Y386098D03*
X99027Y382949D03*
Y386098D03*
X102176Y382949D03*
Y386098D03*
X105326Y382949D03*
Y386098D03*
X108476Y382949D03*
Y386098D03*
X111625Y382949D03*
Y386098D03*
X114775Y382949D03*
Y386098D03*
X95877Y417595D03*
Y420744D03*
X99027Y417595D03*
Y420744D03*
X102176Y417595D03*
Y420744D03*
X105326Y417595D03*
Y420744D03*
X108476Y417595D03*
Y420744D03*
X111625Y417595D03*
Y420744D03*
X114775Y417595D03*
Y420744D03*
X95877Y423894D03*
X99027D03*
X102176D03*
X105326D03*
X108476D03*
X111625D03*
X114775D03*
X95877Y436492D03*
Y439642D03*
Y442791D03*
X99027Y436492D03*
Y439642D03*
Y442791D03*
X102176Y436492D03*
Y439642D03*
Y442791D03*
X105326Y436492D03*
Y439642D03*
Y442791D03*
X108476Y436492D03*
Y439642D03*
Y442791D03*
X111625Y436492D03*
Y439642D03*
Y442791D03*
X114775Y436492D03*
Y439642D03*
Y442791D03*
X117924Y360902D03*
Y364051D03*
Y367201D03*
X121074Y360902D03*
Y364051D03*
Y367201D03*
X124224Y360902D03*
Y364051D03*
Y367201D03*
X127373Y360902D03*
Y364051D03*
Y367201D03*
X130523Y360902D03*
Y364051D03*
Y367201D03*
X133672Y360902D03*
Y364051D03*
Y367201D03*
X117924Y379799D03*
X121074D03*
X124224D03*
X127373D03*
X130523D03*
X133672D03*
X117924Y382949D03*
Y386098D03*
X121074Y382949D03*
Y386098D03*
X124224Y382949D03*
Y386098D03*
X127373Y382949D03*
Y386098D03*
X130523Y382949D03*
Y386098D03*
X133672Y382949D03*
Y386098D03*
X117924Y417595D03*
Y420744D03*
X121074Y417595D03*
Y420744D03*
X124224Y417595D03*
Y420744D03*
X127373Y417595D03*
Y420744D03*
X130523Y417595D03*
Y420744D03*
X133672Y417595D03*
Y420744D03*
X117924Y423894D03*
X121074D03*
X124224D03*
X127373D03*
X130523D03*
X133672D03*
X117924Y436492D03*
Y439642D03*
Y442791D03*
X121074Y436492D03*
Y439642D03*
Y442791D03*
X124224Y436492D03*
Y439642D03*
Y442791D03*
X127373Y436492D03*
Y439642D03*
Y442791D03*
X130523Y436492D03*
Y439642D03*
Y442791D03*
X133672Y436492D03*
Y439642D03*
Y442791D03*
X136822Y360902D03*
Y364051D03*
Y367201D03*
Y379799D03*
Y382949D03*
Y386098D03*
Y417595D03*
Y420744D03*
Y423894D03*
Y436492D03*
Y439642D03*
Y442791D03*
G54D79*
X106036Y516343D03*
X176103Y501500D03*
G54D97*
X173816Y576362D03*
Y671638D03*
G54D88*
X158501Y171877D03*
Y176602D03*
Y181326D03*
Y197074D03*
Y201798D03*
Y206523D03*
X221099Y181326D03*
Y176602D03*
Y171877D03*
Y206523D03*
Y201798D03*
Y197074D03*
G54D98*
X189800Y163413D03*
Y214987D03*
G54D89*
X158501Y189200D03*
X221099D03*
G54D99*
X209602Y283603D03*
Y275729D03*
M02*
