G04 ================== begin FILE IDENTIFICATION RECORD ==================*
G04 Layout Name:  C:/Maria_R/lay-27392_sd_card_C/gerber-0918/FabOutput/LAY-27392_C.brd*
G04 Film Name:    ssm.art*
G04 File Format:  Gerber RS274X*
G04 File Origin:  Cadence Allegro 16.3-S047*
G04 Origin Date:  Wed Sep 19 15:46:58 2012*
G04 *
G04 Layer:  VIA CLASS/SOLDERMASK_BOTTOM*
G04 Layer:  PIN/SOLDERMASK_BOTTOM*
G04 Layer:  PACKAGE GEOMETRY/SOLDERMASK_BOTTOM*
G04 Layer:  DRAWING FORMAT/FILM_TITLE_BLOCK*
G04 Layer:  BOARD GEOMETRY/OUTLINE*
G04 Layer:  BOARD GEOMETRY/SOLDERMASK_BOTTOM*
G04 *
G04 Offset:    (0.00 0.00)*
G04 Mirror:    No*
G04 Mode:      Positive*
G04 Rotation:  0*
G04 FullContactRelief:  No*
G04 UndefLineWidth:     8.00*
G04 ================== end FILE IDENTIFICATION RECORD ====================*
%FSLAX55Y55*MOIN*%
%IR0*IPPOS*OFA0.00000B0.00000*MIA0B0*SFA1.00000B1.00000*%
%ADD116R,.021X.104*%
%ADD20R,.104X.021*%
%AMMACRO97*
21,1,.022,.024,0.0,0.0,135.*%
%ADD97MACRO97*%
%ADD26R,.103X.044*%
%ADD78R,.064X.104*%
%ADD90C,.012*%
%ADD13C,.022*%
%ADD104C,.014*%
%AMMACRO101*
21,1,.016,.016,0.0,0.0,10.*%
%ADD101MACRO101*%
%ADD23R,.106X.057*%
%ADD111C,.051*%
%ADD63R,.069X.23*%
%ADD52C,.06*%
%ADD21C,.024*%
%ADD115R,.021X.189*%
%ADD57C,.07*%
%ADD36R,.189X.021*%
%ADD29C,.071*%
%ADD18C,.044*%
%ADD11C,.026*%
%ADD76C,.018*%
%AMMACRO99*
21,1,.016,.016,0.0,0.0,15.*%
%ADD99MACRO99*%
%ADD59C,.064*%
%AMMACRO102*
21,1,.016,.016,0.0,0.0,70.*%
%ADD102MACRO102*%
%ADD54C,.074*%
%ADD30C,.047*%
%ADD83C,.048*%
%ADD22C,.039*%
%ADD91C,.067*%
%ADD110C,.077*%
%ADD77R,.07X.07*%
%ADD35R,.016X.016*%
%ADD27C,.03902*%
%ADD24C,.086*%
%ADD74C,.069*%
%ADD49R,.071X.071*%
%ADD82C,.088*%
%ADD58R,.064X.064*%
%ADD55R,.074X.074*%
%ADD51R,.069X.199*%
%ADD50R,.199X.069*%
%AMMACRO69*
4,1,20,-.09104,-.07874,
.04626,-.07874,
.04626,-.08858,
.09103,-.08858,
.09103,-.06102,
.05363,-.06102,
.05363,-.03937,
.09103,-.03937,
.09103,-.00984,
.05363,-.00984,
.05363,.00984,
.09103,.00984,
.09103,.03937,
.05363,.03937,
.05363,.06102,
.09103,.06102,
.09103,.08858,
.04626,.08858,
.04626,.07874,
-.09104,.07874,
-.09104,-.07874,
0.0*
%
%ADD69MACRO69*%
%ADD105R,.02X.04*%
%ADD95O,.012X.042*%
%ADD94O,.042X.012*%
%ADD40R,.04X.02*%
%ADD48R,.02X.024*%
%ADD62R,.02X.016*%
%ADD88R,.012X.034*%
%ADD72R,.025X.03*%
%ADD38R,.024X.022*%
%ADD28R,.016X.02*%
%ADD87R,.034X.012*%
%ADD56R,.054X.02*%
%ADD17R,.022X.024*%
%ADD109R,.043X.031*%
%ADD80R,.104X.174*%
%ADD73R,.018X.03*%
%ADD45R,.016X.023*%
%ADD33C,.12*%
%ADD106R,.071X.041*%
%ADD71R,.022X.026*%
%ADD34R,.021X.054*%
%ADD32R,.02X.028*%
%ADD89R,.041X.071*%
%ADD53R,.052X.034*%
%ADD46R,.016X.025*%
%ADD16R,.057X.02*%
%ADD79R,.034X.052*%
%ADD75C,.132*%
%ADD44R,.043X.026*%
%ADD41R,.037X.032*%
%ADD31R,.032X.037*%
%ADD10C,.124*%
%ADD60R,.039X.032*%
%ADD47R,.057X.041*%
%ADD61R,.054X.044*%
%ADD42R,.044X.019*%
%ADD114R,.094X.015*%
%ADD112R,.079X.03*%
%ADD86R,.111X.111*%
%ADD81C,.154*%
%ADD67R,.051X.075*%
%ADD65R,.059X.032*%
%ADD25R,.052X.039*%
%ADD108O,.039X.064*%
%ADD70R,.054X.028*%
%ADD19R,.015X.094*%
%ADD113C,.129*%
%ADD15O,.059X.046*%
%ADD84R,.083X.038*%
%ADD68R,.028X.065*%
%ADD37R,.059X.044*%
%ADD117C,.248*%
%ADD103O,.039X.049*%
%ADD100R,.028X.048*%
%ADD98R,.232X.232*%
%ADD85R,.028X.067*%
%ADD66R,.059X.036*%
%ADD43R,.044X.059*%
%ADD39R,.084X.029*%
%ADD93R,.091X.059*%
%ADD96R,.154X.154*%
%ADD107R,.079X.047*%
%ADD14R,.079X.075*%
%ADD64R,.04331X.0748*%
%ADD12R,.079X.087*%
%ADD92R,.098X.059*%
%ADD118C,.01*%
%ADD119C,.02*%
%ADD120C,.001*%
%ADD121C,.008*%
%ADD122C,.006*%
%ADD123C,.03938*%
G75*
%LPD*%
G75*
G36*
G01X16377Y14791D02*
Y26209D01*
X1023D01*
Y14791D01*
X16377D01*
G37*
G36*
G01X5877Y673791D02*
Y685209D01*
X-9477D01*
Y673791D01*
X5877D01*
G37*
G36*
G01X258500Y408750D02*
Y412750D01*
X260450D01*
Y408750D01*
X258500D01*
G37*
G36*
G01X265500Y200500D02*
Y197500D01*
X266500D01*
Y200500D01*
X265500D01*
G37*
%LPC*%
G75*
G36*
G01X2794Y16563D02*
X14606D01*
Y24437D01*
X2794D01*
Y23453D01*
G02Y17547I1969J-2953D01*
G01Y16563D01*
G37*
G36*
G01X-7706Y675563D02*
X4106D01*
Y683437D01*
X-7706D01*
Y682453D01*
G02Y676547I1969J-2953D01*
G01Y675563D01*
G37*
G54D123*
X4763Y20500D03*
X-5737Y679500D03*
%LPD*%
G75*
G54D100*
X201500Y545700D03*
X197760D03*
Y556100D03*
X201500D03*
X205240Y545700D03*
Y556100D03*
G54D110*
X285902Y122760D03*
Y280240D03*
G54D101*
X221635Y424583D03*
X219565Y424217D03*
G54D120*
G01X0Y-12500D02*
X350000D01*
G03X362500Y0I0J12500D01*
G01Y700000D01*
G03X350000Y712500I-12500J0D01*
G01X0D01*
G03X-12500Y700000I0J-12500D01*
G01Y0D01*
G03X0Y-12500I12500J0D01*
G54D102*
X226709Y419238D03*
X225991Y417262D03*
G54D111*
X278815Y129059D03*
G54D121*
G01X-12500Y0D02*
Y700000D01*
G02X0Y712500I12500J0D01*
G01X350000D01*
G02X362500Y700000I0J-12500D01*
G01Y0D01*
G02X350000Y-12500I-12500J0D01*
G01X0D01*
G02X-12500Y0I0J12500D01*
G54D103*
X243200Y461500D03*
X255200D03*
X249200D03*
X287000Y480000D03*
Y491500D03*
Y507000D03*
Y499500D03*
X293000Y480000D03*
X299000D03*
X293000Y491500D03*
X299000D03*
X293000Y507000D03*
X299000D03*
X293000Y499500D03*
X299000D03*
G54D112*
X277476Y139000D03*
Y144000D03*
Y149000D03*
Y154000D03*
Y159000D03*
Y164000D03*
Y169000D03*
Y174000D03*
Y179000D03*
Y184000D03*
Y189000D03*
Y194000D03*
Y199000D03*
Y204000D03*
Y209000D03*
Y233980D03*
Y238980D03*
Y243980D03*
Y248980D03*
Y253980D03*
Y258980D03*
Y263980D03*
G54D10*
X0Y0D03*
Y700000D03*
X25000Y350000D03*
X350000Y0D03*
Y350000D03*
Y700000D03*
G54D122*
G01X286025Y-134967D02*
X286492Y-135300D01*
X287017Y-135500D01*
X287483D01*
X287950Y-135300D01*
X288300Y-134967D01*
X288475Y-134500D01*
X288358Y-134033D01*
X288067Y-133633D01*
X287542Y-133367D01*
X286842Y-133233D01*
X286433Y-132967D01*
X286258Y-132500D01*
X286375Y-132033D01*
X286667Y-131700D01*
X287075Y-131500D01*
X287483D01*
X287892Y-131633D01*
X288242Y-131967D01*
G01X290825Y-135500D02*
Y-131500D01*
G01X293275D02*
Y-135500D01*
G01Y-133500D02*
X290825D01*
G01X298017Y-135500D02*
X295683D01*
Y-131500D01*
X298017D01*
G01X297083Y-133433D02*
X295683D01*
G01X302817Y-135500D02*
X300483D01*
Y-131500D01*
X302817D01*
G01X301883Y-133433D02*
X300483D01*
G01X306450Y-131500D02*
Y-135500D01*
G01X305108Y-131500D02*
X307792D01*
G01X285792Y-74500D02*
X287250Y-70500D01*
X288708Y-74500D01*
G01X288183Y-73100D02*
X286317D01*
G01X290767Y-70500D02*
Y-73367D01*
X291000Y-73967D01*
X291467Y-74367D01*
X292050Y-74500D01*
X292633Y-74367D01*
X293100Y-73967D01*
X293333Y-73367D01*
Y-70500D01*
G01X295625Y-73967D02*
X296092Y-74300D01*
X296617Y-74500D01*
X297083D01*
X297550Y-74300D01*
X297900Y-73967D01*
X298075Y-73500D01*
X297958Y-73033D01*
X297667Y-72633D01*
X297142Y-72367D01*
X296442Y-72233D01*
X296033Y-71967D01*
X295858Y-71500D01*
X295975Y-71033D01*
X296267Y-70700D01*
X296675Y-70500D01*
X297083D01*
X297492Y-70633D01*
X297842Y-70967D01*
G01X301650Y-70500D02*
Y-74500D01*
G01X300308Y-70500D02*
X302992D01*
G01X305750D02*
X307150D01*
G01X306450D02*
Y-74500D01*
G01X305750D02*
X307150D01*
G01X309908D02*
Y-70500D01*
X312592Y-74500D01*
Y-70500D01*
G01X316050Y-74633D02*
X315933Y-74567D01*
Y-74433D01*
X316050Y-74367D01*
X316167Y-74433D01*
Y-74567D01*
X316050Y-74633D01*
G01X325650Y-70500D02*
Y-74500D01*
G01X324308Y-70500D02*
X326992D01*
G01X331617Y-74500D02*
X329283D01*
Y-70500D01*
X331617D01*
G01X330683Y-72433D02*
X329283D01*
G01X334025Y-74500D02*
X336475Y-70500D01*
G01X334025D02*
X336475Y-74500D01*
G01X338592D02*
X340050Y-70500D01*
X341508Y-74500D01*
G01X340983Y-73100D02*
X339117D01*
G01X343625Y-73967D02*
X344092Y-74300D01*
X344617Y-74500D01*
X345083D01*
X345550Y-74300D01*
X345900Y-73967D01*
X346075Y-73500D01*
X345958Y-73033D01*
X345667Y-72633D01*
X345142Y-72367D01*
X344442Y-72233D01*
X344033Y-71967D01*
X343858Y-71500D01*
X343975Y-71033D01*
X344267Y-70700D01*
X344675Y-70500D01*
X345083D01*
X345492Y-70633D01*
X345842Y-70967D01*
G01X354333Y-74500D02*
X354450Y-73633D01*
X354625Y-72900D01*
X354858Y-72233D01*
X355150Y-71500D01*
X355617Y-70500D01*
X353283D01*
G01X359250Y-74500D02*
X359658Y-74433D01*
X360125Y-74233D01*
X360417Y-73900D01*
X360533Y-73433D01*
X360417Y-72967D01*
X360067Y-72567D01*
X359542Y-72367D01*
X358958D01*
X358608Y-72233D01*
X358317Y-71900D01*
X358200Y-71433D01*
X358375Y-70967D01*
X358783Y-70633D01*
X359250Y-70500D01*
X359717Y-70633D01*
X360125Y-70967D01*
X360300Y-71433D01*
X360183Y-71900D01*
X359892Y-72233D01*
X359542Y-72367D01*
X358958D01*
X358433Y-72567D01*
X358083Y-72967D01*
X357967Y-73433D01*
X358083Y-73900D01*
X358375Y-74233D01*
X358842Y-74433D01*
X359250Y-74500D01*
G01X363933D02*
X364050Y-73633D01*
X364225Y-72900D01*
X364458Y-72233D01*
X364750Y-71500D01*
X365217Y-70500D01*
X362883D01*
G01X367567Y-73700D02*
X367917Y-74167D01*
X368383Y-74433D01*
X368908Y-74500D01*
X369375Y-74433D01*
X369842Y-74100D01*
X370133Y-73700D01*
X370192Y-73300D01*
X370075Y-72833D01*
X369667Y-72500D01*
X369258Y-72367D01*
X368733D01*
G01X369258D02*
X369608Y-72167D01*
X369900Y-71833D01*
X370017Y-71433D01*
X369900Y-71033D01*
X369608Y-70700D01*
X369083Y-70500D01*
X368558Y-70567D01*
X368033Y-70833D01*
G01X372367Y-73900D02*
X372717Y-74233D01*
X373125Y-74433D01*
X373650Y-74500D01*
X374175Y-74367D01*
X374583Y-74100D01*
X374875Y-73633D01*
X374933Y-73100D01*
X374817Y-72567D01*
X374525Y-72233D01*
X374117Y-71967D01*
X373708Y-71900D01*
X373300Y-71967D01*
X372775Y-72233D01*
X372950Y-70500D01*
X374525D01*
G01X381967D02*
Y-73367D01*
X382200Y-73967D01*
X382667Y-74367D01*
X383250Y-74500D01*
X383833Y-74367D01*
X384300Y-73967D01*
X384533Y-73367D01*
Y-70500D01*
G01X386825Y-73967D02*
X387292Y-74300D01*
X387817Y-74500D01*
X388283D01*
X388750Y-74300D01*
X389100Y-73967D01*
X389275Y-73500D01*
X389158Y-73033D01*
X388867Y-72633D01*
X388342Y-72367D01*
X387642Y-72233D01*
X387233Y-71967D01*
X387058Y-71500D01*
X387175Y-71033D01*
X387467Y-70700D01*
X387875Y-70500D01*
X388283D01*
X388692Y-70633D01*
X389042Y-70967D01*
G01X391392Y-74500D02*
X392850Y-70500D01*
X394308Y-74500D01*
G01X393783Y-73100D02*
X391917D01*
G01X286142Y-65833D02*
X286550Y-65367D01*
X286900Y-65100D01*
X287367Y-64967D01*
X287775Y-65100D01*
X288067Y-65367D01*
X288300Y-65767D01*
X288358Y-66233D01*
X288300Y-66633D01*
X288067Y-67033D01*
X287717Y-67367D01*
X287308Y-67500D01*
X286842Y-67367D01*
X286433Y-66967D01*
X286200Y-66367D01*
X286142Y-65700D01*
X286258Y-64833D01*
X286433Y-64367D01*
X286725Y-63900D01*
X287133Y-63567D01*
X287542Y-63500D01*
X287950Y-63633D01*
X288242Y-63967D01*
G01X290767Y-66900D02*
X291117Y-67233D01*
X291525Y-67433D01*
X292050Y-67500D01*
X292575Y-67367D01*
X292983Y-67100D01*
X293275Y-66633D01*
X293333Y-66100D01*
X293217Y-65567D01*
X292925Y-65233D01*
X292517Y-64967D01*
X292108Y-64900D01*
X291700Y-64967D01*
X291175Y-65233D01*
X291350Y-63500D01*
X292925D01*
G01X296850D02*
X296383Y-63633D01*
X296033Y-63967D01*
X295800Y-64367D01*
X295625Y-64900D01*
X295567Y-65500D01*
X295625Y-66100D01*
X295800Y-66633D01*
X296033Y-67033D01*
X296383Y-67367D01*
X296850Y-67500D01*
X297317Y-67367D01*
X297667Y-67033D01*
X297900Y-66633D01*
X298075Y-66100D01*
X298133Y-65500D01*
X298075Y-64900D01*
X297900Y-64367D01*
X297667Y-63967D01*
X297317Y-63633D01*
X296850Y-63500D01*
G01X301650Y-67500D02*
Y-63500D01*
X300950Y-64300D01*
G01Y-67500D02*
X302350D01*
G01X309500Y-63500D02*
X310317Y-67500D01*
X311250Y-63500D01*
X312183Y-67500D01*
X313000Y-63500D01*
G01X315350D02*
X316750D01*
G01X316050D02*
Y-67500D01*
G01X315350D02*
X316750D01*
G01X319683Y-63500D02*
Y-67500D01*
X322017D01*
G01X324483Y-63500D02*
Y-67500D01*
X326817D01*
G01X329750Y-63500D02*
X331150D01*
G01X330450D02*
Y-67500D01*
G01X329750D02*
X331150D01*
G01X333792D02*
X335250Y-63500D01*
X336708Y-67500D01*
G01X336183Y-66100D02*
X334317D01*
G01X338533Y-67500D02*
Y-63500D01*
X340050Y-66833D01*
X341567Y-63500D01*
Y-67500D01*
G01X350933Y-63833D02*
X350583Y-63633D01*
X350175Y-63500D01*
X349708D01*
X349183Y-63700D01*
X348775Y-64033D01*
X348483Y-64433D01*
X348250Y-65100D01*
X348192Y-65700D01*
X348308Y-66300D01*
X348483Y-66700D01*
X348833Y-67100D01*
X349242Y-67367D01*
X349650Y-67500D01*
X350058D01*
X350467Y-67367D01*
X350817Y-67167D01*
X351108Y-66900D01*
G01X352992Y-67500D02*
X354450Y-63500D01*
X355908Y-67500D01*
G01X355383Y-66100D02*
X353517D01*
G01X357908Y-67500D02*
Y-63500D01*
X360592Y-67500D01*
Y-63500D01*
G01X362708Y-67500D02*
Y-63500D01*
X365392Y-67500D01*
Y-63500D01*
G01X368850Y-67500D02*
X368383Y-67433D01*
X367975Y-67167D01*
X367625Y-66767D01*
X367392Y-66300D01*
X367275Y-65767D01*
Y-65233D01*
X367392Y-64700D01*
X367625Y-64233D01*
X367975Y-63833D01*
X368383Y-63567D01*
X368850Y-63500D01*
X369317Y-63567D01*
X369725Y-63833D01*
X370075Y-64233D01*
X370308Y-64700D01*
X370425Y-65233D01*
Y-65767D01*
X370308Y-66300D01*
X370075Y-66767D01*
X369725Y-67167D01*
X369317Y-67433D01*
X368850Y-67500D01*
G01X372308D02*
Y-63500D01*
X374992Y-67500D01*
Y-63500D01*
G01X381967Y-67500D02*
Y-63500D01*
X383133D01*
X383600Y-63700D01*
X383950Y-63967D01*
X384242Y-64367D01*
X384475Y-64833D01*
X384533Y-65500D01*
X384475Y-66167D01*
X384242Y-66633D01*
X383950Y-67033D01*
X383600Y-67300D01*
X383133Y-67500D01*
X381967D01*
G01X386883D02*
Y-63500D01*
X388342D01*
X388808Y-63700D01*
X389100Y-63967D01*
X389217Y-64500D01*
X389100Y-65033D01*
X388750Y-65367D01*
X388342Y-65567D01*
X386883D01*
G01X388342D02*
X389217Y-67500D01*
G01X392150Y-63500D02*
X393550D01*
G01X392850D02*
Y-67500D01*
G01X392150D02*
X393550D01*
G01X396192Y-63500D02*
X397650Y-67500D01*
X399108Y-63500D01*
G01X403617Y-67500D02*
X401283D01*
Y-63500D01*
X403617D01*
G01X402683Y-65433D02*
X401283D01*
G01X410300Y-63500D02*
X411117Y-67500D01*
X412050Y-63500D01*
X412983Y-67500D01*
X413800Y-63500D01*
G01X418017Y-67500D02*
X415683D01*
Y-63500D01*
X418017D01*
G01X417083Y-65433D02*
X415683D01*
G01X420425Y-66967D02*
X420892Y-67300D01*
X421417Y-67500D01*
X421883D01*
X422350Y-67300D01*
X422700Y-66967D01*
X422875Y-66500D01*
X422758Y-66033D01*
X422467Y-65633D01*
X421942Y-65367D01*
X421242Y-65233D01*
X420833Y-64967D01*
X420658Y-64500D01*
X420775Y-64033D01*
X421067Y-63700D01*
X421475Y-63500D01*
X421883D01*
X422292Y-63633D01*
X422642Y-63967D01*
G01X426450Y-63500D02*
Y-67500D01*
G01X425108Y-63500D02*
X427792D01*
G01X294142Y-124500D02*
Y-120500D01*
X296358D01*
G01X295542Y-122433D02*
X294142D01*
G01X298883Y-124500D02*
Y-120500D01*
X300342D01*
X300808Y-120700D01*
X301100Y-120967D01*
X301217Y-121500D01*
X301100Y-122033D01*
X300750Y-122367D01*
X300342Y-122567D01*
X298883D01*
G01X300342D02*
X301217Y-124500D01*
G01X306017D02*
X303683D01*
Y-120500D01*
X306017D01*
G01X305083Y-122433D02*
X303683D01*
G01X310817Y-124500D02*
X308483D01*
Y-120500D01*
X310817D01*
G01X309883Y-122433D02*
X308483D01*
G01X313225Y-123967D02*
X313692Y-124300D01*
X314217Y-124500D01*
X314683D01*
X315150Y-124300D01*
X315500Y-123967D01*
X315675Y-123500D01*
X315558Y-123033D01*
X315267Y-122633D01*
X314742Y-122367D01*
X314042Y-122233D01*
X313633Y-121967D01*
X313458Y-121500D01*
X313575Y-121033D01*
X313867Y-120700D01*
X314275Y-120500D01*
X314683D01*
X315092Y-120633D01*
X315442Y-120967D01*
G01X320533Y-120833D02*
X320183Y-120633D01*
X319775Y-120500D01*
X319308D01*
X318783Y-120700D01*
X318375Y-121033D01*
X318083Y-121433D01*
X317850Y-122100D01*
X317792Y-122700D01*
X317908Y-123300D01*
X318083Y-123700D01*
X318433Y-124100D01*
X318842Y-124367D01*
X319250Y-124500D01*
X319658D01*
X320067Y-124367D01*
X320417Y-124167D01*
X320708Y-123900D01*
G01X322592Y-124500D02*
X324050Y-120500D01*
X325508Y-124500D01*
G01X324983Y-123100D02*
X323117D01*
G01X327683Y-120500D02*
Y-124500D01*
X330017D01*
G01X334817D02*
X332483D01*
Y-120500D01*
X334817D01*
G01X333883Y-122433D02*
X332483D01*
G01X338450Y-124633D02*
X338333Y-124567D01*
Y-124433D01*
X338450Y-124367D01*
X338567Y-124433D01*
Y-124567D01*
X338450Y-124633D01*
G01X294250Y-116500D02*
X293783Y-116433D01*
X293375Y-116167D01*
X293025Y-115767D01*
X292792Y-115300D01*
X292675Y-114767D01*
Y-114233D01*
X292792Y-113700D01*
X293025Y-113233D01*
X293375Y-112833D01*
X293783Y-112567D01*
X294250Y-112500D01*
X294717Y-112567D01*
X295125Y-112833D01*
X295475Y-113233D01*
X295708Y-113700D01*
X295825Y-114233D01*
Y-114767D01*
X295708Y-115300D01*
X295475Y-115767D01*
X295125Y-116167D01*
X294717Y-116433D01*
X294250Y-116500D01*
G01X297883D02*
Y-112500D01*
X299342D01*
X299808Y-112700D01*
X300100Y-112967D01*
X300217Y-113500D01*
X300100Y-114033D01*
X299750Y-114367D01*
X299342Y-114567D01*
X297883D01*
G01X299342D02*
X300217Y-116500D01*
G01X307950Y-112500D02*
X309350D01*
G01X308650D02*
Y-116500D01*
G01X307950D02*
X309350D01*
G01X312108D02*
Y-112500D01*
X314792Y-116500D01*
Y-112500D01*
G01X321883Y-116500D02*
Y-112500D01*
X323283D01*
X323750Y-112700D01*
X324100Y-113167D01*
X324217Y-113700D01*
X324100Y-114233D01*
X323808Y-114633D01*
X323283Y-114833D01*
X321883D01*
G01X326392Y-116500D02*
X327850Y-112500D01*
X329308Y-116500D01*
G01X328783Y-115100D02*
X326917D01*
G01X331483Y-116500D02*
Y-112500D01*
X332942D01*
X333408Y-112700D01*
X333700Y-112967D01*
X333817Y-113500D01*
X333700Y-114033D01*
X333350Y-114367D01*
X332942Y-114567D01*
X331483D01*
G01X332942D02*
X333817Y-116500D01*
G01X337450Y-112500D02*
Y-116500D01*
G01X336108Y-112500D02*
X338792D01*
G01X345300D02*
X346117Y-116500D01*
X347050Y-112500D01*
X347983Y-116500D01*
X348800Y-112500D01*
G01X351150D02*
X352550D01*
G01X351850D02*
Y-116500D01*
G01X351150D02*
X352550D01*
G01X356650Y-112500D02*
Y-116500D01*
G01X355308Y-112500D02*
X357992D01*
G01X360225Y-116500D02*
Y-112500D01*
G01X362675D02*
Y-116500D01*
G01Y-114500D02*
X360225D01*
G01X366250Y-116500D02*
X365783Y-116433D01*
X365375Y-116167D01*
X365025Y-115767D01*
X364792Y-115300D01*
X364675Y-114767D01*
Y-114233D01*
X364792Y-113700D01*
X365025Y-113233D01*
X365375Y-112833D01*
X365783Y-112567D01*
X366250Y-112500D01*
X366717Y-112567D01*
X367125Y-112833D01*
X367475Y-113233D01*
X367708Y-113700D01*
X367825Y-114233D01*
Y-114767D01*
X367708Y-115300D01*
X367475Y-115767D01*
X367125Y-116167D01*
X366717Y-116433D01*
X366250Y-116500D01*
G01X369767Y-112500D02*
Y-115367D01*
X370000Y-115967D01*
X370467Y-116367D01*
X371050Y-116500D01*
X371633Y-116367D01*
X372100Y-115967D01*
X372333Y-115367D01*
Y-112500D01*
G01X375850D02*
Y-116500D01*
G01X374508Y-112500D02*
X377192D01*
G01X385450D02*
Y-116500D01*
G01X384108Y-112500D02*
X386792D01*
G01X389025Y-116500D02*
Y-112500D01*
G01X391475D02*
Y-116500D01*
G01Y-114500D02*
X389025D01*
G01X396217Y-116500D02*
X393883D01*
Y-112500D01*
X396217D01*
G01X395283Y-114433D02*
X393883D01*
G01X405933Y-112833D02*
X405583Y-112633D01*
X405175Y-112500D01*
X404708D01*
X404183Y-112700D01*
X403775Y-113033D01*
X403483Y-113433D01*
X403250Y-114100D01*
X403192Y-114700D01*
X403308Y-115300D01*
X403483Y-115700D01*
X403833Y-116100D01*
X404242Y-116367D01*
X404650Y-116500D01*
X405058D01*
X405467Y-116367D01*
X405817Y-116167D01*
X406108Y-115900D01*
G01X409450Y-116500D02*
X408983Y-116433D01*
X408575Y-116167D01*
X408225Y-115767D01*
X407992Y-115300D01*
X407875Y-114767D01*
Y-114233D01*
X407992Y-113700D01*
X408225Y-113233D01*
X408575Y-112833D01*
X408983Y-112567D01*
X409450Y-112500D01*
X409917Y-112567D01*
X410325Y-112833D01*
X410675Y-113233D01*
X410908Y-113700D01*
X411025Y-114233D01*
Y-114767D01*
X410908Y-115300D01*
X410675Y-115767D01*
X410325Y-116167D01*
X409917Y-116433D01*
X409450Y-116500D01*
G01X412908D02*
Y-112500D01*
X415592Y-116500D01*
Y-112500D01*
G01X417825Y-115967D02*
X418292Y-116300D01*
X418817Y-116500D01*
X419283D01*
X419750Y-116300D01*
X420100Y-115967D01*
X420275Y-115500D01*
X420158Y-115033D01*
X419867Y-114633D01*
X419342Y-114367D01*
X418642Y-114233D01*
X418233Y-113967D01*
X418058Y-113500D01*
X418175Y-113033D01*
X418467Y-112700D01*
X418875Y-112500D01*
X419283D01*
X419692Y-112633D01*
X420042Y-112967D01*
G01X425017Y-116500D02*
X422683D01*
Y-112500D01*
X425017D01*
G01X424083Y-114433D02*
X422683D01*
G01X427308Y-116500D02*
Y-112500D01*
X429992Y-116500D01*
Y-112500D01*
G01X433450D02*
Y-116500D01*
G01X432108Y-112500D02*
X434792D01*
G01X443050Y-116500D02*
X442583Y-116433D01*
X442175Y-116167D01*
X441825Y-115767D01*
X441592Y-115300D01*
X441475Y-114767D01*
Y-114233D01*
X441592Y-113700D01*
X441825Y-113233D01*
X442175Y-112833D01*
X442583Y-112567D01*
X443050Y-112500D01*
X443517Y-112567D01*
X443925Y-112833D01*
X444275Y-113233D01*
X444508Y-113700D01*
X444625Y-114233D01*
Y-114767D01*
X444508Y-115300D01*
X444275Y-115767D01*
X443925Y-116167D01*
X443517Y-116433D01*
X443050Y-116500D01*
G01X446742D02*
Y-112500D01*
X448958D01*
G01X448142Y-114433D02*
X446742D01*
G01X293083Y-108500D02*
Y-104500D01*
X294483D01*
X294950Y-104700D01*
X295300Y-105167D01*
X295417Y-105700D01*
X295300Y-106233D01*
X295008Y-106633D01*
X294483Y-106833D01*
X293083D01*
G01X297883Y-108500D02*
Y-104500D01*
X299342D01*
X299808Y-104700D01*
X300100Y-104967D01*
X300217Y-105500D01*
X300100Y-106033D01*
X299750Y-106367D01*
X299342Y-106567D01*
X297883D01*
G01X299342D02*
X300217Y-108500D01*
G01X303850D02*
X303383Y-108433D01*
X302975Y-108167D01*
X302625Y-107767D01*
X302392Y-107300D01*
X302275Y-106767D01*
Y-106233D01*
X302392Y-105700D01*
X302625Y-105233D01*
X302975Y-104833D01*
X303383Y-104567D01*
X303850Y-104500D01*
X304317Y-104567D01*
X304725Y-104833D01*
X305075Y-105233D01*
X305308Y-105700D01*
X305425Y-106233D01*
Y-106767D01*
X305308Y-107300D01*
X305075Y-107767D01*
X304725Y-108167D01*
X304317Y-108433D01*
X303850Y-108500D01*
G01X309933Y-104833D02*
X309583Y-104633D01*
X309175Y-104500D01*
X308708D01*
X308183Y-104700D01*
X307775Y-105033D01*
X307483Y-105433D01*
X307250Y-106100D01*
X307192Y-106700D01*
X307308Y-107300D01*
X307483Y-107700D01*
X307833Y-108100D01*
X308242Y-108367D01*
X308650Y-108500D01*
X309058D01*
X309467Y-108367D01*
X309817Y-108167D01*
X310108Y-107900D01*
G01X312167Y-104500D02*
Y-107367D01*
X312400Y-107967D01*
X312867Y-108367D01*
X313450Y-108500D01*
X314033Y-108367D01*
X314500Y-107967D01*
X314733Y-107367D01*
Y-104500D01*
G01X317083Y-108500D02*
Y-104500D01*
X318542D01*
X319008Y-104700D01*
X319300Y-104967D01*
X319417Y-105500D01*
X319300Y-106033D01*
X318950Y-106367D01*
X318542Y-106567D01*
X317083D01*
G01X318542D02*
X319417Y-108500D01*
G01X324217D02*
X321883D01*
Y-104500D01*
X324217D01*
G01X323283Y-106433D02*
X321883D01*
G01X326333Y-108500D02*
Y-104500D01*
X327850Y-107833D01*
X329367Y-104500D01*
Y-108500D01*
G01X333817D02*
X331483D01*
Y-104500D01*
X333817D01*
G01X332883Y-106433D02*
X331483D01*
G01X336108Y-108500D02*
Y-104500D01*
X338792Y-108500D01*
Y-104500D01*
G01X342250D02*
Y-108500D01*
G01X340908Y-104500D02*
X343592D01*
G01X351850Y-108500D02*
X351383Y-108433D01*
X350975Y-108167D01*
X350625Y-107767D01*
X350392Y-107300D01*
X350275Y-106767D01*
Y-106233D01*
X350392Y-105700D01*
X350625Y-105233D01*
X350975Y-104833D01*
X351383Y-104567D01*
X351850Y-104500D01*
X352317Y-104567D01*
X352725Y-104833D01*
X353075Y-105233D01*
X353308Y-105700D01*
X353425Y-106233D01*
Y-106767D01*
X353308Y-107300D01*
X353075Y-107767D01*
X352725Y-108167D01*
X352317Y-108433D01*
X351850Y-108500D01*
G01X355483D02*
Y-104500D01*
X356942D01*
X357408Y-104700D01*
X357700Y-104967D01*
X357817Y-105500D01*
X357700Y-106033D01*
X357350Y-106367D01*
X356942Y-106567D01*
X355483D01*
G01X356942D02*
X357817Y-108500D01*
G01X364733D02*
Y-104500D01*
X366250Y-107833D01*
X367767Y-104500D01*
Y-108500D01*
G01X369592D02*
X371050Y-104500D01*
X372508Y-108500D01*
G01X371983Y-107100D02*
X370117D01*
G01X374508Y-108500D02*
Y-104500D01*
X377192Y-108500D01*
Y-104500D01*
G01X379367D02*
Y-107367D01*
X379600Y-107967D01*
X380067Y-108367D01*
X380650Y-108500D01*
X381233Y-108367D01*
X381700Y-107967D01*
X381933Y-107367D01*
Y-104500D01*
G01X384342Y-108500D02*
Y-104500D01*
X386558D01*
G01X385742Y-106433D02*
X384342D01*
G01X388792Y-108500D02*
X390250Y-104500D01*
X391708Y-108500D01*
G01X391183Y-107100D02*
X389317D01*
G01X396333Y-104833D02*
X395983Y-104633D01*
X395575Y-104500D01*
X395108D01*
X394583Y-104700D01*
X394175Y-105033D01*
X393883Y-105433D01*
X393650Y-106100D01*
X393592Y-106700D01*
X393708Y-107300D01*
X393883Y-107700D01*
X394233Y-108100D01*
X394642Y-108367D01*
X395050Y-108500D01*
X395458D01*
X395867Y-108367D01*
X396217Y-108167D01*
X396508Y-107900D01*
G01X399850Y-104500D02*
Y-108500D01*
G01X398508Y-104500D02*
X401192D01*
G01X403367D02*
Y-107367D01*
X403600Y-107967D01*
X404067Y-108367D01*
X404650Y-108500D01*
X405233Y-108367D01*
X405700Y-107967D01*
X405933Y-107367D01*
Y-104500D01*
G01X408283Y-108500D02*
Y-104500D01*
X409742D01*
X410208Y-104700D01*
X410500Y-104967D01*
X410617Y-105500D01*
X410500Y-106033D01*
X410150Y-106367D01*
X409742Y-106567D01*
X408283D01*
G01X409742D02*
X410617Y-108500D01*
G01X415417D02*
X413083D01*
Y-104500D01*
X415417D01*
G01X414483Y-106433D02*
X413083D01*
G01X423150Y-104500D02*
X424550D01*
G01X423850D02*
Y-108500D01*
G01X423150D02*
X424550D01*
G01X427308D02*
Y-104500D01*
X429992Y-108500D01*
Y-104500D01*
G01X436500D02*
X437317Y-108500D01*
X438250Y-104500D01*
X439183Y-108500D01*
X440000Y-104500D01*
G01X441825Y-108500D02*
Y-104500D01*
G01X444275D02*
Y-108500D01*
G01Y-106500D02*
X441825D01*
G01X447850Y-108500D02*
X447383Y-108433D01*
X446975Y-108167D01*
X446625Y-107767D01*
X446392Y-107300D01*
X446275Y-106767D01*
Y-106233D01*
X446392Y-105700D01*
X446625Y-105233D01*
X446975Y-104833D01*
X447383Y-104567D01*
X447850Y-104500D01*
X448317Y-104567D01*
X448725Y-104833D01*
X449075Y-105233D01*
X449308Y-105700D01*
X449425Y-106233D01*
Y-106767D01*
X449308Y-107300D01*
X449075Y-107767D01*
X448725Y-108167D01*
X448317Y-108433D01*
X447850Y-108500D01*
G01X451483Y-104500D02*
Y-108500D01*
X453817D01*
G01X458617D02*
X456283D01*
Y-104500D01*
X458617D01*
G01X457683Y-106433D02*
X456283D01*
G01X292908Y-100500D02*
Y-96500D01*
X295592Y-100500D01*
Y-96500D01*
G01X299050Y-100500D02*
X298583Y-100433D01*
X298175Y-100167D01*
X297825Y-99767D01*
X297592Y-99300D01*
X297475Y-98767D01*
Y-98233D01*
X297592Y-97700D01*
X297825Y-97233D01*
X298175Y-96833D01*
X298583Y-96567D01*
X299050Y-96500D01*
X299517Y-96567D01*
X299925Y-96833D01*
X300275Y-97233D01*
X300508Y-97700D01*
X300625Y-98233D01*
Y-98767D01*
X300508Y-99300D01*
X300275Y-99767D01*
X299925Y-100167D01*
X299517Y-100433D01*
X299050Y-100500D01*
G01X303850Y-96500D02*
Y-100500D01*
G01X302508Y-96500D02*
X305192D01*
G01X313917Y-98367D02*
X314150Y-98167D01*
X314325Y-97833D01*
X314442Y-97367D01*
X314325Y-96967D01*
X314092Y-96700D01*
X313683Y-96500D01*
X312108D01*
Y-100500D01*
X314033D01*
X314442Y-100233D01*
X314675Y-99833D01*
X314792Y-99367D01*
X314675Y-98900D01*
X314325Y-98500D01*
X313917Y-98367D01*
X312108D01*
G01X319417Y-100500D02*
X317083D01*
Y-96500D01*
X319417D01*
G01X318483Y-98433D02*
X317083D01*
G01X326567Y-96500D02*
Y-99367D01*
X326800Y-99967D01*
X327267Y-100367D01*
X327850Y-100500D01*
X328433Y-100367D01*
X328900Y-99967D01*
X329133Y-99367D01*
Y-96500D01*
G01X331425Y-99967D02*
X331892Y-100300D01*
X332417Y-100500D01*
X332883D01*
X333350Y-100300D01*
X333700Y-99967D01*
X333875Y-99500D01*
X333758Y-99033D01*
X333467Y-98633D01*
X332942Y-98367D01*
X332242Y-98233D01*
X331833Y-97967D01*
X331658Y-97500D01*
X331775Y-97033D01*
X332067Y-96700D01*
X332475Y-96500D01*
X332883D01*
X333292Y-96633D01*
X333642Y-96967D01*
G01X338617Y-100500D02*
X336283D01*
Y-96500D01*
X338617D01*
G01X337683Y-98433D02*
X336283D01*
G01X340967Y-100500D02*
Y-96500D01*
X342133D01*
X342600Y-96700D01*
X342950Y-96967D01*
X343242Y-97367D01*
X343475Y-97833D01*
X343533Y-98500D01*
X343475Y-99167D01*
X343242Y-99633D01*
X342950Y-100033D01*
X342600Y-100300D01*
X342133Y-100500D01*
X340967D01*
G01X350742D02*
Y-96500D01*
X352958D01*
G01X352142Y-98433D02*
X350742D01*
G01X356650Y-100500D02*
X356183Y-100433D01*
X355775Y-100167D01*
X355425Y-99767D01*
X355192Y-99300D01*
X355075Y-98767D01*
Y-98233D01*
X355192Y-97700D01*
X355425Y-97233D01*
X355775Y-96833D01*
X356183Y-96567D01*
X356650Y-96500D01*
X357117Y-96567D01*
X357525Y-96833D01*
X357875Y-97233D01*
X358108Y-97700D01*
X358225Y-98233D01*
Y-98767D01*
X358108Y-99300D01*
X357875Y-99767D01*
X357525Y-100167D01*
X357117Y-100433D01*
X356650Y-100500D01*
G01X360283D02*
Y-96500D01*
X361742D01*
X362208Y-96700D01*
X362500Y-96967D01*
X362617Y-97500D01*
X362500Y-98033D01*
X362150Y-98367D01*
X361742Y-98567D01*
X360283D01*
G01X361742D02*
X362617Y-100500D01*
G01X372217D02*
X369883D01*
Y-96500D01*
X372217D01*
G01X371283Y-98433D02*
X369883D01*
G01X374508Y-100500D02*
Y-96500D01*
X377192Y-100500D01*
Y-96500D01*
G01X381000Y-98500D02*
X382167D01*
Y-99700D01*
X381817Y-100100D01*
X381408Y-100367D01*
X380825Y-100500D01*
X380242Y-100367D01*
X379833Y-100100D01*
X379483Y-99700D01*
X379250Y-99233D01*
X379133Y-98700D01*
Y-98233D01*
X379250Y-97833D01*
X379483Y-97367D01*
X379833Y-96967D01*
X380183Y-96700D01*
X380650Y-96500D01*
X381058D01*
X381525Y-96633D01*
X381875Y-96900D01*
G01X384750Y-96500D02*
X386150D01*
G01X385450D02*
Y-100500D01*
G01X384750D02*
X386150D01*
G01X388908D02*
Y-96500D01*
X391592Y-100500D01*
Y-96500D01*
G01X396217Y-100500D02*
X393883D01*
Y-96500D01*
X396217D01*
G01X395283Y-98433D02*
X393883D01*
G01X401017Y-100500D02*
X398683D01*
Y-96500D01*
X401017D01*
G01X400083Y-98433D02*
X398683D01*
G01X403483Y-100500D02*
Y-96500D01*
X404942D01*
X405408Y-96700D01*
X405700Y-96967D01*
X405817Y-97500D01*
X405700Y-98033D01*
X405350Y-98367D01*
X404942Y-98567D01*
X403483D01*
G01X404942D02*
X405817Y-100500D01*
G01X408750Y-96500D02*
X410150D01*
G01X409450D02*
Y-100500D01*
G01X408750D02*
X410150D01*
G01X412908D02*
Y-96500D01*
X415592Y-100500D01*
Y-96500D01*
G01X419400Y-98500D02*
X420567D01*
Y-99700D01*
X420217Y-100100D01*
X419808Y-100367D01*
X419225Y-100500D01*
X418642Y-100367D01*
X418233Y-100100D01*
X417883Y-99700D01*
X417650Y-99233D01*
X417533Y-98700D01*
Y-98233D01*
X417650Y-97833D01*
X417883Y-97367D01*
X418233Y-96967D01*
X418583Y-96700D01*
X419050Y-96500D01*
X419458D01*
X419925Y-96633D01*
X420275Y-96900D01*
G01X427367Y-100500D02*
Y-96500D01*
X428533D01*
X429000Y-96700D01*
X429350Y-96967D01*
X429642Y-97367D01*
X429875Y-97833D01*
X429933Y-98500D01*
X429875Y-99167D01*
X429642Y-99633D01*
X429350Y-100033D01*
X429000Y-100300D01*
X428533Y-100500D01*
X427367D01*
G01X434617D02*
X432283D01*
Y-96500D01*
X434617D01*
G01X433683Y-98433D02*
X432283D01*
G01X437025Y-99967D02*
X437492Y-100300D01*
X438017Y-100500D01*
X438483D01*
X438950Y-100300D01*
X439300Y-99967D01*
X439475Y-99500D01*
X439358Y-99033D01*
X439067Y-98633D01*
X438542Y-98367D01*
X437842Y-98233D01*
X437433Y-97967D01*
X437258Y-97500D01*
X437375Y-97033D01*
X437667Y-96700D01*
X438075Y-96500D01*
X438483D01*
X438892Y-96633D01*
X439242Y-96967D01*
G01X442350Y-96500D02*
X443750D01*
G01X443050D02*
Y-100500D01*
G01X442350D02*
X443750D01*
G01X448200Y-98500D02*
X449367D01*
Y-99700D01*
X449017Y-100100D01*
X448608Y-100367D01*
X448025Y-100500D01*
X447442Y-100367D01*
X447033Y-100100D01*
X446683Y-99700D01*
X446450Y-99233D01*
X446333Y-98700D01*
Y-98233D01*
X446450Y-97833D01*
X446683Y-97367D01*
X447033Y-96967D01*
X447383Y-96700D01*
X447850Y-96500D01*
X448258D01*
X448725Y-96633D01*
X449075Y-96900D01*
G01X451308Y-100500D02*
Y-96500D01*
X453992Y-100500D01*
Y-96500D01*
G01X293083Y-92500D02*
Y-88500D01*
X294483D01*
X294950Y-88700D01*
X295300Y-89167D01*
X295417Y-89700D01*
X295300Y-90233D01*
X295008Y-90633D01*
X294483Y-90833D01*
X293083D01*
G01X297883Y-92500D02*
Y-88500D01*
X299342D01*
X299808Y-88700D01*
X300100Y-88967D01*
X300217Y-89500D01*
X300100Y-90033D01*
X299750Y-90367D01*
X299342Y-90567D01*
X297883D01*
G01X299342D02*
X300217Y-92500D01*
G01X303850D02*
X303383Y-92433D01*
X302975Y-92167D01*
X302625Y-91767D01*
X302392Y-91300D01*
X302275Y-90767D01*
Y-90233D01*
X302392Y-89700D01*
X302625Y-89233D01*
X302975Y-88833D01*
X303383Y-88567D01*
X303850Y-88500D01*
X304317Y-88567D01*
X304725Y-88833D01*
X305075Y-89233D01*
X305308Y-89700D01*
X305425Y-90233D01*
Y-90767D01*
X305308Y-91300D01*
X305075Y-91767D01*
X304725Y-92167D01*
X304317Y-92433D01*
X303850Y-92500D01*
G01X307483D02*
Y-88500D01*
X308883D01*
X309350Y-88700D01*
X309700Y-89167D01*
X309817Y-89700D01*
X309700Y-90233D01*
X309408Y-90633D01*
X308883Y-90833D01*
X307483D01*
G01X312283Y-92500D02*
Y-88500D01*
X313742D01*
X314208Y-88700D01*
X314500Y-88967D01*
X314617Y-89500D01*
X314500Y-90033D01*
X314150Y-90367D01*
X313742Y-90567D01*
X312283D01*
G01X313742D02*
X314617Y-92500D01*
G01X317550Y-88500D02*
X318950D01*
G01X318250D02*
Y-92500D01*
G01X317550D02*
X318950D01*
G01X324217D02*
X321883D01*
Y-88500D01*
X324217D01*
G01X323283Y-90433D02*
X321883D01*
G01X327850Y-88500D02*
Y-92500D01*
G01X326508Y-88500D02*
X329192D01*
G01X331192Y-92500D02*
X332650Y-88500D01*
X334108Y-92500D01*
G01X333583Y-91100D02*
X331717D01*
G01X336283Y-92500D02*
Y-88500D01*
X337742D01*
X338208Y-88700D01*
X338500Y-88967D01*
X338617Y-89500D01*
X338500Y-90033D01*
X338150Y-90367D01*
X337742Y-90567D01*
X336283D01*
G01X337742D02*
X338617Y-92500D01*
G01X342250D02*
Y-90700D01*
X341083Y-88500D01*
G01X343417D02*
X342250Y-90700D01*
G01X351850Y-88500D02*
Y-92500D01*
G01X350508Y-88500D02*
X353192D01*
G01X356650Y-92500D02*
X356183Y-92433D01*
X355775Y-92167D01*
X355425Y-91767D01*
X355192Y-91300D01*
X355075Y-90767D01*
Y-90233D01*
X355192Y-89700D01*
X355425Y-89233D01*
X355775Y-88833D01*
X356183Y-88567D01*
X356650Y-88500D01*
X357117Y-88567D01*
X357525Y-88833D01*
X357875Y-89233D01*
X358108Y-89700D01*
X358225Y-90233D01*
Y-90767D01*
X358108Y-91300D01*
X357875Y-91767D01*
X357525Y-92167D01*
X357117Y-92433D01*
X356650Y-92500D01*
G01X365142D02*
Y-88500D01*
X367358D01*
G01X366542Y-90433D02*
X365142D01*
G01X369883Y-92500D02*
Y-88500D01*
X371342D01*
X371808Y-88700D01*
X372100Y-88967D01*
X372217Y-89500D01*
X372100Y-90033D01*
X371750Y-90367D01*
X371342Y-90567D01*
X369883D01*
G01X371342D02*
X372217Y-92500D01*
G01X377017D02*
X374683D01*
Y-88500D01*
X377017D01*
G01X376083Y-90433D02*
X374683D01*
G01X381817Y-92500D02*
X379483D01*
Y-88500D01*
X381817D01*
G01X380883Y-90433D02*
X379483D01*
G01X384225Y-91967D02*
X384692Y-92300D01*
X385217Y-92500D01*
X385683D01*
X386150Y-92300D01*
X386500Y-91967D01*
X386675Y-91500D01*
X386558Y-91033D01*
X386267Y-90633D01*
X385742Y-90367D01*
X385042Y-90233D01*
X384633Y-89967D01*
X384458Y-89500D01*
X384575Y-89033D01*
X384867Y-88700D01*
X385275Y-88500D01*
X385683D01*
X386092Y-88633D01*
X386442Y-88967D01*
G01X391533Y-88833D02*
X391183Y-88633D01*
X390775Y-88500D01*
X390308D01*
X389783Y-88700D01*
X389375Y-89033D01*
X389083Y-89433D01*
X388850Y-90100D01*
X388792Y-90700D01*
X388908Y-91300D01*
X389083Y-91700D01*
X389433Y-92100D01*
X389842Y-92367D01*
X390250Y-92500D01*
X390658D01*
X391067Y-92367D01*
X391417Y-92167D01*
X391708Y-91900D01*
G01X393592Y-92500D02*
X395050Y-88500D01*
X396508Y-92500D01*
G01X395983Y-91100D02*
X394117D01*
G01X398683Y-88500D02*
Y-92500D01*
X401017D01*
G01X405817D02*
X403483D01*
Y-88500D01*
X405817D01*
G01X404883Y-90433D02*
X403483D01*
G01X412792Y-92500D02*
X414250Y-88500D01*
X415708Y-92500D01*
G01X415183Y-91100D02*
X413317D01*
G01X417708Y-92500D02*
Y-88500D01*
X420392Y-92500D01*
Y-88500D01*
G01X422567Y-92500D02*
Y-88500D01*
X423733D01*
X424200Y-88700D01*
X424550Y-88967D01*
X424842Y-89367D01*
X425075Y-89833D01*
X425133Y-90500D01*
X425075Y-91167D01*
X424842Y-91633D01*
X424550Y-92033D01*
X424200Y-92300D01*
X423733Y-92500D01*
X422567D01*
G01X432225Y-91967D02*
X432692Y-92300D01*
X433217Y-92500D01*
X433683D01*
X434150Y-92300D01*
X434500Y-91967D01*
X434675Y-91500D01*
X434558Y-91033D01*
X434267Y-90633D01*
X433742Y-90367D01*
X433042Y-90233D01*
X432633Y-89967D01*
X432458Y-89500D01*
X432575Y-89033D01*
X432867Y-88700D01*
X433275Y-88500D01*
X433683D01*
X434092Y-88633D01*
X434442Y-88967D01*
G01X437025Y-92500D02*
Y-88500D01*
G01X439475D02*
Y-92500D01*
G01Y-90500D02*
X437025D01*
G01X441592Y-92500D02*
X443050Y-88500D01*
X444508Y-92500D01*
G01X443983Y-91100D02*
X442117D01*
G01X446683Y-88500D02*
Y-92500D01*
X449017D01*
G01X451483Y-88500D02*
Y-92500D01*
X453817D01*
G01X293250Y-80500D02*
Y-84500D01*
G01X291908Y-80500D02*
X294592D01*
G01X296825Y-84500D02*
Y-80500D01*
G01X299275D02*
Y-84500D01*
G01Y-82500D02*
X296825D01*
G01X302150Y-80500D02*
X303550D01*
G01X302850D02*
Y-84500D01*
G01X302150D02*
X303550D01*
G01X306425Y-83967D02*
X306892Y-84300D01*
X307417Y-84500D01*
X307883D01*
X308350Y-84300D01*
X308700Y-83967D01*
X308875Y-83500D01*
X308758Y-83033D01*
X308467Y-82633D01*
X307942Y-82367D01*
X307242Y-82233D01*
X306833Y-81967D01*
X306658Y-81500D01*
X306775Y-81033D01*
X307067Y-80700D01*
X307475Y-80500D01*
X307883D01*
X308292Y-80633D01*
X308642Y-80967D01*
G01X315967Y-84500D02*
Y-80500D01*
X317133D01*
X317600Y-80700D01*
X317950Y-80967D01*
X318242Y-81367D01*
X318475Y-81833D01*
X318533Y-82500D01*
X318475Y-83167D01*
X318242Y-83633D01*
X317950Y-84033D01*
X317600Y-84300D01*
X317133Y-84500D01*
X315967D01*
G01X322050D02*
X321583Y-84433D01*
X321175Y-84167D01*
X320825Y-83767D01*
X320592Y-83300D01*
X320475Y-82767D01*
Y-82233D01*
X320592Y-81700D01*
X320825Y-81233D01*
X321175Y-80833D01*
X321583Y-80567D01*
X322050Y-80500D01*
X322517Y-80567D01*
X322925Y-80833D01*
X323275Y-81233D01*
X323508Y-81700D01*
X323625Y-82233D01*
Y-82767D01*
X323508Y-83300D01*
X323275Y-83767D01*
X322925Y-84167D01*
X322517Y-84433D01*
X322050Y-84500D01*
G01X328133Y-80833D02*
X327783Y-80633D01*
X327375Y-80500D01*
X326908D01*
X326383Y-80700D01*
X325975Y-81033D01*
X325683Y-81433D01*
X325450Y-82100D01*
X325392Y-82700D01*
X325508Y-83300D01*
X325683Y-83700D01*
X326033Y-84100D01*
X326442Y-84367D01*
X326850Y-84500D01*
X327258D01*
X327667Y-84367D01*
X328017Y-84167D01*
X328308Y-83900D01*
G01X330367Y-80500D02*
Y-83367D01*
X330600Y-83967D01*
X331067Y-84367D01*
X331650Y-84500D01*
X332233Y-84367D01*
X332700Y-83967D01*
X332933Y-83367D01*
Y-80500D01*
G01X334933Y-84500D02*
Y-80500D01*
X336450Y-83833D01*
X337967Y-80500D01*
Y-84500D01*
G01X342417D02*
X340083D01*
Y-80500D01*
X342417D01*
G01X341483Y-82433D02*
X340083D01*
G01X344708Y-84500D02*
Y-80500D01*
X347392Y-84500D01*
Y-80500D01*
G01X350850D02*
Y-84500D01*
G01X349508Y-80500D02*
X352192D01*
G01X361733Y-80833D02*
X361383Y-80633D01*
X360975Y-80500D01*
X360508D01*
X359983Y-80700D01*
X359575Y-81033D01*
X359283Y-81433D01*
X359050Y-82100D01*
X358992Y-82700D01*
X359108Y-83300D01*
X359283Y-83700D01*
X359633Y-84100D01*
X360042Y-84367D01*
X360450Y-84500D01*
X360858D01*
X361267Y-84367D01*
X361617Y-84167D01*
X361908Y-83900D01*
G01X365250Y-84500D02*
X364783Y-84433D01*
X364375Y-84167D01*
X364025Y-83767D01*
X363792Y-83300D01*
X363675Y-82767D01*
Y-82233D01*
X363792Y-81700D01*
X364025Y-81233D01*
X364375Y-80833D01*
X364783Y-80567D01*
X365250Y-80500D01*
X365717Y-80567D01*
X366125Y-80833D01*
X366475Y-81233D01*
X366708Y-81700D01*
X366825Y-82233D01*
Y-82767D01*
X366708Y-83300D01*
X366475Y-83767D01*
X366125Y-84167D01*
X365717Y-84433D01*
X365250Y-84500D01*
G01X368708D02*
Y-80500D01*
X371392Y-84500D01*
Y-80500D01*
G01X374850D02*
Y-84500D01*
G01X373508Y-80500D02*
X376192D01*
G01X378192Y-84500D02*
X379650Y-80500D01*
X381108Y-84500D01*
G01X380583Y-83100D02*
X378717D01*
G01X383750Y-80500D02*
X385150D01*
G01X384450D02*
Y-84500D01*
G01X383750D02*
X385150D01*
G01X387908D02*
Y-80500D01*
X390592Y-84500D01*
Y-80500D01*
G01X392825Y-83967D02*
X393292Y-84300D01*
X393817Y-84500D01*
X394283D01*
X394750Y-84300D01*
X395100Y-83967D01*
X395275Y-83500D01*
X395158Y-83033D01*
X394867Y-82633D01*
X394342Y-82367D01*
X393642Y-82233D01*
X393233Y-81967D01*
X393058Y-81500D01*
X393175Y-81033D01*
X393467Y-80700D01*
X393875Y-80500D01*
X394283D01*
X394692Y-80633D01*
X395042Y-80967D01*
G01X402950Y-80500D02*
X404350D01*
G01X403650D02*
Y-84500D01*
G01X402950D02*
X404350D01*
G01X407108D02*
Y-80500D01*
X409792Y-84500D01*
Y-80500D01*
G01X412142Y-84500D02*
Y-80500D01*
X414358D01*
G01X413542Y-82433D02*
X412142D01*
G01X418050Y-84500D02*
X417583Y-84433D01*
X417175Y-84167D01*
X416825Y-83767D01*
X416592Y-83300D01*
X416475Y-82767D01*
Y-82233D01*
X416592Y-81700D01*
X416825Y-81233D01*
X417175Y-80833D01*
X417583Y-80567D01*
X418050Y-80500D01*
X418517Y-80567D01*
X418925Y-80833D01*
X419275Y-81233D01*
X419508Y-81700D01*
X419625Y-82233D01*
Y-82767D01*
X419508Y-83300D01*
X419275Y-83767D01*
X418925Y-84167D01*
X418517Y-84433D01*
X418050Y-84500D01*
G01X421683D02*
Y-80500D01*
X423142D01*
X423608Y-80700D01*
X423900Y-80967D01*
X424017Y-81500D01*
X423900Y-82033D01*
X423550Y-82367D01*
X423142Y-82567D01*
X421683D01*
G01X423142D02*
X424017Y-84500D01*
G01X426133D02*
Y-80500D01*
X427650Y-83833D01*
X429167Y-80500D01*
Y-84500D01*
G01X430992D02*
X432450Y-80500D01*
X433908Y-84500D01*
G01X433383Y-83100D02*
X431517D01*
G01X437250Y-80500D02*
Y-84500D01*
G01X435908Y-80500D02*
X438592D01*
G01X441350D02*
X442750D01*
G01X442050D02*
Y-84500D01*
G01X441350D02*
X442750D01*
G01X446850D02*
X446383Y-84433D01*
X445975Y-84167D01*
X445625Y-83767D01*
X445392Y-83300D01*
X445275Y-82767D01*
Y-82233D01*
X445392Y-81700D01*
X445625Y-81233D01*
X445975Y-80833D01*
X446383Y-80567D01*
X446850Y-80500D01*
X447317Y-80567D01*
X447725Y-80833D01*
X448075Y-81233D01*
X448308Y-81700D01*
X448425Y-82233D01*
Y-82767D01*
X448308Y-83300D01*
X448075Y-83767D01*
X447725Y-84167D01*
X447317Y-84433D01*
X446850Y-84500D01*
G01X450308D02*
Y-80500D01*
X452992Y-84500D01*
Y-80500D01*
G01X336142Y-135500D02*
Y-131500D01*
X338358D01*
G01X337542Y-133433D02*
X336142D01*
G01X341350Y-131500D02*
X342750D01*
G01X342050D02*
Y-135500D01*
G01X341350D02*
X342750D01*
G01X345683Y-131500D02*
Y-135500D01*
X348017D01*
G01X350133D02*
Y-131500D01*
X351650Y-134833D01*
X353167Y-131500D01*
Y-135500D01*
G01X464250Y-139500D02*
X463783Y-139633D01*
X463433Y-139967D01*
X463200Y-140367D01*
X463025Y-140900D01*
X462967Y-141500D01*
X463025Y-142100D01*
X463200Y-142633D01*
X463433Y-143033D01*
X463783Y-143367D01*
X464250Y-143500D01*
X464717Y-143367D01*
X465067Y-143033D01*
X465300Y-142633D01*
X465475Y-142100D01*
X465533Y-141500D01*
X465475Y-140900D01*
X465300Y-140367D01*
X465067Y-139967D01*
X464717Y-139633D01*
X464250Y-139500D01*
G01X468058Y-143033D02*
X468467Y-143367D01*
X468933Y-143500D01*
X469400Y-143367D01*
X469808Y-142967D01*
X470100Y-142367D01*
X470217Y-141767D01*
Y-141033D01*
X470100Y-140433D01*
X469808Y-139900D01*
X469458Y-139633D01*
X469050Y-139500D01*
X468583Y-139633D01*
X468233Y-139900D01*
X468000Y-140300D01*
X467883Y-140833D01*
X468000Y-141300D01*
X468292Y-141767D01*
X468642Y-142033D01*
X469050Y-142100D01*
X469517Y-141967D01*
X469867Y-141633D01*
X470217Y-141033D01*
G01X473092Y-142167D02*
X474608D01*
G01X478650Y-143500D02*
Y-139500D01*
X477950Y-140300D01*
G01Y-143500D02*
X479350D01*
G01X482458Y-143033D02*
X482867Y-143367D01*
X483333Y-143500D01*
X483800Y-143367D01*
X484208Y-142967D01*
X484500Y-142367D01*
X484617Y-141767D01*
Y-141033D01*
X484500Y-140433D01*
X484208Y-139900D01*
X483858Y-139633D01*
X483450Y-139500D01*
X482983Y-139633D01*
X482633Y-139900D01*
X482400Y-140300D01*
X482283Y-140833D01*
X482400Y-141300D01*
X482692Y-141767D01*
X483042Y-142033D01*
X483450Y-142100D01*
X483917Y-141967D01*
X484267Y-141633D01*
X484617Y-141033D01*
G01X487492Y-142167D02*
X489008D01*
G01X493050Y-143500D02*
Y-139500D01*
X492350Y-140300D01*
G01Y-143500D02*
X493750D01*
G01X496742Y-140167D02*
X497092Y-139767D01*
X497500Y-139567D01*
X497967Y-139500D01*
X498550Y-139633D01*
X498958Y-139967D01*
X499075Y-140367D01*
X499017Y-140767D01*
X498783Y-141100D01*
X497617Y-141767D01*
X497092Y-142233D01*
X496742Y-142900D01*
X496625Y-143500D01*
X499075D01*
G01X470500Y-121333D02*
X474000D01*
G01X475300D02*
X478800D01*
G01X480100D02*
X483600D01*
G01X490342Y-120000D02*
Y-116000D01*
X492558D01*
G01X491742Y-117933D02*
X490342D01*
G01X497533Y-116333D02*
X497183Y-116133D01*
X496775Y-116000D01*
X496308D01*
X495783Y-116200D01*
X495375Y-116533D01*
X495083Y-116933D01*
X494850Y-117600D01*
X494792Y-118200D01*
X494908Y-118800D01*
X495083Y-119200D01*
X495433Y-119600D01*
X495842Y-119867D01*
X496250Y-120000D01*
X496658D01*
X497067Y-119867D01*
X497417Y-119667D01*
X497708Y-119400D01*
G01X499883Y-120000D02*
Y-116000D01*
X501283D01*
X501750Y-116200D01*
X502100Y-116667D01*
X502217Y-117200D01*
X502100Y-117733D01*
X501808Y-118133D01*
X501283Y-118333D01*
X499883D01*
G01X510358Y-121333D02*
X509775Y-120667D01*
X509483Y-120000D01*
Y-117333D01*
X509775Y-116667D01*
X510358Y-116000D01*
G01X514342Y-120000D02*
Y-116000D01*
X516558D01*
G01X515742Y-117933D02*
X514342D01*
G01X519083Y-120000D02*
Y-116000D01*
X520542D01*
X521008Y-116200D01*
X521300Y-116467D01*
X521417Y-117000D01*
X521300Y-117533D01*
X520950Y-117867D01*
X520542Y-118067D01*
X519083D01*
G01X520542D02*
X521417Y-120000D01*
G01X526217D02*
X523883D01*
Y-116000D01*
X526217D01*
G01X525283Y-117933D02*
X523883D01*
G01X531017Y-120000D02*
X528683D01*
Y-116000D01*
X531017D01*
G01X530083Y-117933D02*
X528683D01*
G01X533425Y-119467D02*
X533892Y-119800D01*
X534417Y-120000D01*
X534883D01*
X535350Y-119800D01*
X535700Y-119467D01*
X535875Y-119000D01*
X535758Y-118533D01*
X535467Y-118133D01*
X534942Y-117867D01*
X534242Y-117733D01*
X533833Y-117467D01*
X533658Y-117000D01*
X533775Y-116533D01*
X534067Y-116200D01*
X534475Y-116000D01*
X534883D01*
X535292Y-116133D01*
X535642Y-116467D01*
G01X540733Y-116333D02*
X540383Y-116133D01*
X539975Y-116000D01*
X539508D01*
X538983Y-116200D01*
X538575Y-116533D01*
X538283Y-116933D01*
X538050Y-117600D01*
X537992Y-118200D01*
X538108Y-118800D01*
X538283Y-119200D01*
X538633Y-119600D01*
X539042Y-119867D01*
X539450Y-120000D01*
X539858D01*
X540267Y-119867D01*
X540617Y-119667D01*
X540908Y-119400D01*
G01X542792Y-120000D02*
X544250Y-116000D01*
X545708Y-120000D01*
G01X545183Y-118600D02*
X543317D01*
G01X547883Y-116000D02*
Y-120000D01*
X550217D01*
G01X555017D02*
X552683D01*
Y-116000D01*
X555017D01*
G01X554083Y-117933D02*
X552683D01*
G01X564733Y-116333D02*
X564383Y-116133D01*
X563975Y-116000D01*
X563508D01*
X562983Y-116200D01*
X562575Y-116533D01*
X562283Y-116933D01*
X562050Y-117600D01*
X561992Y-118200D01*
X562108Y-118800D01*
X562283Y-119200D01*
X562633Y-119600D01*
X563042Y-119867D01*
X563450Y-120000D01*
X563858D01*
X564267Y-119867D01*
X564617Y-119667D01*
X564908Y-119400D01*
G01X568250Y-120000D02*
X567783Y-119933D01*
X567375Y-119667D01*
X567025Y-119267D01*
X566792Y-118800D01*
X566675Y-118267D01*
Y-117733D01*
X566792Y-117200D01*
X567025Y-116733D01*
X567375Y-116333D01*
X567783Y-116067D01*
X568250Y-116000D01*
X568717Y-116067D01*
X569125Y-116333D01*
X569475Y-116733D01*
X569708Y-117200D01*
X569825Y-117733D01*
Y-118267D01*
X569708Y-118800D01*
X569475Y-119267D01*
X569125Y-119667D01*
X568717Y-119933D01*
X568250Y-120000D01*
G01X571708D02*
Y-116000D01*
X574392Y-120000D01*
Y-116000D01*
G01X576742Y-120000D02*
Y-116000D01*
X578958D01*
G01X578142Y-117933D02*
X576742D01*
G01X581950Y-116000D02*
X583350D01*
G01X582650D02*
Y-120000D01*
G01X581950D02*
X583350D01*
G01X586167D02*
Y-116000D01*
X587333D01*
X587800Y-116200D01*
X588150Y-116467D01*
X588442Y-116867D01*
X588675Y-117333D01*
X588733Y-118000D01*
X588675Y-118667D01*
X588442Y-119133D01*
X588150Y-119533D01*
X587800Y-119800D01*
X587333Y-120000D01*
X586167D01*
G01X593417D02*
X591083D01*
Y-116000D01*
X593417D01*
G01X592483Y-117933D02*
X591083D01*
G01X595708Y-120000D02*
Y-116000D01*
X598392Y-120000D01*
Y-116000D01*
G01X601850D02*
Y-120000D01*
G01X600508Y-116000D02*
X603192D01*
G01X605950D02*
X607350D01*
G01X606650D02*
Y-120000D01*
G01X605950D02*
X607350D01*
G01X609992D02*
X611450Y-116000D01*
X612908Y-120000D01*
G01X612383Y-118600D02*
X610517D01*
G01X615083Y-116000D02*
Y-120000D01*
X617417D01*
G01X624683D02*
Y-116000D01*
X626083D01*
X626550Y-116200D01*
X626900Y-116667D01*
X627017Y-117200D01*
X626900Y-117733D01*
X626608Y-118133D01*
X626083Y-118333D01*
X624683D01*
G01X629483Y-120000D02*
Y-116000D01*
X630942D01*
X631408Y-116200D01*
X631700Y-116467D01*
X631817Y-117000D01*
X631700Y-117533D01*
X631350Y-117867D01*
X630942Y-118067D01*
X629483D01*
G01X630942D02*
X631817Y-120000D01*
G01X635450D02*
X634983Y-119933D01*
X634575Y-119667D01*
X634225Y-119267D01*
X633992Y-118800D01*
X633875Y-118267D01*
Y-117733D01*
X633992Y-117200D01*
X634225Y-116733D01*
X634575Y-116333D01*
X634983Y-116067D01*
X635450Y-116000D01*
X635917Y-116067D01*
X636325Y-116333D01*
X636675Y-116733D01*
X636908Y-117200D01*
X637025Y-117733D01*
Y-118267D01*
X636908Y-118800D01*
X636675Y-119267D01*
X636325Y-119667D01*
X635917Y-119933D01*
X635450Y-120000D01*
G01X639083D02*
Y-116000D01*
X640483D01*
X640950Y-116200D01*
X641300Y-116667D01*
X641417Y-117200D01*
X641300Y-117733D01*
X641008Y-118133D01*
X640483Y-118333D01*
X639083D01*
G01X643883Y-120000D02*
Y-116000D01*
X645342D01*
X645808Y-116200D01*
X646100Y-116467D01*
X646217Y-117000D01*
X646100Y-117533D01*
X645750Y-117867D01*
X645342Y-118067D01*
X643883D01*
G01X645342D02*
X646217Y-120000D01*
G01X649150Y-116000D02*
X650550D01*
G01X649850D02*
Y-120000D01*
G01X649150D02*
X650550D01*
G01X655817D02*
X653483D01*
Y-116000D01*
X655817D01*
G01X654883Y-117933D02*
X653483D01*
G01X659450Y-116000D02*
Y-120000D01*
G01X658108Y-116000D02*
X660792D01*
G01X662792Y-120000D02*
X664250Y-116000D01*
X665708Y-120000D01*
G01X665183Y-118600D02*
X663317D01*
G01X667883Y-120000D02*
Y-116000D01*
X669342D01*
X669808Y-116200D01*
X670100Y-116467D01*
X670217Y-117000D01*
X670100Y-117533D01*
X669750Y-117867D01*
X669342Y-118067D01*
X667883D01*
G01X669342D02*
X670217Y-120000D01*
G01X673850D02*
Y-118200D01*
X672683Y-116000D01*
G01X675017D02*
X673850Y-118200D01*
G01X678942Y-121333D02*
X679525Y-120667D01*
X679817Y-120000D01*
Y-117333D01*
X679525Y-116667D01*
X678942Y-116000D01*
G01X460967Y-135500D02*
Y-131500D01*
X462133D01*
X462600Y-131700D01*
X462950Y-131967D01*
X463242Y-132367D01*
X463475Y-132833D01*
X463533Y-133500D01*
X463475Y-134167D01*
X463242Y-134633D01*
X462950Y-135033D01*
X462600Y-135300D01*
X462133Y-135500D01*
X460967D01*
G01X465592D02*
X467050Y-131500D01*
X468508Y-135500D01*
G01X467983Y-134100D02*
X466117D01*
G01X471850Y-131500D02*
Y-135500D01*
G01X470508Y-131500D02*
X473192D01*
G01X477817Y-135500D02*
X475483D01*
Y-131500D01*
X477817D01*
G01X476883Y-133433D02*
X475483D01*
G01X475205Y-104500D02*
X478495Y-98200D01*
G01X475205D02*
X478495Y-104500D01*
G01X470500Y-104833D02*
X474000D01*
G01X475300D02*
X478800D01*
G01X480100D02*
X483600D01*
G01X490342Y-103500D02*
Y-99500D01*
X492558D01*
G01X491742Y-101433D02*
X490342D01*
G01X495550Y-99500D02*
X496950D01*
G01X496250D02*
Y-103500D01*
G01X495550D02*
X496950D01*
G01X499767Y-99500D02*
Y-102367D01*
X500000Y-102967D01*
X500467Y-103367D01*
X501050Y-103500D01*
X501633Y-103367D01*
X502100Y-102967D01*
X502333Y-102367D01*
Y-99500D01*
G01X505850Y-103500D02*
X505383Y-103433D01*
X504975Y-103167D01*
X504625Y-102767D01*
X504392Y-102300D01*
X504275Y-101767D01*
Y-101233D01*
X504392Y-100700D01*
X504625Y-100233D01*
X504975Y-99833D01*
X505383Y-99567D01*
X505850Y-99500D01*
X506317Y-99567D01*
X506725Y-99833D01*
X507075Y-100233D01*
X507308Y-100700D01*
X507425Y-101233D01*
Y-101767D01*
X507308Y-102300D01*
X507075Y-102767D01*
X506725Y-103167D01*
X506317Y-103433D01*
X505850Y-103500D01*
G01X515158Y-104833D02*
X514575Y-104167D01*
X514283Y-103500D01*
Y-100833D01*
X514575Y-100167D01*
X515158Y-99500D01*
G01X519142Y-103500D02*
Y-99500D01*
X521358D01*
G01X520542Y-101433D02*
X519142D01*
G01X523883Y-103500D02*
Y-99500D01*
X525342D01*
X525808Y-99700D01*
X526100Y-99967D01*
X526217Y-100500D01*
X526100Y-101033D01*
X525750Y-101367D01*
X525342Y-101567D01*
X523883D01*
G01X525342D02*
X526217Y-103500D01*
G01X531017D02*
X528683D01*
Y-99500D01*
X531017D01*
G01X530083Y-101433D02*
X528683D01*
G01X535817Y-103500D02*
X533483D01*
Y-99500D01*
X535817D01*
G01X534883Y-101433D02*
X533483D01*
G01X538225Y-102967D02*
X538692Y-103300D01*
X539217Y-103500D01*
X539683D01*
X540150Y-103300D01*
X540500Y-102967D01*
X540675Y-102500D01*
X540558Y-102033D01*
X540267Y-101633D01*
X539742Y-101367D01*
X539042Y-101233D01*
X538633Y-100967D01*
X538458Y-100500D01*
X538575Y-100033D01*
X538867Y-99700D01*
X539275Y-99500D01*
X539683D01*
X540092Y-99633D01*
X540442Y-99967D01*
G01X545533Y-99833D02*
X545183Y-99633D01*
X544775Y-99500D01*
X544308D01*
X543783Y-99700D01*
X543375Y-100033D01*
X543083Y-100433D01*
X542850Y-101100D01*
X542792Y-101700D01*
X542908Y-102300D01*
X543083Y-102700D01*
X543433Y-103100D01*
X543842Y-103367D01*
X544250Y-103500D01*
X544658D01*
X545067Y-103367D01*
X545417Y-103167D01*
X545708Y-102900D01*
G01X547592Y-103500D02*
X549050Y-99500D01*
X550508Y-103500D01*
G01X549983Y-102100D02*
X548117D01*
G01X552683Y-99500D02*
Y-103500D01*
X555017D01*
G01X559817D02*
X557483D01*
Y-99500D01*
X559817D01*
G01X558883Y-101433D02*
X557483D01*
G01X567550Y-99500D02*
X568950D01*
G01X568250D02*
Y-103500D01*
G01X567550D02*
X568950D01*
G01X571708D02*
Y-99500D01*
X574392Y-103500D01*
Y-99500D01*
G01X577850D02*
Y-103500D01*
G01X576508Y-99500D02*
X579192D01*
G01X583817Y-103500D02*
X581483D01*
Y-99500D01*
X583817D01*
G01X582883Y-101433D02*
X581483D01*
G01X586283Y-103500D02*
Y-99500D01*
X587742D01*
X588208Y-99700D01*
X588500Y-99967D01*
X588617Y-100500D01*
X588500Y-101033D01*
X588150Y-101367D01*
X587742Y-101567D01*
X586283D01*
G01X587742D02*
X588617Y-103500D01*
G01X590908D02*
Y-99500D01*
X593592Y-103500D01*
Y-99500D01*
G01X595592Y-103500D02*
X597050Y-99500D01*
X598508Y-103500D01*
G01X597983Y-102100D02*
X596117D01*
G01X600683Y-99500D02*
Y-103500D01*
X603017D01*
G01X610167Y-99500D02*
Y-102367D01*
X610400Y-102967D01*
X610867Y-103367D01*
X611450Y-103500D01*
X612033Y-103367D01*
X612500Y-102967D01*
X612733Y-102367D01*
Y-99500D01*
G01X615025Y-102967D02*
X615492Y-103300D01*
X616017Y-103500D01*
X616483D01*
X616950Y-103300D01*
X617300Y-102967D01*
X617475Y-102500D01*
X617358Y-102033D01*
X617067Y-101633D01*
X616542Y-101367D01*
X615842Y-101233D01*
X615433Y-100967D01*
X615258Y-100500D01*
X615375Y-100033D01*
X615667Y-99700D01*
X616075Y-99500D01*
X616483D01*
X616892Y-99633D01*
X617242Y-99967D01*
G01X622217Y-103500D02*
X619883D01*
Y-99500D01*
X622217D01*
G01X621283Y-101433D02*
X619883D01*
G01X630650Y-103500D02*
X630183Y-103433D01*
X629775Y-103167D01*
X629425Y-102767D01*
X629192Y-102300D01*
X629075Y-101767D01*
Y-101233D01*
X629192Y-100700D01*
X629425Y-100233D01*
X629775Y-99833D01*
X630183Y-99567D01*
X630650Y-99500D01*
X631117Y-99567D01*
X631525Y-99833D01*
X631875Y-100233D01*
X632108Y-100700D01*
X632225Y-101233D01*
Y-101767D01*
X632108Y-102300D01*
X631875Y-102767D01*
X631525Y-103167D01*
X631117Y-103433D01*
X630650Y-103500D01*
G01X634108D02*
Y-99500D01*
X636792Y-103500D01*
Y-99500D01*
G01X639083D02*
Y-103500D01*
X641417D01*
G01X645050D02*
Y-101700D01*
X643883Y-99500D01*
G01X646217D02*
X645050Y-101700D01*
G01X650142Y-104833D02*
X650725Y-104167D01*
X651017Y-103500D01*
Y-100833D01*
X650725Y-100167D01*
X650142Y-99500D01*
G01X470500Y-88833D02*
X474000D01*
G01X475300D02*
X478800D01*
G01X480100D02*
X483600D01*
G01X490283Y-87500D02*
Y-83500D01*
X491683D01*
X492150Y-83700D01*
X492500Y-84167D01*
X492617Y-84700D01*
X492500Y-85233D01*
X492208Y-85633D01*
X491683Y-85833D01*
X490283D01*
G01X494967Y-83500D02*
Y-86367D01*
X495200Y-86967D01*
X495667Y-87367D01*
X496250Y-87500D01*
X496833Y-87367D01*
X497300Y-86967D01*
X497533Y-86367D01*
Y-83500D01*
G01X501517Y-85367D02*
X501750Y-85167D01*
X501925Y-84833D01*
X502042Y-84367D01*
X501925Y-83967D01*
X501692Y-83700D01*
X501283Y-83500D01*
X499708D01*
Y-87500D01*
X501633D01*
X502042Y-87233D01*
X502275Y-86833D01*
X502392Y-86367D01*
X502275Y-85900D01*
X501925Y-85500D01*
X501517Y-85367D01*
X499708D01*
G01X505150Y-83500D02*
X506550D01*
G01X505850D02*
Y-87500D01*
G01X505150D02*
X506550D01*
G01X515158Y-88833D02*
X514575Y-88167D01*
X514283Y-87500D01*
Y-84833D01*
X514575Y-84167D01*
X515158Y-83500D01*
G01X519083Y-87500D02*
Y-83500D01*
X520483D01*
X520950Y-83700D01*
X521300Y-84167D01*
X521417Y-84700D01*
X521300Y-85233D01*
X521008Y-85633D01*
X520483Y-85833D01*
X519083D01*
G01X523767Y-83500D02*
Y-86367D01*
X524000Y-86967D01*
X524467Y-87367D01*
X525050Y-87500D01*
X525633Y-87367D01*
X526100Y-86967D01*
X526333Y-86367D01*
Y-83500D01*
G01X530317Y-85367D02*
X530550Y-85167D01*
X530725Y-84833D01*
X530842Y-84367D01*
X530725Y-83967D01*
X530492Y-83700D01*
X530083Y-83500D01*
X528508D01*
Y-87500D01*
X530433D01*
X530842Y-87233D01*
X531075Y-86833D01*
X531192Y-86367D01*
X531075Y-85900D01*
X530725Y-85500D01*
X530317Y-85367D01*
X528508D01*
G01X533483Y-83500D02*
Y-87500D01*
X535817D01*
G01X538750Y-83500D02*
X540150D01*
G01X539450D02*
Y-87500D01*
G01X538750D02*
X540150D01*
G01X545533Y-83833D02*
X545183Y-83633D01*
X544775Y-83500D01*
X544308D01*
X543783Y-83700D01*
X543375Y-84033D01*
X543083Y-84433D01*
X542850Y-85100D01*
X542792Y-85700D01*
X542908Y-86300D01*
X543083Y-86700D01*
X543433Y-87100D01*
X543842Y-87367D01*
X544250Y-87500D01*
X544658D01*
X545067Y-87367D01*
X545417Y-87167D01*
X545708Y-86900D01*
G01X553150Y-83500D02*
X554550D01*
G01X553850D02*
Y-87500D01*
G01X553150D02*
X554550D01*
G01X557308D02*
Y-83500D01*
X559992Y-87500D01*
Y-83500D01*
G01X562342Y-87500D02*
Y-83500D01*
X564558D01*
G01X563742Y-85433D02*
X562342D01*
G01X568250Y-87500D02*
X567783Y-87433D01*
X567375Y-87167D01*
X567025Y-86767D01*
X566792Y-86300D01*
X566675Y-85767D01*
Y-85233D01*
X566792Y-84700D01*
X567025Y-84233D01*
X567375Y-83833D01*
X567783Y-83567D01*
X568250Y-83500D01*
X568717Y-83567D01*
X569125Y-83833D01*
X569475Y-84233D01*
X569708Y-84700D01*
X569825Y-85233D01*
Y-85767D01*
X569708Y-86300D01*
X569475Y-86767D01*
X569125Y-87167D01*
X568717Y-87433D01*
X568250Y-87500D01*
G01X571883D02*
Y-83500D01*
X573342D01*
X573808Y-83700D01*
X574100Y-83967D01*
X574217Y-84500D01*
X574100Y-85033D01*
X573750Y-85367D01*
X573342Y-85567D01*
X571883D01*
G01X573342D02*
X574217Y-87500D01*
G01X576333D02*
Y-83500D01*
X577850Y-86833D01*
X579367Y-83500D01*
Y-87500D01*
G01X581192D02*
X582650Y-83500D01*
X584108Y-87500D01*
G01X583583Y-86100D02*
X581717D01*
G01X587450Y-83500D02*
Y-87500D01*
G01X586108Y-83500D02*
X588792D01*
G01X591550D02*
X592950D01*
G01X592250D02*
Y-87500D01*
G01X591550D02*
X592950D01*
G01X597050D02*
X596583Y-87433D01*
X596175Y-87167D01*
X595825Y-86767D01*
X595592Y-86300D01*
X595475Y-85767D01*
Y-85233D01*
X595592Y-84700D01*
X595825Y-84233D01*
X596175Y-83833D01*
X596583Y-83567D01*
X597050Y-83500D01*
X597517Y-83567D01*
X597925Y-83833D01*
X598275Y-84233D01*
X598508Y-84700D01*
X598625Y-85233D01*
Y-85767D01*
X598508Y-86300D01*
X598275Y-86767D01*
X597925Y-87167D01*
X597517Y-87433D01*
X597050Y-87500D01*
G01X600508D02*
Y-83500D01*
X603192Y-87500D01*
Y-83500D01*
G01X606942Y-88833D02*
X607525Y-88167D01*
X607817Y-87500D01*
Y-84833D01*
X607525Y-84167D01*
X606942Y-83500D01*
G01X460908Y-55500D02*
Y-51500D01*
X463592Y-55500D01*
Y-51500D01*
G01X465592Y-55500D02*
X467050Y-51500D01*
X468508Y-55500D01*
G01X467983Y-54100D02*
X466117D01*
G01X470333Y-55500D02*
Y-51500D01*
X471850Y-54833D01*
X473367Y-51500D01*
Y-55500D01*
G01X477817D02*
X475483D01*
Y-51500D01*
X477817D01*
G01X476883Y-53433D02*
X475483D01*
G01X510908Y-135500D02*
Y-131500D01*
X513592Y-135500D01*
Y-131500D01*
G01X515767D02*
Y-134367D01*
X516000Y-134967D01*
X516467Y-135367D01*
X517050Y-135500D01*
X517633Y-135367D01*
X518100Y-134967D01*
X518333Y-134367D01*
Y-131500D01*
G01X520333Y-135500D02*
Y-131500D01*
X521850Y-134833D01*
X523367Y-131500D01*
Y-135500D01*
G01X527117Y-133367D02*
X527350Y-133167D01*
X527525Y-132833D01*
X527642Y-132367D01*
X527525Y-131967D01*
X527292Y-131700D01*
X526883Y-131500D01*
X525308D01*
Y-135500D01*
X527233D01*
X527642Y-135233D01*
X527875Y-134833D01*
X527992Y-134367D01*
X527875Y-133900D01*
X527525Y-133500D01*
X527117Y-133367D01*
X525308D01*
G01X532617Y-135500D02*
X530283D01*
Y-131500D01*
X532617D01*
G01X531683Y-133433D02*
X530283D01*
G01X535083Y-135500D02*
Y-131500D01*
X536542D01*
X537008Y-131700D01*
X537300Y-131967D01*
X537417Y-132500D01*
X537300Y-133033D01*
X536950Y-133367D01*
X536542Y-133567D01*
X535083D01*
G01X536542D02*
X537417Y-135500D01*
G01X545850Y-142500D02*
Y-136200D01*
X544910Y-137460D01*
G01Y-142500D02*
X546790D01*
G01X551993D02*
X552150Y-141135D01*
X552385Y-139980D01*
X552698Y-138930D01*
X553090Y-137775D01*
X553717Y-136200D01*
X550583D01*
G01X558450D02*
X557823Y-136410D01*
X557353Y-136935D01*
X557040Y-137565D01*
X556805Y-138405D01*
X556727Y-139350D01*
X556805Y-140295D01*
X557040Y-141135D01*
X557353Y-141765D01*
X557823Y-142290D01*
X558450Y-142500D01*
X559077Y-142290D01*
X559547Y-141765D01*
X559860Y-141135D01*
X560095Y-140295D01*
X560173Y-139350D01*
X560095Y-138405D01*
X559860Y-137565D01*
X559547Y-136935D01*
X559077Y-136410D01*
X558450Y-136200D01*
G01X563732Y-140400D02*
X565768D01*
G01X569562Y-137250D02*
X570032Y-136620D01*
X570580Y-136305D01*
X571207Y-136200D01*
X571990Y-136410D01*
X572538Y-136935D01*
X572695Y-137565D01*
X572617Y-138195D01*
X572303Y-138720D01*
X570737Y-139770D01*
X570032Y-140505D01*
X569562Y-141555D01*
X569405Y-142500D01*
X572695D01*
G01X577193D02*
X577350Y-141135D01*
X577585Y-139980D01*
X577898Y-138930D01*
X578290Y-137775D01*
X578917Y-136200D01*
X575783D01*
G01X581927Y-141240D02*
X582397Y-141975D01*
X583023Y-142395D01*
X583728Y-142500D01*
X584355Y-142395D01*
X584982Y-141870D01*
X585373Y-141240D01*
X585452Y-140610D01*
X585295Y-139875D01*
X584747Y-139350D01*
X584198Y-139140D01*
X583493D01*
G01X584198D02*
X584668Y-138825D01*
X585060Y-138300D01*
X585217Y-137670D01*
X585060Y-137040D01*
X584668Y-136515D01*
X583963Y-136200D01*
X583258Y-136305D01*
X582553Y-136725D01*
G01X588618Y-141765D02*
X589167Y-142290D01*
X589793Y-142500D01*
X590420Y-142290D01*
X590968Y-141660D01*
X591360Y-140715D01*
X591517Y-139770D01*
Y-138615D01*
X591360Y-137670D01*
X590968Y-136830D01*
X590498Y-136410D01*
X589950Y-136200D01*
X589323Y-136410D01*
X588853Y-136830D01*
X588540Y-137460D01*
X588383Y-138300D01*
X588540Y-139035D01*
X588932Y-139770D01*
X589402Y-140190D01*
X589950Y-140295D01*
X590577Y-140085D01*
X591047Y-139560D01*
X591517Y-138615D01*
G01X594762Y-137250D02*
X595232Y-136620D01*
X595780Y-136305D01*
X596407Y-136200D01*
X597190Y-136410D01*
X597738Y-136935D01*
X597895Y-137565D01*
X597817Y-138195D01*
X597503Y-138720D01*
X595937Y-139770D01*
X595232Y-140505D01*
X594762Y-141555D01*
X594605Y-142500D01*
X597895D01*
G01X638783D02*
Y-136200D01*
X640742D01*
X641368Y-136515D01*
X641760Y-136935D01*
X641917Y-137775D01*
X641760Y-138615D01*
X641290Y-139140D01*
X640742Y-139455D01*
X638783D01*
G01X640742D02*
X641917Y-142500D01*
G01X648217D02*
X645083D01*
Y-136200D01*
X648217D01*
G01X646963Y-139245D02*
X645083D01*
G01X650992Y-136200D02*
X652950Y-142500D01*
X654908Y-136200D01*
G01X667273Y-136725D02*
X666803Y-136410D01*
X666255Y-136200D01*
X665628D01*
X664923Y-136515D01*
X664375Y-137040D01*
X663983Y-137670D01*
X663670Y-138720D01*
X663592Y-139665D01*
X663748Y-140610D01*
X663983Y-141240D01*
X664453Y-141870D01*
X665002Y-142290D01*
X665550Y-142500D01*
X666098D01*
X666647Y-142290D01*
X667117Y-141975D01*
X667508Y-141555D01*
G01X545813Y-69500D02*
Y-63200D01*
X547850Y-68450D01*
X549887Y-63200D01*
Y-69500D01*
G01X555873Y-63725D02*
X555403Y-63410D01*
X554855Y-63200D01*
X554228D01*
X553523Y-63515D01*
X552975Y-64040D01*
X552583Y-64670D01*
X552270Y-65720D01*
X552192Y-66665D01*
X552348Y-67610D01*
X552583Y-68240D01*
X553053Y-68870D01*
X553602Y-69290D01*
X554150Y-69500D01*
X554698D01*
X555247Y-69290D01*
X555717Y-68975D01*
X556108Y-68555D01*
G01X559510Y-63200D02*
X561390D01*
G01X560450D02*
Y-69500D01*
G01X559510D02*
X561390D01*
G01X564713D02*
Y-63200D01*
X566750Y-68450D01*
X568787Y-63200D01*
Y-69500D01*
G01X571405D02*
X574695Y-63200D01*
G01X571405D02*
X574695Y-69500D01*
G01X577862Y-66875D02*
X578410Y-66140D01*
X578880Y-65720D01*
X579507Y-65510D01*
X580055Y-65720D01*
X580447Y-66140D01*
X580760Y-66770D01*
X580838Y-67505D01*
X580760Y-68135D01*
X580447Y-68765D01*
X579977Y-69290D01*
X579428Y-69500D01*
X578802Y-69290D01*
X578253Y-68660D01*
X577940Y-67715D01*
X577862Y-66665D01*
X578018Y-65300D01*
X578253Y-64565D01*
X578645Y-63830D01*
X579193Y-63305D01*
X579742Y-63200D01*
X580290Y-63410D01*
X580682Y-63935D01*
G01X583300Y-71600D02*
X588000D01*
G01X590305Y-68660D02*
X590932Y-69185D01*
X591637Y-69500D01*
X592263D01*
X592890Y-69185D01*
X593360Y-68660D01*
X593595Y-67925D01*
X593438Y-67190D01*
X593047Y-66560D01*
X592342Y-66140D01*
X591402Y-65930D01*
X590853Y-65510D01*
X590618Y-64775D01*
X590775Y-64040D01*
X591167Y-63515D01*
X591715Y-63200D01*
X592263D01*
X592812Y-63410D01*
X593282Y-63935D01*
G01X596527Y-69500D02*
Y-63200D01*
X598093D01*
X598720Y-63515D01*
X599190Y-63935D01*
X599582Y-64565D01*
X599895Y-65300D01*
X599973Y-66350D01*
X599895Y-67400D01*
X599582Y-68135D01*
X599190Y-68765D01*
X598720Y-69185D01*
X598093Y-69500D01*
X596527D01*
G54D113*
X288070Y544545D03*
X327470Y85945D03*
G54D11*
X4763Y20500D03*
X-5737Y679500D03*
G54D104*
X242521Y508073D03*
X240553D03*
X238584D03*
X236616D03*
X234647D03*
X232679D03*
X230710D03*
X228742D03*
X226773D03*
X224805D03*
X242521Y506105D03*
X240553D03*
X238584D03*
X236616D03*
X234647D03*
X232679D03*
X230710D03*
X228742D03*
X226773D03*
X224805D03*
Y498231D03*
X226773Y494294D03*
X240553Y492325D03*
X234647D03*
X230710D03*
X242521Y529727D03*
X240553D03*
X238584D03*
X236616D03*
X234647D03*
X232679D03*
X230710D03*
X228742D03*
X226773D03*
X224805D03*
X242521Y527758D03*
X240553D03*
X238584D03*
X236616D03*
X234647D03*
X232679D03*
X230710D03*
X228742D03*
X226773D03*
X224805D03*
X230710Y512010D03*
X228742Y525790D03*
X226773D03*
X224805D03*
X242521Y523821D03*
X240553D03*
X238584D03*
X236616D03*
X234647D03*
X232679D03*
X228742D03*
X226773D03*
X224805D03*
X242521Y521853D03*
X232679D03*
X228742D03*
X226773D03*
X224805D03*
X242521Y519884D03*
X232679D03*
X228742D03*
X226773D03*
X224805D03*
X242521Y517916D03*
X232679D03*
X228742D03*
X226773D03*
X224805D03*
X242521Y515947D03*
X232679D03*
X228742D03*
X226773D03*
X224805D03*
X242521Y513979D03*
X240553D03*
X238584D03*
X236616D03*
X234647D03*
X232679D03*
X228742D03*
X226773D03*
X224805D03*
X228742Y512010D03*
X226773D03*
X224805D03*
X242521Y510042D03*
X240553D03*
X238584D03*
X236616D03*
X234647D03*
X232679D03*
X230710D03*
X228742D03*
X226773D03*
X224805D03*
X240553Y545475D03*
X234647D03*
X230710D03*
X226773Y543506D03*
X224805Y539569D03*
X242521Y531695D03*
X240553D03*
X238584D03*
X236616D03*
X234647D03*
X232679D03*
X230710D03*
X228742D03*
X226773D03*
X224805D03*
X250395Y508073D03*
X248427D03*
X246458D03*
X244490D03*
X250395Y506105D03*
X248427D03*
X246458D03*
X244490D03*
X250395Y498231D03*
X248427Y494294D03*
X244490Y492325D03*
X250395Y529727D03*
X248427D03*
X246458D03*
X244490D03*
X250395Y527758D03*
X248427D03*
X246458D03*
X244490D03*
X250395Y525790D03*
X248427D03*
X246458D03*
X250395Y523821D03*
X248427D03*
X246458D03*
X250395Y521853D03*
X248427D03*
X246458D03*
X250395Y519884D03*
X248427D03*
X246458D03*
X250395Y517916D03*
X248427D03*
X246458D03*
X250395Y515947D03*
X248427D03*
X246458D03*
X250395Y513979D03*
X248427D03*
X246458D03*
X250395Y512010D03*
X248427D03*
X246458D03*
X250395Y510042D03*
X248427D03*
X246458D03*
X244490D03*
Y545475D03*
X248427Y543506D03*
X250395Y539569D03*
Y531695D03*
X248427D03*
X246458D03*
X244490D03*
G54D20*
X1587Y87245D03*
X65052D03*
X80288D03*
X143753D03*
G54D12*
X-6791Y32352D03*
Y61092D03*
Y351308D03*
Y380048D03*
G54D114*
X299470Y337256D03*
Y335287D03*
Y333319D03*
Y331350D03*
Y329382D03*
Y327413D03*
Y325445D03*
Y356941D03*
Y354972D03*
Y353004D03*
Y351035D03*
Y349067D03*
Y347098D03*
Y345130D03*
Y343161D03*
Y341193D03*
Y339224D03*
Y378594D03*
Y376626D03*
Y374657D03*
Y372689D03*
Y370720D03*
Y368752D03*
Y366783D03*
Y364815D03*
Y362846D03*
Y360878D03*
Y358909D03*
Y382531D03*
Y380563D03*
Y421901D03*
Y419933D03*
Y417964D03*
Y415996D03*
Y414027D03*
Y412059D03*
Y410090D03*
Y408122D03*
Y406153D03*
Y404185D03*
Y443555D03*
Y441586D03*
Y439618D03*
Y437649D03*
Y435681D03*
Y433712D03*
Y431744D03*
Y429775D03*
Y427807D03*
Y425838D03*
Y423870D03*
Y461271D03*
Y459303D03*
Y457334D03*
Y455366D03*
Y453397D03*
Y451429D03*
Y449460D03*
Y447492D03*
Y445523D03*
X321990Y337256D03*
Y335287D03*
Y333319D03*
Y331350D03*
Y329382D03*
Y327413D03*
Y325445D03*
Y356941D03*
Y354972D03*
Y353004D03*
Y351035D03*
Y349067D03*
Y347098D03*
Y345130D03*
Y343161D03*
Y341193D03*
Y339224D03*
Y364815D03*
Y378594D03*
Y376626D03*
Y374657D03*
Y372689D03*
Y370720D03*
Y368752D03*
Y366783D03*
Y362846D03*
Y360878D03*
Y358909D03*
Y382531D03*
Y380563D03*
Y421901D03*
Y419933D03*
Y417964D03*
Y415996D03*
Y414027D03*
Y412059D03*
Y410090D03*
Y408122D03*
Y406153D03*
Y404185D03*
Y443555D03*
Y441586D03*
Y439618D03*
Y437649D03*
Y435681D03*
Y433712D03*
Y431744D03*
Y429775D03*
Y427807D03*
Y425838D03*
Y423870D03*
Y461271D03*
Y459303D03*
Y457334D03*
Y455366D03*
Y453397D03*
Y451429D03*
Y449460D03*
Y447492D03*
Y445523D03*
G54D105*
X235225Y637754D03*
X238375D03*
Y644446D03*
X235225D03*
G54D30*
X-990Y560701D03*
Y607701D03*
X18695Y560701D03*
Y607701D03*
G54D21*
X-5255Y86745D03*
X4757Y91743D03*
X-1000Y124437D03*
X-7500Y398000D03*
X-3500Y397500D03*
X-500D03*
X3000Y535845D03*
X3500Y636600D03*
X9000Y87245D03*
X20505Y82495D03*
X26410Y82410D03*
X8694Y82306D03*
X15500Y92000D03*
X21500Y91500D03*
X28379D03*
X8694Y91806D03*
X26410Y105410D03*
X14000Y109000D03*
X17000D03*
X24000Y322000D03*
Y332000D03*
X22400Y370900D03*
X7996Y370796D03*
X10440Y360560D03*
X19400Y379900D03*
X8000Y360560D03*
X24459Y394341D03*
X8000Y382949D03*
X16400Y383400D03*
X16000Y423118D03*
Y419000D03*
Y415500D03*
X15949Y458551D03*
X15740Y446740D03*
X15862Y470362D03*
X16400Y498524D03*
X16386Y495200D03*
X6941Y633059D03*
X44127Y69500D03*
X33500Y87245D03*
X38221Y82279D03*
X32316Y82316D03*
X43022Y92000D03*
X50000Y91500D03*
X48500Y115500D03*
X30000Y309500D03*
X33000D03*
X36500Y322000D03*
X36000Y332000D03*
X36500Y327000D03*
X35900Y398330D03*
X32775Y385000D03*
X32501Y402580D03*
X34900Y546800D03*
X32000Y534500D03*
X45600Y571400D03*
X33500Y555000D03*
X48500Y679000D03*
Y666500D03*
Y671500D03*
Y686500D03*
X51500Y69000D03*
X58000Y87245D03*
X61843Y82500D03*
X55938Y82438D03*
X56000Y115500D03*
X50032Y105468D03*
X64500Y151835D03*
X64902Y181402D03*
X65059Y175941D03*
X65000Y171520D03*
X51500Y309350D03*
X63500Y571600D03*
X53177Y587077D03*
X65163Y637437D03*
X69100Y637500D03*
X57400Y641441D03*
X52500Y671500D03*
Y666500D03*
X56000Y679000D03*
X56500Y666500D03*
Y671500D03*
Y686500D03*
X52500D03*
X86500Y33500D03*
X82500D03*
X90500D03*
X80500Y23500D03*
X85480D03*
X90000D03*
X80000Y44480D03*
X90480Y53980D03*
X85480D03*
X80480Y54000D03*
X85465Y69535D03*
X80500Y64000D03*
X90500D03*
X72500Y87245D03*
X87500D03*
X83497Y82497D03*
X92500Y91500D03*
X88500D03*
X75000Y128500D03*
X76000Y201000D03*
Y191000D03*
X87949Y353700D03*
X91153D03*
X87000Y456000D03*
X78800Y487100D03*
X86100Y497200D03*
X91200Y502200D03*
X86500Y565700D03*
X81500Y588800D03*
X72100Y617000D03*
X73700Y606000D03*
X75600Y629500D03*
Y634500D03*
Y624500D03*
X106500Y33500D03*
X102500D03*
X114500D03*
X94500D03*
X110500D03*
X105520Y23500D03*
X110520D03*
X100520D03*
X95000D03*
X100020Y44480D03*
X97200Y50900D03*
X95480Y53980D03*
X112020D03*
X107020D03*
X102020D03*
X112000Y64000D03*
Y87245D03*
X100602Y353700D03*
X94302D03*
X97905Y346805D03*
X103251Y353651D03*
X97301Y353549D03*
X100300Y456910D03*
X94900Y479800D03*
X112500Y508500D03*
X94500Y498500D03*
X101200Y505200D03*
X97500Y498500D03*
X113000Y496000D03*
X112500Y518500D03*
Y513500D03*
Y523500D03*
X100000Y521500D03*
X100500Y511500D03*
X112200Y529700D03*
X103400Y544100D03*
X108500Y536000D03*
Y533000D03*
X112200Y539300D03*
X115520Y23500D03*
X116980Y49520D03*
X117020Y53980D03*
X122000Y39500D03*
X127000D03*
X132000D03*
X126650Y63350D03*
X117000Y64000D03*
X132000Y63500D03*
X122000D03*
X136000Y87245D03*
X126000Y247000D03*
X132500Y261500D03*
X127500Y305500D03*
X117500Y320000D03*
Y323500D03*
X121000Y341000D03*
Y338000D03*
X128005Y348250D03*
X127100Y456375D03*
X135000Y487500D03*
X125600Y492900D03*
X125700Y489200D03*
X129100Y498615D03*
X129200Y504520D03*
X127200D03*
X127015Y498615D03*
X125500Y500700D03*
X125546Y496546D03*
X125000Y503200D03*
X128916Y491355D03*
X127500Y526000D03*
X128500Y510500D03*
X127500Y512500D03*
X127969Y516331D03*
X130000Y522476D03*
X124000Y541900D03*
X124500Y551500D03*
X135200Y548200D03*
X134000Y561500D03*
X124500D03*
X135200Y555800D03*
X131600Y614400D03*
X127400Y610300D03*
X131600D03*
Y606200D03*
X135700Y610300D03*
X120600Y605800D03*
Y608500D03*
X128300Y599300D03*
X125300D03*
X124676Y618076D03*
X129800Y621300D03*
X132300D03*
X129800Y625000D03*
Y628600D03*
X132900D03*
X127600Y662900D03*
X126800Y675100D03*
X126700Y683000D03*
X122800Y682500D03*
X115800D03*
X137000Y39500D03*
X142000D03*
X147000D03*
X152000D03*
X157000D03*
X147000Y64000D03*
X152000Y68000D03*
X142000Y64500D03*
X137000Y64000D03*
X150755Y87245D03*
X152500Y141500D03*
Y138000D03*
X154000Y134500D03*
X157200D03*
X154500Y148000D03*
X152500Y145000D03*
X153000Y171500D03*
X146860Y457500D03*
X139840Y453000D03*
X138700Y472200D03*
X152448Y488052D03*
X150480Y485000D03*
X143000Y486000D03*
X148511Y487000D03*
X138669Y487100D03*
X147500Y502500D03*
X152500Y507500D03*
X157500Y497500D03*
X147500D03*
X137500D03*
X157500Y507500D03*
X147500D03*
X137500D03*
X142500D03*
X145543Y488700D03*
X148511Y489000D03*
X138669Y489100D03*
X147500Y512500D03*
X157500Y517500D03*
X147500D03*
X137500D03*
X144574Y525800D03*
X150480Y526000D03*
Y528000D03*
X142606Y529394D03*
X144274Y527826D03*
X136700Y526300D03*
X155000Y527100D03*
X138669Y529331D03*
X156885Y529885D03*
X140637Y527363D03*
X153100Y529200D03*
X139000Y538500D03*
X146500Y543500D03*
X150100Y546200D03*
X144800Y548200D03*
Y555800D03*
X138500Y559500D03*
X141500D03*
X142400Y600300D03*
X144600Y669900D03*
X147200Y666300D03*
X147100Y682300D03*
X139333Y662000D03*
X147100Y674000D03*
X160500Y134300D03*
X165600D03*
X169100Y134500D03*
X172500D03*
X172600Y137700D03*
Y141200D03*
X158300Y161420D03*
X158500Y158000D03*
X158600Y154400D03*
X158000Y148000D03*
X172600Y144700D03*
X172000Y148000D03*
X168000D03*
Y151500D03*
X167500Y155000D03*
X167800Y158500D03*
X164500Y172500D03*
X167900Y168000D03*
X158300Y168420D03*
X162900Y169300D03*
X165800D03*
X158300Y164920D03*
X163000Y269200D03*
X168000Y283000D03*
X169559Y281441D03*
X166705Y354505D03*
X175500Y447500D03*
X174290Y459000D03*
X179300Y447791D03*
X172000Y481500D03*
X160465Y484000D03*
X160500Y480500D03*
X166000Y502552D03*
X166035Y490005D03*
X160154Y488400D03*
X166000Y506494D03*
X168500D03*
X170500Y494500D03*
X170000Y489500D03*
X176000Y521500D03*
Y515300D03*
X166100Y516531D03*
X166000Y512394D03*
X168016Y517900D03*
X168494Y512394D03*
X159354Y527354D03*
X167500Y522000D03*
X161000Y536000D03*
X170300Y546800D03*
Y537200D03*
X174000Y540500D03*
Y543500D03*
X169500Y556500D03*
X159500D03*
X179400Y628300D03*
Y625600D03*
X197000Y33500D03*
Y26000D03*
Y18500D03*
Y56000D03*
Y48500D03*
Y41000D03*
Y71000D03*
Y63500D03*
Y93500D03*
Y86000D03*
Y78500D03*
Y108500D03*
Y101000D03*
Y116000D03*
X196500Y307000D03*
X195600Y345400D03*
X187000Y357000D03*
X194000Y356500D03*
X179846Y458630D03*
X200851Y447500D03*
X188660Y461604D03*
X192375Y461517D03*
X188000Y447500D03*
X192118Y447000D03*
X200500Y455500D03*
X184000Y488000D03*
X200000Y471000D03*
X182500Y500500D03*
Y508000D03*
X194500Y497900D03*
X195000Y507500D03*
X185000Y524500D03*
X181500D03*
X196200Y521000D03*
Y518000D03*
X192500Y524300D03*
Y514700D03*
X182500Y548000D03*
Y538000D03*
X187500Y541500D03*
Y537500D03*
X179500Y556500D03*
X189600Y617000D03*
X186100D03*
X185976Y639176D03*
X192900Y631400D03*
Y635500D03*
Y627300D03*
X197000Y631400D03*
X188700D03*
X181900Y626900D03*
Y629600D03*
X186100Y620400D03*
X189600D03*
X191100Y646100D03*
Y649700D03*
X194200D03*
X191100Y642400D03*
X193600D03*
X204500Y26000D03*
X212000D03*
X219500D03*
X204500Y18500D03*
X212000D03*
X219500D03*
X204500Y41000D03*
X212000D03*
X219500D03*
X204500Y56000D03*
X212000D03*
X219500D03*
X204500Y71000D03*
X212000D03*
X219500D03*
X204500Y86000D03*
X212000D03*
X219500D03*
X204500Y101000D03*
X212000D03*
X219500D03*
X204500Y116000D03*
X212000D03*
X219500D03*
X201500Y306865D03*
X211380Y346500D03*
X211500Y358100D03*
X203811Y458459D03*
X220500Y460500D03*
X209536Y447314D03*
X210000Y456410D03*
X203811Y461000D03*
X204474Y447500D03*
X215000Y558500D03*
X217900Y634200D03*
X203100Y621000D03*
X221600Y627600D03*
Y632100D03*
X217900Y629700D03*
X234500Y26000D03*
X242000D03*
X227000D03*
X234500Y18500D03*
X242000D03*
X227000D03*
X234500Y41000D03*
X242000D03*
X227000D03*
X234500Y56000D03*
X242000D03*
X227000D03*
X234500Y71000D03*
X242000D03*
X227000D03*
X234500Y86000D03*
X242000D03*
X227000D03*
X234500Y101000D03*
X242000D03*
X227000D03*
X234500Y116000D03*
X242000D03*
X227000D03*
X240900Y394400D03*
X241941Y419505D03*
X242500Y411250D03*
X241941Y426150D03*
X234500Y459000D03*
X231000Y460082D03*
X234000Y446900D03*
X229100Y447000D03*
X226500Y460305D03*
X224300Y447000D03*
X235306Y477273D03*
X230000Y487500D03*
X227000D03*
X243599Y477999D03*
X241500Y487100D03*
X231700Y551600D03*
X226600D03*
X237400D03*
X229000Y573000D03*
X230500Y558500D03*
X243800Y578900D03*
X235841Y614200D03*
X232400Y634200D03*
X241000Y634100D03*
X236700Y650500D03*
X230000Y677000D03*
X249500Y26000D03*
X257000D03*
X264500D03*
X249500Y18500D03*
X257000D03*
X264500D03*
X249500Y41000D03*
X257000D03*
X264500D03*
X249500Y56000D03*
X257000D03*
X264500D03*
X249500Y71000D03*
X257000D03*
X264500D03*
X249500Y86000D03*
X257000D03*
X264500D03*
X249500Y101000D03*
X257000D03*
X264500D03*
X249500Y116000D03*
X257000D03*
X264500D03*
X263000Y167500D03*
X261000Y186500D03*
X246200Y389000D03*
X254264Y394929D03*
X264100Y406250D03*
X262500Y423000D03*
X245000Y419505D03*
X250000Y416500D03*
X252500Y412500D03*
X264632Y415132D03*
X246000Y426109D03*
X245500Y451700D03*
X255000Y449500D03*
X246000Y468200D03*
X247939Y559939D03*
X245500Y583700D03*
X258300Y585417D03*
X257913Y616913D03*
X244212Y603188D03*
X257988Y629512D03*
X259661Y632661D03*
X244700Y626362D03*
Y632500D03*
X245600Y651500D03*
X244700Y643526D03*
X250000Y675500D03*
X245500Y667307D03*
X259100Y666000D03*
X245543Y670457D03*
X287000Y26000D03*
X272000D03*
X279500D03*
X287000Y18500D03*
X272000D03*
X279500D03*
X287000Y41000D03*
X272000D03*
X279500D03*
X287000Y56000D03*
X272000D03*
X279500D03*
X287000Y71000D03*
X272000D03*
X279500D03*
X287000Y86000D03*
X272000D03*
X279500D03*
X287000Y101000D03*
X272000D03*
X279500D03*
X287000Y116000D03*
X272000D03*
X279500D03*
X271000Y154000D03*
Y164000D03*
X271500Y184000D03*
X266362Y167500D03*
X271500Y194000D03*
X268000Y186500D03*
X271500Y189000D03*
X269400Y209000D03*
X272200Y495000D03*
X274814Y494886D03*
X277200Y606159D03*
X268400Y614159D03*
X278000Y632500D03*
X277525Y624100D03*
X277000Y649984D03*
Y653134D03*
X294500Y26000D03*
X302000D03*
X294500Y18500D03*
X302000D03*
X294500Y41000D03*
X302000D03*
X294500Y56000D03*
X302000D03*
X294500Y71000D03*
X302000D03*
X294500Y86000D03*
X302000D03*
X294500Y101000D03*
X302000D03*
X294500Y116000D03*
X302000D03*
X306000Y278200D03*
X297500Y296000D03*
X289400Y332500D03*
X306000Y335287D03*
Y338000D03*
X293000Y342000D03*
X306000Y347500D03*
Y363500D03*
X306280Y370720D03*
X307500Y406000D03*
Y457000D03*
X295000Y470500D03*
X293500Y511800D03*
X302000Y616300D03*
X307000Y616700D03*
X307300Y628900D03*
X300500Y628200D03*
X298900Y645600D03*
X304400Y668600D03*
X309500Y33500D03*
Y26000D03*
Y18500D03*
Y41000D03*
Y56000D03*
Y48500D03*
Y71000D03*
Y63500D03*
Y93500D03*
Y86000D03*
Y78500D03*
Y108500D03*
Y101000D03*
Y116000D03*
X312000Y294000D03*
X313670Y305330D03*
X313730Y322000D03*
X310730Y330000D03*
X328500Y326300D03*
X310730Y378500D03*
X315441Y382500D03*
X310624Y394476D03*
X309760Y408070D03*
X310055Y432622D03*
X328200Y441586D03*
X310169Y457076D03*
X328200Y457334D03*
Y449460D03*
Y453397D03*
Y445523D03*
X310730Y471730D03*
X327234Y467834D03*
X330000Y531500D03*
X329498Y555700D03*
X345000Y221800D03*
X344000Y273800D03*
X348000Y273900D03*
X342600Y369000D03*
X347300Y373100D03*
X340325Y407500D03*
X340335Y411500D03*
X331100Y443555D03*
Y439618D03*
X334000Y444000D03*
Y440000D03*
X334025Y466525D03*
X334286Y454714D03*
X334277Y450777D03*
X331100Y451429D03*
Y447492D03*
Y455366D03*
X334349Y458651D03*
X334000Y462588D03*
X334160Y446840D03*
X334164Y478336D03*
X334353Y490147D03*
Y501958D03*
X333580Y525780D03*
X333517Y529517D03*
X333609Y537591D03*
X333546Y533454D03*
X358000Y365500D03*
Y368312D03*
X354480Y676480D03*
G54D31*
X6941Y636600D03*
X25368Y31422D03*
X20250D03*
X25941Y549500D03*
X24941Y555000D03*
Y560000D03*
X25441Y593000D03*
Y588000D03*
Y598000D03*
X24559Y614500D03*
X19441D03*
X12059Y636600D03*
X24559Y619500D03*
X19441D03*
X24559Y624500D03*
X19441D03*
X31059Y549500D03*
X30059Y555000D03*
Y560000D03*
X30559Y593000D03*
Y588000D03*
Y598000D03*
X70541Y541800D03*
X59041Y568300D03*
X64159D03*
X70441Y685500D03*
X75659Y541800D03*
X72941Y551000D03*
X78059D03*
X75559Y685500D03*
X108559Y509000D03*
X103441D03*
X108559Y519000D03*
X103441D03*
X108559Y524000D03*
X103441D03*
X108559Y514000D03*
X103441D03*
X115241Y594300D03*
X112241Y606100D03*
X116941Y500000D03*
X122059D03*
X116941Y506000D03*
X122059D03*
X117941Y512500D03*
X123059D03*
X128559Y536000D03*
X123441D03*
X120359Y594300D03*
X117359Y606100D03*
X121241Y624800D03*
X126359D03*
X121241Y630300D03*
X126359D03*
X135759Y667000D03*
X130641D03*
X135759Y672000D03*
X130641D03*
X139441Y551500D03*
X144559D03*
X150859Y590800D03*
X145741D03*
X151384Y596200D03*
X146266D03*
X151384Y601500D03*
X146266D03*
X151384Y606300D03*
X146266D03*
X150859Y616800D03*
X145741D03*
X150859Y611300D03*
X145741D03*
X177641Y400925D03*
X177559Y506000D03*
X172441D03*
X178059Y512000D03*
X172941D03*
X178459Y518300D03*
X173341D03*
X173441Y525000D03*
X178559D03*
X176541Y615400D03*
X171341Y627200D03*
X176459D03*
X182759Y400925D03*
X201041Y401026D03*
X191859Y400925D03*
X186741D03*
X186441Y494500D03*
X191559D03*
X186441Y500000D03*
X191559D03*
X186441Y505500D03*
X191559D03*
X186441Y510500D03*
X191559D03*
X181659Y615400D03*
X182541Y645900D03*
X187659D03*
X182541Y651400D03*
X187659D03*
X206159Y401026D03*
X215309Y401016D03*
X210191D03*
X212159Y611900D03*
X207041D03*
X212684Y617300D03*
X207566D03*
X212159Y637900D03*
X207041D03*
X212684Y622600D03*
X207566D03*
X212684Y627400D03*
X207566D03*
X212159Y632400D03*
X207041D03*
X242441Y401000D03*
Y406000D03*
X241941Y414200D03*
Y423000D03*
Y429500D03*
X263441Y199000D03*
X256659Y391500D03*
X251541D03*
X247559Y401000D03*
Y406000D03*
X247059Y414200D03*
Y423000D03*
Y429500D03*
X254359Y626600D03*
X249241D03*
X253941Y675500D03*
X259059D03*
X268559Y199000D03*
G54D106*
X264500Y182512D03*
Y171488D03*
X251600Y603188D03*
Y614212D03*
X251500Y632488D03*
Y643512D03*
G54D40*
X19054Y372475D03*
Y369325D03*
X25746D03*
Y372475D03*
X18654Y442375D03*
Y439225D03*
X25346D03*
Y442375D03*
X18654Y466075D03*
Y462925D03*
X25346D03*
Y466075D03*
X18654Y454275D03*
Y451125D03*
X25346D03*
Y454275D03*
X18654Y477875D03*
Y474725D03*
X25346D03*
Y477875D03*
X322846Y487925D03*
X316154D03*
X322846Y478925D03*
Y482075D03*
X316154D03*
Y478925D03*
X322846Y505925D03*
Y509075D03*
X316154D03*
Y505925D03*
X322846Y496925D03*
Y500075D03*
X316154D03*
Y496925D03*
X322846Y491075D03*
X316154D03*
G54D22*
X6900Y110800D03*
X17000Y531000D03*
X126300Y589300D03*
X147300Y627300D03*
X278815Y273941D03*
X320600Y684400D03*
X347600Y240100D03*
X344500Y406500D03*
G54D115*
X310730Y341508D03*
Y366508D03*
Y420208D03*
Y445208D03*
G54D13*
X-9000Y15000D03*
Y25000D03*
X-700Y20500D03*
X-9000Y73000D03*
Y66900D03*
X7000Y59500D03*
X-9000Y85000D03*
Y95000D03*
Y105000D03*
X-4743Y115243D03*
X-9000Y115500D03*
X7100Y105900D03*
X-9000Y125000D03*
Y135000D03*
X6500Y137496D03*
X500Y132996D03*
X-9000Y145000D03*
X1377Y151873D03*
X1287Y157783D03*
X1303Y163693D03*
X6500Y151996D03*
X-4780Y145216D03*
X1500Y149023D03*
X1483Y175513D03*
X1500Y181496D03*
X1393Y169603D03*
X6500Y174996D03*
X2987Y177283D03*
X3000Y179696D03*
Y183296D03*
Y185696D03*
X-9000Y207500D03*
X1343Y199153D03*
X1433Y205063D03*
X1337Y187333D03*
X1247Y193243D03*
X6500Y200496D03*
X2807Y189103D03*
X2723Y191473D03*
X2783Y195013D03*
X2813Y197383D03*
X2873Y200923D03*
X2903Y203293D03*
X-9000Y223000D03*
Y215000D03*
X6500Y215496D03*
X-9000Y245000D03*
X-1500Y233500D03*
X-8500D03*
X-9000Y255000D03*
Y265000D03*
Y275000D03*
Y285000D03*
X4300Y293400D03*
X300Y285900D03*
X-9000Y295000D03*
Y305000D03*
Y315000D03*
X4600Y300500D03*
X4300Y296900D03*
X-9000Y325000D03*
Y335000D03*
Y345000D03*
Y386000D03*
Y395000D03*
X2000Y388500D03*
X-9300Y390800D03*
X-9000Y545000D03*
X-7500Y549500D03*
X-9000Y585000D03*
Y595000D03*
Y575000D03*
X7000Y596500D03*
X-9000Y625000D03*
Y635000D03*
Y645000D03*
Y655000D03*
Y672500D03*
Y665000D03*
X-422Y672578D03*
X-1854Y682234D03*
X-2250Y667650D03*
X2903Y676766D03*
Y682234D03*
X-9000Y686500D03*
X15000Y-9000D03*
X25000D03*
X10100Y28200D03*
X16847Y35328D03*
X10078Y20500D03*
X13403Y17766D03*
X24076Y24224D03*
X13403Y23234D03*
X18700Y21300D03*
X23781Y51239D03*
X19781D03*
Y47239D03*
X23781D03*
X23059Y35839D03*
X13281Y37439D03*
X19781Y36839D03*
X26029Y36287D03*
X9481Y44853D03*
X9568Y47152D03*
X9500Y41800D03*
X22781Y61239D03*
X14500Y61500D03*
X10281Y62039D03*
X28704Y63105D03*
X25692Y61239D03*
X14599Y82401D03*
X26000Y111500D03*
X25024Y156972D03*
X25000Y153843D03*
X25073Y181423D03*
X25000Y167633D03*
X27000Y165663D03*
X26897Y183193D03*
X26867Y185563D03*
X25000Y173543D03*
X27987Y175513D03*
X24987Y177483D03*
X25157Y199153D03*
X25067Y205063D03*
X25247Y193243D03*
X25163Y187333D03*
X26744Y191473D03*
X26732Y195013D03*
X26807Y189103D03*
X26813Y197383D03*
X20000Y239900D03*
X28500Y244200D03*
X12900Y245700D03*
X17000Y234000D03*
X15532Y271468D03*
X26330Y267530D03*
X18500Y253700D03*
X15684Y289184D03*
X15500Y282479D03*
X15627Y277373D03*
X26300Y293121D03*
X15200Y291900D03*
X13100Y299027D03*
X15505Y297058D03*
X13400Y304000D03*
X15505Y300995D03*
X17000Y330000D03*
X14000D03*
X15616Y369481D03*
Y372319D03*
X23700Y380200D03*
X15500Y380300D03*
X16858Y397158D03*
X28400Y381900D03*
X16000Y387500D03*
X18900Y401300D03*
X7800Y388000D03*
X28400Y385000D03*
X17100Y394400D03*
X23500Y419500D03*
X18600Y406900D03*
X15307Y411307D03*
X26500Y421000D03*
X24300Y409600D03*
X25949Y431851D03*
X16024Y428500D03*
X15992Y430992D03*
X15929Y434929D03*
X28451Y431751D03*
X16000Y426000D03*
X22500Y482000D03*
X28000Y504700D03*
X22500Y522500D03*
X18000Y516000D03*
X26940Y526940D03*
X15831Y513669D03*
X15957Y521543D03*
X15894Y517606D03*
X19000Y527000D03*
X27300Y514800D03*
X22500Y518000D03*
X12600Y553000D03*
X10200Y543000D03*
X13000Y536500D03*
X22000Y533500D03*
X7676Y550100D03*
X13200Y566900D03*
X25008Y573492D03*
X11700Y580500D03*
X22000D03*
Y588000D03*
X14300Y614500D03*
X28100Y626400D03*
X15500Y627200D03*
X20000Y672800D03*
X16600Y672700D03*
X27500Y677000D03*
X27476Y680576D03*
X7800Y677700D03*
X11300Y673900D03*
X8200Y680300D03*
X15800Y683500D03*
X15000Y709000D03*
X25000D03*
X35000Y-9000D03*
X45000D03*
X29881Y34839D03*
X34081Y44239D03*
X31581Y37739D03*
X35000Y53000D03*
X46000Y43800D03*
X36209Y50339D03*
X36081Y46972D03*
Y40139D03*
X48000Y69500D03*
X46095Y66800D03*
X40190Y69690D03*
X38500Y91500D03*
X46000D03*
X42158Y84000D03*
X48000Y82900D03*
X31500Y91500D03*
X35000D03*
X40190Y105190D03*
X33000Y109000D03*
Y106500D03*
X43000Y155496D03*
X29500Y168000D03*
X31500Y172500D03*
X44500Y228000D03*
X36900Y242700D03*
X49000Y233500D03*
X45000Y245400D03*
X33976Y239476D03*
X34476Y245524D03*
X33976Y236524D03*
X34667Y271467D03*
X49007Y263593D03*
X35062Y265562D03*
X34616Y289184D03*
X34673Y277373D03*
X34621Y283279D03*
X44300Y294100D03*
X49200Y293100D03*
X44000Y305000D03*
X45524Y311559D03*
X38500Y294900D03*
Y297500D03*
X47500Y298524D03*
X49400Y339500D03*
X49700Y348000D03*
X49500Y342900D03*
X30560Y365540D03*
X30868Y372319D03*
X33900Y380100D03*
X30868Y369481D03*
X37400Y380100D03*
X37560Y370660D03*
X34000Y376000D03*
X44300Y365500D03*
X32896Y367596D03*
X36500Y411500D03*
X40500Y421500D03*
X29000Y421000D03*
X32500Y425000D03*
X31600Y438500D03*
Y443000D03*
X41000Y432000D03*
X40500Y435500D03*
Y439000D03*
X29500Y439500D03*
Y442000D03*
X31600Y466500D03*
Y462000D03*
Y455000D03*
Y450500D03*
X29500Y451500D03*
Y454000D03*
Y463000D03*
Y465500D03*
X30800Y446800D03*
X30000Y458300D03*
X31600Y478500D03*
Y474000D03*
X29500Y475000D03*
Y477500D03*
X49000Y477286D03*
X31808Y470292D03*
X37800Y471692D03*
X49300Y472100D03*
X46500Y500500D03*
Y503725D03*
X45300Y497000D03*
X36957Y490385D03*
X38400Y501200D03*
X43000Y500400D03*
X31400Y504700D03*
X42173Y497462D03*
X34400Y497500D03*
X39310Y494902D03*
X41053Y508335D03*
X32400Y508400D03*
X29500Y527000D03*
X49300Y528800D03*
X32800Y515300D03*
X44500Y536100D03*
X40900Y543200D03*
Y546000D03*
X49200Y550500D03*
X49900Y548200D03*
X30500Y540100D03*
X45600Y568500D03*
X47300Y558100D03*
X35600Y560500D03*
X49631Y555031D03*
X38500Y568600D03*
X47000Y554900D03*
X46500Y560500D03*
X41500Y588000D03*
Y578200D03*
X30559Y602559D03*
X31492Y626492D03*
X45600Y669702D03*
X35000Y709000D03*
X45000D03*
X55000Y-9000D03*
X65000D03*
X51000Y28500D03*
X53969Y69531D03*
X57906Y68000D03*
X59875Y69375D03*
X61843Y92157D03*
X52001Y82999D03*
X55938Y105938D03*
X69000Y133000D03*
X64307Y142307D03*
X68886Y124000D03*
X64500Y135614D03*
Y156756D03*
Y161677D03*
X64413Y146913D03*
X64823Y186323D03*
X65000Y201087D03*
Y196165D03*
Y191000D03*
X60453Y227572D03*
X63429Y210929D03*
X70000Y240500D03*
X62100Y233100D03*
X52500Y245600D03*
X62100Y242400D03*
X57600Y271467D03*
Y267530D03*
X62200Y252300D03*
X59000Y258500D03*
X59400Y270000D03*
X62000Y255500D03*
X59738Y265562D03*
X65790Y292203D03*
X70115D03*
X57600Y289184D03*
Y283279D03*
Y277373D03*
X66540Y290022D03*
X59400Y275904D03*
Y287716D03*
X57479Y293121D03*
X59400Y272936D03*
Y290653D03*
Y278841D03*
X69326Y289955D03*
X61676Y305700D03*
X52100Y313400D03*
X59900Y296200D03*
X58000Y298500D03*
X64153Y302200D03*
X66010Y296500D03*
X52500Y305787D03*
X70200Y294600D03*
X62000Y336500D03*
X66000Y332500D03*
X65800Y336500D03*
X65000Y325000D03*
X53500Y335100D03*
X61500Y324500D03*
X65592Y328067D03*
X58200Y330800D03*
X53400Y348500D03*
X52700Y341300D03*
X56400Y351300D03*
X70525Y348025D03*
X70655Y368555D03*
X66655Y380055D03*
X69155Y373055D03*
X70885Y375000D03*
X66655Y402305D03*
Y395555D03*
Y387805D03*
X70405Y423555D03*
X66905Y418805D03*
X70905Y403305D03*
X66905Y409805D03*
X71405Y437055D03*
X69155Y428555D03*
X70885Y431693D03*
X69400Y464540D03*
X50959Y463041D03*
X51100Y465600D03*
X57600Y458910D03*
X51800Y457700D03*
X69700Y460700D03*
X67000Y477600D03*
X55000Y478500D03*
X60600Y470200D03*
X52100Y471000D03*
X50881Y474300D03*
X70300Y488200D03*
X55900Y472000D03*
X66700Y472800D03*
X69400Y468290D03*
X67900Y494000D03*
X53421Y492800D03*
X69700Y528800D03*
X60900D03*
X56000Y545400D03*
X65600Y552400D03*
X66700Y544400D03*
X62200D03*
X53100Y548300D03*
X62400Y549400D03*
X59200Y549300D03*
X57500Y547700D03*
X62400Y564600D03*
X55500Y565200D03*
X58800Y571600D03*
X67800Y554700D03*
X67000Y573400D03*
X68750Y566650D03*
X71800Y572600D03*
X66400Y556700D03*
X53200Y568100D03*
X60000Y583500D03*
X69500Y583800D03*
X68200Y588976D03*
X56700Y589800D03*
X60132Y579468D03*
X66800Y593600D03*
X63400Y578200D03*
X69800Y601600D03*
X67200Y606500D03*
X66549Y611651D03*
X61800Y601600D03*
X57800Y615400D03*
X57900Y607200D03*
Y623100D03*
X62600Y630000D03*
Y627000D03*
X65600Y619500D03*
X62100D03*
X57750Y637850D03*
X53400Y634100D03*
X60000Y631500D03*
X71500Y659700D03*
X65300Y657800D03*
X55900Y659400D03*
X55800Y655976D03*
X69515Y656085D03*
X63100Y650000D03*
X60500Y658500D03*
X62600Y656100D03*
X54500Y668900D03*
X60441Y682000D03*
X60000Y685998D03*
X55000Y709000D03*
X65000D03*
X85000Y-9000D03*
X75000D03*
X78700Y38400D03*
X75300Y63700D03*
X89402Y82798D03*
X90000Y109500D03*
X92500D03*
X87024Y109800D03*
X79800Y126700D03*
X75000Y171500D03*
X82075Y256300D03*
X77000Y260025D03*
X89300Y259800D03*
X74000Y256000D03*
X73000Y330117D03*
X85405Y356055D03*
X80300Y343687D03*
X74000Y346000D03*
X74500Y348500D03*
X78251Y351000D03*
X85405Y361805D03*
X77405Y362305D03*
X72420Y372000D03*
X80095Y375000D03*
X81630Y372000D03*
X73955Y375000D03*
X84700Y372000D03*
X78560D03*
X77025Y375000D03*
X75490Y372000D03*
X83165Y375000D03*
X80200Y394700D03*
X89300D03*
X72420Y400350D03*
X87770D03*
X81630D03*
X90840D03*
X84700D03*
X80465Y386000D03*
X78560Y400350D03*
X75490D03*
X85980Y386900D03*
X78405Y409055D03*
X80095Y403350D03*
X86235D03*
X89305D03*
X92375D03*
X73955D03*
X80360Y413055D03*
X77025Y403350D03*
X83165D03*
X85200Y412870D03*
X91153D03*
X72420Y428693D03*
X80095Y431693D03*
X81630Y428693D03*
X86235Y431693D03*
X73955D03*
X84700Y428693D03*
X78560D03*
X77025Y431693D03*
X75490Y428693D03*
X83165Y431693D03*
X74000Y442000D03*
X76800Y463500D03*
X86600Y459980D03*
X73500Y486800D03*
X77505Y468329D03*
X83900Y472400D03*
X79900Y469040D03*
X73500Y471300D03*
Y477680D03*
Y491000D03*
X82500Y497070D03*
X79800Y495300D03*
X90975Y506243D03*
X84100Y528900D03*
X84300Y537300D03*
X74200Y547400D03*
X83500Y549000D03*
X84250Y552700D03*
X85400Y556200D03*
X85500Y563300D03*
X85000Y594400D03*
X91200Y576100D03*
X87900Y580700D03*
X83480Y600764D03*
X83300Y606000D03*
X80000Y602300D03*
X77000D03*
X88500Y606000D03*
X80700Y633600D03*
X89700Y638974D03*
X76900Y637900D03*
X84600Y644400D03*
X73100Y652000D03*
Y647000D03*
Y642000D03*
X84600Y656900D03*
X77000D03*
X91700Y655400D03*
X78500Y685500D03*
X75000Y709000D03*
X85000D03*
X105000Y-9000D03*
X115000D03*
X95000D03*
X99476Y39476D03*
X99500Y48700D03*
X95500Y64000D03*
X102000D03*
X95268Y68500D03*
X107000Y64000D03*
X99245Y68600D03*
X101213Y66513D03*
X114993Y67525D03*
X107000Y69400D03*
X113024Y69822D03*
X103364Y70000D03*
X97300D03*
X109000Y84500D03*
X111056Y82500D03*
X107000D03*
X110400Y92000D03*
X111000Y109500D03*
X111056Y104944D03*
X107119Y104881D03*
X94100Y105700D03*
X113024Y107476D03*
X97000Y114500D03*
X110400Y256300D03*
X95600D03*
X103100Y259800D03*
X106400Y355800D03*
X108024Y347674D03*
X110793Y353689D03*
X108107D03*
X111400Y356200D03*
X109260Y400350D03*
X96980D03*
X113000Y398350D03*
X106846Y390200D03*
X106190Y400350D03*
X100050D03*
X93910D03*
X103120D03*
X97000Y390400D03*
X111990Y410250D03*
X104155Y412805D03*
X96350Y409500D03*
X107725Y403350D03*
X104655D03*
X113000Y405150D03*
X95445Y403350D03*
X98515D03*
X101585D03*
X97300Y413005D03*
X110155Y455305D03*
X113405Y455555D03*
X104155Y447305D03*
X104200Y456500D03*
X110807Y448211D03*
X99600Y447400D03*
X105000Y449805D03*
X114978Y450364D03*
X113493Y448211D03*
X94800Y474600D03*
X115000Y486800D03*
X101400Y530700D03*
X94461Y547039D03*
Y542100D03*
X113000Y571300D03*
X107300Y566600D03*
X104600D03*
X99200Y569000D03*
X101700Y566700D03*
X105400Y584200D03*
X105300Y598200D03*
X105400Y610200D03*
X112700Y614950D03*
X112300Y599300D03*
X106000Y635000D03*
X105400Y624700D03*
X94849Y655300D03*
X107000Y679000D03*
Y667500D03*
X97000Y686600D03*
X95000Y709000D03*
X105000D03*
X115000D03*
X125000Y-9000D03*
X135000D03*
X132000Y29000D03*
X122079Y29079D03*
X127000Y29000D03*
X121520Y44480D03*
X116980D03*
X116976Y39476D03*
X132020Y53980D03*
X127020D03*
X122020D03*
X130741Y69000D03*
X127000D03*
X116961Y69500D03*
X134678Y69000D03*
X124835Y92000D03*
X128500Y83500D03*
X131500Y82500D03*
X124835Y84000D03*
X135500Y82500D03*
X122867Y82000D03*
X131500Y113890D03*
Y109500D03*
X129000Y118500D03*
X124500Y113500D03*
X116000Y105000D03*
X128000Y105500D03*
X125000D03*
X129000Y110040D03*
Y112860D03*
X126500Y117200D03*
Y114900D03*
X136646Y105000D03*
X134000D03*
X131700Y132975D03*
X116500Y140500D03*
X130500Y127000D03*
X135000Y131000D03*
X126500Y127000D03*
X119000Y129117D03*
X133000Y127000D03*
X131000Y202500D03*
X133600Y199309D03*
X133500Y224000D03*
X118500Y212500D03*
X135408Y245468D03*
X135700Y263700D03*
X135200Y273200D03*
X115500Y279500D03*
X134400Y297100D03*
Y307300D03*
X128500Y334900D03*
X136000Y321800D03*
X116200Y348078D03*
X119350D03*
X122499D03*
X125700Y339500D03*
X135100Y339900D03*
X127800Y341800D03*
X132000Y340000D03*
X130523Y390823D03*
X115300Y398450D03*
X124224Y390823D03*
X121074D03*
X116750Y390750D03*
X127373Y390823D03*
X121099Y412878D03*
X130548Y412876D03*
X116800Y412800D03*
X124249Y412878D03*
X127398Y412876D03*
X115300Y405083D03*
X117924Y446110D03*
X120585Y448210D03*
X120100Y455550D03*
X130900Y488400D03*
X124524Y519524D03*
X119038Y547038D03*
X122100Y544800D03*
X119800Y539800D03*
X127600Y540500D03*
X135000Y552000D03*
X129100Y572800D03*
X119300Y573000D03*
X115600Y573200D03*
X116600Y584600D03*
X126600D03*
X136600D03*
X126300Y589300D03*
X132900Y588800D03*
X117700Y614950D03*
X135400Y597800D03*
X132000Y597700D03*
X118100Y602100D03*
X116600Y634600D03*
X126600D03*
X136600D03*
X134900Y622200D03*
X115300Y628500D03*
X133200Y661400D03*
X123300Y661325D03*
X125000Y709000D03*
X135000D03*
X145000Y-9000D03*
X155000D03*
X147000Y29000D03*
X142000D03*
X137000D03*
X152000Y25500D03*
X155000Y29025D03*
X157965Y48500D03*
X141020Y44480D03*
X138000Y48500D03*
X137020Y53980D03*
X157020D03*
X152020D03*
X147020D03*
X142020D03*
X148850Y68500D03*
X154000Y66200D03*
X147000Y81200D03*
X138615Y82475D03*
X139068Y117967D03*
X137000Y118975D03*
X141164Y127000D03*
X137500D03*
X156700Y151400D03*
X150200Y156809D03*
X152100Y189200D03*
X145800Y206700D03*
X145700Y201700D03*
X153500D03*
Y206700D03*
X138025Y247600D03*
X147000Y238500D03*
X152079Y238421D03*
X143300Y230200D03*
X142469Y247531D03*
X139550Y245550D03*
X142500Y260500D03*
X151700D03*
X156100Y256300D03*
X157300Y269200D03*
X147551Y256300D03*
X142469Y255969D03*
X138531Y256800D03*
X157200Y274200D03*
X138500Y293000D03*
Y283000D03*
X148400Y295300D03*
X148300Y305800D03*
X148200Y315600D03*
X138500Y313000D03*
Y303000D03*
X152700Y337200D03*
X148507Y334375D03*
X145500Y337200D03*
X141600Y334500D03*
X138800Y337200D03*
X138700Y319000D03*
X156976Y327024D03*
X140900Y350700D03*
X153400Y358100D03*
X153200Y372087D03*
X154800Y364300D03*
X141546Y368776D03*
Y378224D03*
X149200Y375700D03*
X156600Y359300D03*
X153194Y369406D03*
X154800Y361200D03*
X149155Y397675D03*
X155398Y383602D03*
X149500Y391600D03*
X152095Y412585D03*
X154835Y409935D03*
X139330Y406450D03*
X142905Y406260D03*
X151155Y417745D03*
X146835Y406280D03*
X147350Y419400D03*
X150830Y424271D03*
X149400Y428575D03*
X154585Y431100D03*
X141572Y425475D03*
X152465Y440225D03*
X141572Y434925D03*
X153346Y446911D03*
X151000Y459700D03*
X153400Y462300D03*
X156790Y459500D03*
X141100Y457700D03*
X156500Y448324D03*
X147600Y465000D03*
X150260Y464960D03*
X153485Y459600D03*
X157000Y475900D03*
X148738Y471862D03*
X155300Y486300D03*
X139333Y572800D03*
X146600Y584600D03*
X156600Y594600D03*
X156000Y588000D03*
X139800Y589300D03*
X156600Y614600D03*
Y604600D03*
X138550Y597550D03*
X141800Y596800D03*
X139352Y602648D03*
X146600Y634600D03*
X156600D03*
X147300Y627300D03*
X139300Y621800D03*
Y624300D03*
X152100Y621300D03*
X150800Y624500D03*
X145000Y709000D03*
X155000D03*
X165000Y-9000D03*
X175000D03*
X171465Y32025D03*
X159000Y29000D03*
X166500Y55525D03*
X161500Y37500D03*
X179000Y49000D03*
X168465Y54000D03*
X163500Y75500D03*
X177000Y58500D03*
X168035Y73100D03*
X173465Y63500D03*
X178930Y61500D03*
X175100Y92200D03*
X165500Y96000D03*
Y99525D03*
X169800Y80900D03*
X158500D03*
X173465Y101450D03*
X171500Y104500D03*
X165200Y189200D03*
X173000Y190500D03*
X175500Y209500D03*
X167500D03*
Y233500D03*
X158400Y261200D03*
X165000Y259000D03*
X164900Y274200D03*
Y278200D03*
X161500Y276000D03*
X161000Y286500D03*
X175500Y276914D03*
X178290Y277510D03*
X169000Y291061D03*
X169571Y286337D03*
X174600Y312600D03*
X164400Y315400D03*
X164300Y300600D03*
X159400Y310400D03*
X159000Y302300D03*
X178500Y295000D03*
X173500Y306000D03*
X161000Y295500D03*
X165524Y311024D03*
X169571Y300510D03*
Y295785D03*
X177915Y314085D03*
X162700Y332200D03*
X159400Y316100D03*
X176000Y326500D03*
X172000D03*
X167000D03*
X168575Y316500D03*
X175900D03*
X172700Y316400D03*
X179500Y316500D03*
X175965Y330035D03*
X179535Y357000D03*
X169100Y357487D03*
Y354813D03*
X174000Y355500D03*
X160155Y357055D03*
X167500Y343000D03*
X169700Y341000D03*
X174200Y360300D03*
X163200Y455500D03*
X161630Y459500D03*
X166800Y466400D03*
X159180Y459500D03*
X177029Y477837D03*
X165200Y477900D03*
X168500Y481500D03*
X159100Y473900D03*
X178155Y467350D03*
X174197Y477837D03*
X178215Y482184D03*
X175700Y481100D03*
X165200Y480200D03*
X168821Y496970D03*
X168000Y499500D03*
X168205Y503500D03*
X159700Y551800D03*
X167300Y546900D03*
X167900Y615700D03*
Y605700D03*
X178300Y610200D03*
X179000Y636050D03*
X174000D03*
X167900Y635700D03*
Y625700D03*
X160100Y619000D03*
X173600Y620400D03*
X163624Y624476D03*
X167900Y645700D03*
X177900Y655700D03*
X176571Y649371D03*
X167500Y655800D03*
X167800Y650300D03*
X165000Y709000D03*
X175000D03*
X195000Y-9000D03*
X185000D03*
X186500Y35000D03*
X181500Y38119D03*
X184500Y39644D03*
X188700Y69500D03*
X190500Y63500D03*
X184900Y71500D03*
X181535Y65500D03*
X180000Y81549D03*
X185100Y82900D03*
X180000Y89100D03*
X192035Y84500D03*
X183965Y98000D03*
X186200Y86400D03*
X184100Y95000D03*
X193035Y101500D03*
X190000Y169000D03*
X181000D03*
X185071Y174976D03*
X198500Y192500D03*
X187000Y195000D03*
X189800Y208300D03*
X183100Y267100D03*
X189500D03*
X186800Y263500D03*
X183476Y272024D03*
X199500Y252900D03*
X185000Y289000D03*
X200590Y288590D03*
X189000Y276500D03*
X181065Y277500D03*
X195978Y280000D03*
X196011Y283997D03*
X200364Y292636D03*
X182540Y279640D03*
X200900Y284900D03*
X200500Y282000D03*
X188939Y279561D03*
X182700Y313700D03*
X185000Y301500D03*
X191500Y295000D03*
X185000D03*
X199171Y314171D03*
X182740Y311000D03*
X196500Y315500D03*
X180040Y326940D03*
X195535Y329991D03*
X183105D03*
X189245D03*
X186175D03*
X186300Y316500D03*
X192240Y327000D03*
X183090Y326900D03*
X180035Y329991D03*
X189190Y326900D03*
X193100Y316500D03*
X195290Y327500D03*
X186140Y326900D03*
X189700Y316500D03*
X192315Y329991D03*
X182900Y316500D03*
X187000Y345500D03*
X182725Y342000D03*
X193000Y341000D03*
X200500Y346900D03*
X197500Y350950D03*
X197050Y354000D03*
X187700Y341982D03*
X185854Y444991D03*
X184400Y451000D03*
Y453483D03*
X184383Y448613D03*
X183885Y461923D03*
X195500Y474000D03*
X180210Y484179D03*
X198000Y476000D03*
X180540Y477192D03*
X189900Y478500D03*
X188000Y469040D03*
X183360Y477192D03*
X190001Y476202D03*
X184982Y467568D03*
X181500Y469475D03*
X200000Y478500D03*
X187600Y473300D03*
X190000Y482000D03*
X196500D03*
X199000Y485500D03*
X192500Y471500D03*
X193300Y482100D03*
X200865Y509847D03*
X198600Y503200D03*
X199000Y507300D03*
X200700Y504842D03*
X193500Y489000D03*
X196000Y513500D03*
X192500Y548900D03*
X200700Y540600D03*
X187500Y534000D03*
X191300Y569500D03*
X185400Y593700D03*
X197900Y605700D03*
X187900D03*
X194200Y609900D03*
X187900Y610200D03*
X201400Y610000D03*
X199850Y618650D03*
X196050Y619450D03*
X193400Y618800D03*
X185100Y624100D03*
X200652Y623952D03*
X197900Y655700D03*
X187900D03*
X200600Y642900D03*
Y645400D03*
X196150Y643200D03*
X195000Y709000D03*
X185000D03*
X215000Y-9000D03*
X205000D03*
X206000Y169500D03*
X214900Y185700D03*
X215000Y169300D03*
X215602Y176602D03*
X205800Y205800D03*
X212240Y195240D03*
X212000Y219600D03*
X208500Y248000D03*
X214000Y232475D03*
X214800Y244300D03*
X211000Y232475D03*
X208800Y256600D03*
X208400Y266800D03*
Y271800D03*
X203500Y258600D03*
X211500Y272000D03*
X214800Y263000D03*
X208500Y294000D03*
X201500Y277729D03*
X218125Y290000D03*
X204500Y303500D03*
X202000Y300395D03*
X213500Y296859D03*
X204000Y306500D03*
X208298Y307298D03*
X205500Y300070D03*
X209500Y305000D03*
X202016Y297016D03*
X222000Y328000D03*
Y320000D03*
X222500Y332000D03*
X218500Y320000D03*
Y328000D03*
X202000Y329500D03*
X218500Y332000D03*
X213040Y332040D03*
X218500Y340000D03*
X222500D03*
X213535Y463475D03*
X208000Y462500D03*
X221300Y462900D03*
X215950Y447555D03*
X220465Y447012D03*
X218600Y471800D03*
X203000Y477000D03*
X213350Y472500D03*
X219467Y474981D03*
X210000Y468500D03*
X208776Y473764D03*
X207000Y471500D03*
X222925Y479025D03*
Y475600D03*
X219825Y478647D03*
X211500Y480400D03*
X209000Y480000D03*
X203500Y471000D03*
X205406Y479000D03*
X221494Y471899D03*
X205000Y485500D03*
Y507150D03*
X219419Y498670D03*
X204100Y500100D03*
X208500Y528900D03*
X215450Y522500D03*
X217775Y513500D03*
X218500Y526000D03*
Y529000D03*
X219300Y517500D03*
X210475Y513000D03*
X208400Y517200D03*
X208500Y523100D03*
X206500Y514500D03*
X202098Y513600D03*
X201500Y552500D03*
X202741Y534841D03*
X213600Y553000D03*
X220900Y552700D03*
X216174Y565800D03*
X216900Y554300D03*
X210900Y557100D03*
X210800Y573400D03*
X213900Y574500D03*
X221800Y593000D03*
X216690Y576029D03*
X205918Y604489D03*
X207900Y605700D03*
X217900Y615700D03*
Y605700D03*
X203100Y617900D03*
X217900Y638700D03*
Y625700D03*
Y655700D03*
X207900D03*
X217900Y645700D03*
X213400Y642400D03*
Y649200D03*
X206400Y646200D03*
X215000Y709000D03*
X205000D03*
X235000Y-9000D03*
X225000D03*
X244500Y135500D03*
X237000Y131025D03*
X241000Y129525D03*
X237000Y126475D03*
X244300Y127300D03*
X237000Y157000D03*
X233000Y202000D03*
X241900Y244100D03*
X244575Y239500D03*
X243300Y233800D03*
X235600Y270500D03*
X237900Y263700D03*
X244000Y293025D03*
X243500Y288975D03*
X235500Y273500D03*
X236000Y285500D03*
X235986Y292000D03*
X243500Y284500D03*
X239914Y302586D03*
X241510Y298537D03*
X230500Y332000D03*
X234000Y328000D03*
X226000D03*
X238000Y332000D03*
X230500Y328000D03*
X241500Y320000D03*
X234500Y332000D03*
X241500Y328000D03*
Y332000D03*
X226000Y317200D03*
X226500Y332000D03*
X226000Y320000D03*
X230500D03*
X234000D03*
X234500Y340000D03*
X238000D03*
X226500D03*
X226346Y358500D03*
X230500Y340000D03*
X241500D03*
X243514Y374889D03*
X240969Y369529D03*
X241535Y359500D03*
X239500Y372579D03*
X241600Y363600D03*
X244529Y370709D03*
X244181Y361167D03*
X243147Y366833D03*
X240000Y383405D03*
X232941Y462941D03*
X225950Y463500D03*
X235000Y483900D03*
X225503Y473500D03*
X230000Y471500D03*
X238200Y495300D03*
X240500Y537525D03*
X244000Y566600D03*
X243300Y563700D03*
X242300Y594900D03*
X233200Y593600D03*
X244200Y598100D03*
X230900Y617800D03*
X235381Y632348D03*
X238219D03*
X229300Y620500D03*
X241500Y654000D03*
X241000Y657858D03*
X232000Y654400D03*
X232091Y658085D03*
X238069Y648205D03*
X235231D03*
X229000Y656500D03*
X241500Y662000D03*
X226400Y682800D03*
X232000Y662400D03*
X236300Y666400D03*
X223400Y685000D03*
X235000Y709000D03*
X225000D03*
X265000Y-9000D03*
X255000D03*
X245000D03*
X248500Y138000D03*
X246035Y133100D03*
X262625Y130500D03*
X260500Y128000D03*
X253500Y159000D03*
X256500Y161000D03*
X263024Y206424D03*
X263441Y195741D03*
X261500Y213500D03*
X259500Y218000D03*
X265400Y238900D03*
X265200Y244200D03*
X258000Y250000D03*
X254500Y248500D03*
X262417Y247083D03*
X252083Y249237D03*
X262972Y240090D03*
Y242910D03*
X251535Y241500D03*
X263000Y237000D03*
X251705Y234975D03*
X255000Y239000D03*
X245500Y231000D03*
X254000Y267975D03*
X258500Y258000D03*
X253500Y255897D03*
X264000Y270220D03*
X258000Y255373D03*
X252500Y262434D03*
X251999Y251536D03*
X258000Y252541D03*
X252500Y265266D03*
X250500Y288500D03*
Y291500D03*
Y285500D03*
X262900Y303100D03*
X250000Y295000D03*
X245000Y301000D03*
X250500Y299500D03*
X245500Y332000D03*
X245000Y320000D03*
X252535Y327965D03*
X248500Y328000D03*
X245000D03*
X262500Y328025D03*
X249500Y332000D03*
X248500Y320000D03*
X252525D03*
X262950Y330500D03*
X245500Y340000D03*
X249035D03*
X262500Y357007D03*
X265000Y351895D03*
X264799Y355472D03*
X258164Y357336D03*
X262500Y353500D03*
X253895Y359500D03*
X254260Y362500D03*
X262500Y359500D03*
X258500Y362700D03*
Y360000D03*
X248500Y369000D03*
X251900Y370240D03*
X246421Y360025D03*
X250200Y374524D03*
X247600Y374600D03*
X253475Y372999D03*
X251200Y362500D03*
X254100Y388400D03*
X250981Y400339D03*
X247900Y392300D03*
X249142Y385424D03*
X253021Y384974D03*
X253350Y400300D03*
X263100Y397200D03*
X263200Y389500D03*
X251500Y388300D03*
X246000Y394100D03*
X262940Y392800D03*
X263060Y386278D03*
X250000Y412500D03*
X250359Y406000D03*
X247200Y438300D03*
X247300Y442200D03*
X249477Y439023D03*
X247200Y434600D03*
X249000Y433000D03*
X249500Y441500D03*
X263500Y435000D03*
X249000Y451600D03*
X251000Y458000D03*
X246217Y477813D03*
X266110Y474944D03*
X248500Y478100D03*
X246500Y484500D03*
X250000Y486000D03*
X254000Y467900D03*
X249739Y468263D03*
X247000Y488000D03*
X255600Y504100D03*
X261500Y531000D03*
X263465Y533000D03*
X265000Y537500D03*
X259500Y538000D03*
X259000Y541000D03*
X260500Y535500D03*
X253902Y541500D03*
X245700Y548625D03*
X259000Y568400D03*
X249500Y566276D03*
X246400Y553700D03*
X248200Y571400D03*
X249100Y553700D03*
X247300Y576000D03*
X245400Y588567D03*
X258300Y597900D03*
X258190Y606290D03*
X257700Y638900D03*
X257589Y635811D03*
X266100Y640200D03*
X265000Y709000D03*
X255000D03*
X245000D03*
X285000Y-9000D03*
X275000D03*
X271000Y169000D03*
Y174000D03*
Y179000D03*
X286476Y220476D03*
X276001Y220039D03*
X283500Y209000D03*
X269598Y222598D03*
X271500Y249500D03*
X271571Y246429D03*
X283480Y233980D03*
X286000Y249500D03*
X282626D03*
X276000Y230877D03*
X286000Y263500D03*
X280171Y268500D03*
X268000Y262000D03*
X275376Y269500D03*
X271500Y263500D03*
X283000Y253000D03*
X286088D03*
X285000Y268500D03*
X268876Y269500D03*
X276100Y287200D03*
X275493Y293007D03*
X277500Y290100D03*
X271600Y286800D03*
X286469Y286161D03*
X281500Y294500D03*
X274775Y296500D03*
X284500Y294500D03*
X279470Y302970D03*
X287700Y294500D03*
X278900Y312500D03*
X281400Y313600D03*
Y310125D03*
X283242Y327500D03*
X284973Y330740D03*
X277082Y326500D03*
X285500Y328500D03*
X282600Y319500D03*
X286565Y333549D03*
X287512Y335646D03*
X280500Y357500D03*
X284500Y353500D03*
X284525Y346500D03*
X283731Y350379D03*
X272000Y350195D03*
X271765Y352500D03*
X267500Y377275D03*
X279120Y359450D03*
Y362500D03*
X274000Y378000D03*
X285570Y364500D03*
X269360Y379500D03*
X272000Y376035D03*
X269100Y395300D03*
X271633Y395161D03*
X275500Y390800D03*
X280500Y384000D03*
X266420Y401500D03*
X274000Y385000D03*
X267525Y381000D03*
X269597Y382438D03*
X285225Y396500D03*
X271388Y391561D03*
X284000Y389000D03*
X275500Y388500D03*
X283921Y391421D03*
X275500Y380965D03*
X271400Y398200D03*
X274000Y403700D03*
Y411000D03*
X271525Y422000D03*
X273125Y420000D03*
X266420Y404000D03*
X273900Y417600D03*
X273500Y407000D03*
X269700Y414900D03*
X269800Y406400D03*
X274000Y415200D03*
X277500Y440000D03*
X280000Y441500D03*
X279594Y453500D03*
X283000Y450500D03*
X282000Y464300D03*
X283000Y466900D03*
X283500Y459476D03*
X283000Y446594D03*
X280000Y462000D03*
X271449Y477378D03*
X282200Y485300D03*
X278620Y469500D03*
X279400Y483700D03*
X273965Y486475D03*
X267500Y472500D03*
X277500Y478000D03*
X283000Y482000D03*
X270000Y468000D03*
X285777Y487575D03*
X281052D03*
X283351Y487500D03*
X278264D03*
X280500Y495000D03*
X285500D03*
X268900Y507800D03*
X282600Y509600D03*
X277300Y507476D03*
X278000Y494400D03*
X270100Y527600D03*
X277800Y528100D03*
X275460Y527000D03*
X279924Y525500D03*
X277624D03*
X272640Y527000D03*
X280200Y511200D03*
X270500Y524200D03*
X284300Y526400D03*
X286000Y531250D03*
X270000Y539500D03*
X266777Y535153D03*
X268465Y537500D03*
X266200Y560942D03*
Y557202D03*
X267600Y586100D03*
X278358Y590142D03*
X275985Y595700D03*
X278543Y577543D03*
X271500Y582100D03*
X267400D03*
X267200Y594512D03*
X278358Y599591D03*
X282200Y609000D03*
X277500Y615900D03*
X278200Y619700D03*
X273300Y638100D03*
X278087Y637550D03*
X277900Y629300D03*
X275500Y635902D03*
X271500Y625200D03*
X278000Y656283D03*
Y643685D03*
X274800Y644200D03*
X278087Y640213D03*
X272900Y658490D03*
X272530Y661700D03*
X285000Y709000D03*
X275000D03*
X305000Y-9000D03*
X295000D03*
X300900Y202400D03*
X307476Y187524D03*
X291500Y229475D03*
X300000Y220000D03*
X304500Y223000D03*
X300000Y210000D03*
X303461Y238539D03*
X297500Y233500D03*
X289500Y249500D03*
X293000D03*
X297161Y238161D03*
X296500Y249500D03*
X304000Y265000D03*
X304976Y270000D03*
X307000Y265000D03*
X294012Y263500D03*
X294524Y270000D03*
X288639Y263500D03*
X293000Y253000D03*
X300000D03*
X297476Y270000D03*
X296500Y253000D03*
X288000Y268900D03*
X292000Y269500D03*
X289500Y253000D03*
X301886Y270000D03*
X291000Y266000D03*
X305900Y283400D03*
X290500Y293000D03*
X306000Y293500D03*
X291000Y277700D03*
X290500Y286161D03*
X308283Y299500D03*
X307975Y302500D03*
X289437Y302938D03*
X306500Y296500D03*
X296500Y315000D03*
X289541Y315259D03*
X296000Y302500D03*
X296500Y305000D03*
X287979Y327948D03*
X290817D03*
X293000Y326875D03*
X303500Y323025D03*
X293118Y329382D03*
X288638Y347362D03*
X293000Y358400D03*
X305941Y356941D03*
X288500Y338000D03*
X288942Y341151D03*
X293000Y350500D03*
X291104Y345166D03*
X293070Y353059D03*
X289077Y344077D03*
X305968Y350968D03*
X306140Y354161D03*
X307500Y359500D03*
X288620Y364560D03*
X305874Y376626D03*
X306283Y366783D03*
X305969Y379000D03*
X291465Y371000D03*
X303500Y391500D03*
Y388000D03*
Y397950D03*
Y401000D03*
X294000Y397500D03*
X294500Y401000D03*
X294495Y388213D03*
X294000Y391500D03*
X289000Y413300D03*
X305818Y420272D03*
X289000Y407534D03*
X307433Y409500D03*
X307500Y412500D03*
X308000Y421000D03*
X293024Y413976D03*
X289000Y410366D03*
X293000Y411000D03*
X307500Y415550D03*
X293000Y422500D03*
X293153Y406153D03*
X289000Y419300D03*
X293000Y417000D03*
X289500Y434500D03*
X290500Y445400D03*
X289040Y424035D03*
X308100Y439000D03*
X305500Y439200D03*
X292972Y443980D03*
Y441160D03*
X289451Y437223D03*
Y440043D03*
X306028Y436960D03*
X305828Y441540D03*
X306028Y434140D03*
X305672Y425600D03*
X308000Y428650D03*
X306003Y443834D03*
X308000Y424050D03*
X293000Y426000D03*
X293500Y433712D03*
X308000Y451500D03*
X307702Y447779D03*
X292000Y448500D03*
X306000Y449500D03*
X290000Y450500D03*
X296000Y466500D03*
X290797Y458625D03*
X289500Y456000D03*
X308000Y454000D03*
X307000Y463500D03*
X292000Y452500D03*
X288485Y464327D03*
X293800Y485400D03*
X289500D03*
X308900Y483000D03*
Y478500D03*
X307500Y467500D03*
X300500Y470000D03*
Y484500D03*
X304000Y487500D03*
X303500Y481500D03*
X292800Y487500D03*
X290501Y487575D03*
X288076Y487500D03*
X288525Y468000D03*
X288300Y495000D03*
X290800Y494900D03*
X305300Y496500D03*
X304500Y509500D03*
X306500Y503000D03*
X298000Y495000D03*
X307000Y510700D03*
X295900Y515302D03*
X292000Y518700D03*
X300000Y518900D03*
X296000Y526700D03*
X287800Y526800D03*
X290274Y529374D03*
X298900Y555400D03*
X297324Y592124D03*
X309300Y595000D03*
X299000Y593700D03*
Y596000D03*
X297324Y597576D03*
X309200Y602600D03*
X308300Y614000D03*
X296500Y615500D03*
X298800Y636826D03*
X302900Y618940D03*
X305400D03*
Y626700D03*
X297000Y619000D03*
X302900Y626700D03*
X293900Y684500D03*
X303800D03*
X305000Y709000D03*
X295000D03*
X325000Y-9000D03*
X315000D03*
X314000Y142500D03*
X323539Y140539D03*
X317976Y137976D03*
X323500Y135618D03*
X328981Y163519D03*
X315000Y165000D03*
X317524Y148024D03*
Y157476D03*
X323500Y144500D03*
X317500Y150976D03*
X329681Y169819D03*
X314500Y172000D03*
X311476Y228476D03*
X314583Y247750D03*
X314500Y263500D03*
X312913Y266100D03*
X311000Y263500D03*
X316500Y266000D03*
X310200Y273000D03*
X321000Y289500D03*
X316500Y291500D03*
X318950Y291025D03*
X316000Y284500D03*
X326500Y273000D03*
X317775Y299000D03*
X315500Y298000D03*
X326600Y312900D03*
X328500Y337150D03*
X314500Y337000D03*
X325400Y318836D03*
X328500Y331350D03*
X329000Y319000D03*
X328500Y329000D03*
X330700Y323400D03*
X326925Y316500D03*
X315000Y324100D03*
X313700Y331600D03*
Y334400D03*
X315500Y358909D03*
Y347098D03*
X311100Y354000D03*
X328500Y347085D03*
X328775Y357000D03*
X328500Y354000D03*
X328800Y342765D03*
X328500Y340200D03*
X316090Y338700D03*
X328500Y351035D03*
X316090Y376626D03*
X315000Y370720D03*
X315500Y364815D03*
X328311Y372689D03*
X328500Y380563D03*
X330463Y367963D03*
X330000Y374657D03*
X329000Y364500D03*
X330000Y378000D03*
X315506Y368476D03*
X315500Y361500D03*
X328933Y361092D03*
X326000Y385000D03*
X324000Y399500D03*
X330500Y383500D03*
X327400Y394700D03*
X323500Y390476D03*
X327200Y397500D03*
X328200Y414027D03*
Y410090D03*
X313500Y404000D03*
X330600Y419933D03*
X328200Y421901D03*
X313500Y412000D03*
Y420000D03*
Y416000D03*
X328200Y417964D03*
X313500Y408000D03*
X328200Y406153D03*
X330600Y423870D03*
X313500Y431500D03*
X328200Y437649D03*
X313500Y438096D03*
X328200Y429775D03*
X313601Y440450D03*
X328200Y425838D03*
X313500Y444450D03*
Y424000D03*
Y427550D03*
Y435550D03*
X328200Y433712D03*
X330849Y427807D03*
X313500Y448000D03*
Y456000D03*
Y452000D03*
X309900Y487500D03*
X311000Y482000D03*
X312000Y488500D03*
X311000Y479500D03*
X330500Y470000D03*
X309900Y510000D03*
Y505500D03*
Y496500D03*
Y501000D03*
Y492000D03*
X312000Y491000D03*
Y509000D03*
Y500000D03*
Y497500D03*
Y506500D03*
X318800Y514600D03*
X316175Y512000D03*
X323986Y511714D03*
X329500Y517100D03*
X322000Y514500D03*
X319200Y511305D03*
X321740Y536240D03*
X329398Y559674D03*
X327500Y561600D03*
X320200Y591400D03*
X314900D03*
X325500Y609900D03*
X327600Y617900D03*
X326676Y601024D03*
X318300Y598500D03*
X315000Y598400D03*
X327863Y633563D03*
X316419Y635196D03*
X327600Y622700D03*
X312300Y624600D03*
X316600Y630500D03*
X318924Y622824D03*
X312300Y640600D03*
X316700Y650200D03*
X312300Y654700D03*
X316100Y684200D03*
X325000Y709000D03*
X315000D03*
X335000Y-9000D03*
X342500Y140476D03*
X336500Y162000D03*
X340000Y150382D03*
Y145461D03*
X343500Y162000D03*
X348500Y145500D03*
X350500Y150500D03*
X351900Y185000D03*
X336224Y165800D03*
X346500Y165500D03*
X336500Y169000D03*
X331000Y222300D03*
X341500Y213900D03*
X347600Y235100D03*
X340500Y284000D03*
X338500Y330600D03*
X342300Y337587D03*
X343500Y317500D03*
X341000Y317400D03*
X343250Y323800D03*
X345500Y320000D03*
X332465Y321682D03*
X338524Y375524D03*
X349500Y376000D03*
Y378900D03*
X338500Y390500D03*
X350000D03*
X350500Y393600D03*
Y387350D03*
X332800Y381600D03*
X344500Y396600D03*
X338500Y402000D03*
X350524Y402976D03*
X331100Y412059D03*
Y415996D03*
Y408122D03*
Y404185D03*
X334535Y404500D03*
X334200Y423500D03*
X335465Y408500D03*
X349525Y408400D03*
X331100Y435681D03*
X330949Y431744D03*
X334024Y429976D03*
Y433524D03*
Y436476D03*
X330902Y464000D03*
X331500Y481200D03*
X333643Y521643D03*
X332500Y510500D03*
X332770Y541969D03*
X332900Y555900D03*
X331800Y563600D03*
X337100Y609941D03*
X335000Y709000D03*
X359000Y15000D03*
Y25000D03*
Y35000D03*
Y45000D03*
Y55000D03*
Y65000D03*
Y75000D03*
Y85000D03*
Y95000D03*
Y115000D03*
Y125000D03*
Y135000D03*
Y145000D03*
Y155000D03*
Y165000D03*
Y175000D03*
Y185000D03*
Y195000D03*
Y205000D03*
Y215000D03*
Y225000D03*
Y235000D03*
Y245000D03*
Y255000D03*
Y265000D03*
Y275000D03*
Y285000D03*
Y295000D03*
Y305000D03*
Y315000D03*
Y325000D03*
Y335000D03*
Y375000D03*
Y395000D03*
Y386000D03*
Y411100D03*
X352900Y406800D03*
X359000Y567500D03*
Y555000D03*
X354480Y554520D03*
X359000Y595000D03*
Y575000D03*
Y605000D03*
Y655000D03*
Y675000D03*
Y663500D03*
X356600Y680600D03*
X359000Y685000D03*
G54D14*
X-6791Y51250D03*
Y42194D03*
Y361150D03*
Y370206D03*
G54D107*
X259000Y417579D03*
Y427421D03*
G54D41*
X11500Y377841D03*
Y382959D03*
X20000Y419141D03*
Y424259D03*
X18000Y482941D03*
Y488059D03*
X45000Y540241D03*
Y545359D03*
X49800Y540241D03*
Y545359D03*
X49700Y562141D03*
Y567259D03*
X69500Y181059D03*
Y175941D03*
X56000Y311559D03*
Y306441D03*
X52400Y552341D03*
X57700D03*
X59100Y539841D03*
Y544959D03*
X62500Y560459D03*
Y555341D03*
X52400Y557459D03*
X57700D03*
X52000Y657941D03*
Y663059D03*
X73500Y462541D03*
Y467659D03*
X121000Y489941D03*
Y495059D03*
X135000Y530941D03*
Y536059D03*
X130600Y550659D03*
Y545541D03*
X139200Y475841D03*
Y480959D03*
X143800Y498059D03*
Y492941D03*
X149100Y551841D03*
X143000Y538559D03*
Y533441D03*
X156500Y539059D03*
Y533941D03*
X155000Y551841D03*
X150500Y538559D03*
Y533441D03*
X149100Y556959D03*
X155000D03*
X179500Y455759D03*
Y450641D03*
X163500Y527441D03*
Y532559D03*
X194000Y348441D03*
Y353559D03*
X187000Y348841D03*
Y353959D03*
X182000D03*
Y348841D03*
X196450Y383991D03*
Y389109D03*
Y398109D03*
Y392991D03*
Y403991D03*
Y409109D03*
Y413391D03*
Y418509D03*
X187500Y455559D03*
Y450441D03*
X192500Y455559D03*
Y450441D03*
X185000Y515941D03*
Y521059D03*
X197000Y539959D03*
Y534841D03*
X204500Y455559D03*
Y450441D03*
X214500Y455559D03*
Y450441D03*
X219500Y455559D03*
Y450441D03*
X206000Y534841D03*
Y539959D03*
X224500Y455559D03*
Y450441D03*
X229500Y455559D03*
Y450441D03*
X234500Y455559D03*
Y450441D03*
X275500Y304941D03*
Y310059D03*
X272700Y609041D03*
Y614159D03*
X326500Y531559D03*
Y526441D03*
G54D32*
X-422Y681272D03*
Y677728D03*
X2334D03*
Y681272D03*
X10078Y22272D03*
Y18728D03*
X12834D03*
Y22272D03*
G54D50*
X30189Y636496D03*
G54D23*
X-4743Y120161D03*
Y227839D03*
X52343Y120161D03*
Y227839D03*
X297394Y560822D03*
Y668500D03*
X354480Y560822D03*
Y668500D03*
G54D116*
X310730Y322275D03*
Y400976D03*
Y385740D03*
Y464441D03*
G54D117*
X346403Y104212D03*
Y298700D03*
G54D15*
X5020Y37962D03*
Y55482D03*
Y356918D03*
Y374438D03*
G54D108*
X263300Y410750D03*
X255700D03*
G54D42*
X22850Y399940D03*
X14150D03*
X22850Y405060D03*
X14150D03*
Y402500D03*
X22850D03*
G54D60*
X48753Y630050D03*
Y624950D03*
X56247Y627500D03*
G54D33*
X22500Y0D03*
Y700000D03*
X158700Y246600D03*
X327500Y0D03*
G54D51*
X18378Y655000D03*
G54D24*
X-2289Y257294D03*
Y319106D03*
X17003Y259657D03*
Y316743D03*
G54D118*
G01X284850Y-144000D02*
Y-138000D01*
X283910Y-139200D01*
G01Y-144000D02*
X285790D01*
G01X289662Y-139000D02*
X290132Y-138400D01*
X290680Y-138100D01*
X291307Y-138000D01*
X292090Y-138200D01*
X292638Y-138700D01*
X292795Y-139300D01*
X292717Y-139900D01*
X292403Y-140400D01*
X290837Y-141400D01*
X290132Y-142100D01*
X289662Y-143100D01*
X289505Y-144000D01*
X292795D01*
G01X303750D02*
X303123Y-143900D01*
X302575Y-143500D01*
X302105Y-142900D01*
X301792Y-142200D01*
X301635Y-141400D01*
Y-140600D01*
X301792Y-139800D01*
X302105Y-139100D01*
X302575Y-138500D01*
X303123Y-138100D01*
X303750Y-138000D01*
X304377Y-138100D01*
X304925Y-138500D01*
X305395Y-139100D01*
X305708Y-139800D01*
X305865Y-140600D01*
Y-141400D01*
X305708Y-142200D01*
X305395Y-142900D01*
X304925Y-143500D01*
X304377Y-143900D01*
X303750Y-144000D01*
G01X308562D02*
Y-138000D01*
X311538D01*
G01X310442Y-140900D02*
X308562D01*
G01X322650Y-144000D02*
Y-138000D01*
X321710Y-139200D01*
G01Y-144000D02*
X323590D01*
G01X329890D02*
Y-138000D01*
X326992Y-142300D01*
X330908D01*
G01X282500Y-127500D02*
X682500D01*
G01X282500Y-97500D02*
Y-77500D01*
X682500D01*
G01X285527Y-59500D02*
Y-52000D01*
X289073D01*
G01X287767Y-55625D02*
X285527D01*
G01X292933Y-59500D02*
Y-52000D01*
X295267D01*
X296013Y-52375D01*
X296480Y-52875D01*
X296667Y-53875D01*
X296480Y-54875D01*
X295920Y-55500D01*
X295267Y-55875D01*
X292933D01*
G01X295267D02*
X296667Y-59500D01*
G01X304167D02*
X300433D01*
Y-52000D01*
X304167D01*
G01X302673Y-55625D02*
X300433D01*
G01X311667Y-59500D02*
X307933D01*
Y-52000D01*
X311667D01*
G01X310173Y-55625D02*
X307933D01*
G01X315340Y-58500D02*
X316087Y-59125D01*
X316927Y-59500D01*
X317673D01*
X318420Y-59125D01*
X318980Y-58500D01*
X319260Y-57625D01*
X319073Y-56750D01*
X318607Y-56000D01*
X317767Y-55500D01*
X316647Y-55250D01*
X315993Y-54750D01*
X315713Y-53875D01*
X315900Y-53000D01*
X316367Y-52375D01*
X317020Y-52000D01*
X317673D01*
X318327Y-52250D01*
X318887Y-52875D01*
G01X326853Y-52625D02*
X326293Y-52250D01*
X325640Y-52000D01*
X324893D01*
X324053Y-52375D01*
X323400Y-53000D01*
X322933Y-53750D01*
X322560Y-55000D01*
X322467Y-56125D01*
X322653Y-57250D01*
X322933Y-58000D01*
X323493Y-58750D01*
X324147Y-59250D01*
X324800Y-59500D01*
X325453D01*
X326107Y-59250D01*
X326667Y-58875D01*
X327133Y-58375D01*
G01X329967Y-59500D02*
X332300Y-52000D01*
X334633Y-59500D01*
G01X333793Y-56875D02*
X330807D01*
G01X337933Y-52000D02*
Y-59500D01*
X341667D01*
G01X349167D02*
X345433D01*
Y-52000D01*
X349167D01*
G01X347673Y-55625D02*
X345433D01*
G01X332500Y-147500D02*
Y-127500D01*
G01X333205Y-143200D02*
X333832Y-143700D01*
X334537Y-144000D01*
X335163D01*
X335790Y-143700D01*
X336260Y-143200D01*
X336495Y-142500D01*
X336338Y-141800D01*
X335947Y-141200D01*
X335242Y-140800D01*
X334302Y-140600D01*
X333753Y-140200D01*
X333518Y-139500D01*
X333675Y-138800D01*
X334067Y-138300D01*
X334615Y-138000D01*
X335163D01*
X335712Y-138200D01*
X336182Y-138700D01*
G01X342717Y-144000D02*
X339583D01*
Y-138000D01*
X342717D01*
G01X341463Y-140900D02*
X339583D01*
G01X349173Y-138500D02*
X348703Y-138200D01*
X348155Y-138000D01*
X347528D01*
X346823Y-138300D01*
X346275Y-138800D01*
X345883Y-139400D01*
X345570Y-140400D01*
X345492Y-141300D01*
X345648Y-142200D01*
X345883Y-142800D01*
X346353Y-143400D01*
X346902Y-143800D01*
X347450Y-144000D01*
X347998D01*
X348547Y-143800D01*
X349017Y-143500D01*
X349408Y-143100D01*
G01X353750Y-144000D02*
X353123Y-143900D01*
X352575Y-143500D01*
X352105Y-142900D01*
X351792Y-142200D01*
X351635Y-141400D01*
Y-140600D01*
X351792Y-139800D01*
X352105Y-139100D01*
X352575Y-138500D01*
X353123Y-138100D01*
X353750Y-138000D01*
X354377Y-138100D01*
X354925Y-138500D01*
X355395Y-139100D01*
X355708Y-139800D01*
X355865Y-140600D01*
Y-141400D01*
X355708Y-142200D01*
X355395Y-142900D01*
X354925Y-143500D01*
X354377Y-143900D01*
X353750Y-144000D01*
G01X358248D02*
Y-138000D01*
X361852Y-144000D01*
Y-138000D01*
G01X364627Y-144000D02*
Y-138000D01*
X366193D01*
X366820Y-138300D01*
X367290Y-138700D01*
X367682Y-139300D01*
X367995Y-140000D01*
X368073Y-141000D01*
X367995Y-142000D01*
X367682Y-142700D01*
X367290Y-143300D01*
X366820Y-143700D01*
X366193Y-144000D01*
X364627D01*
G01X370692D02*
X372650Y-138000D01*
X374608Y-144000D01*
G01X373903Y-141900D02*
X371397D01*
G01X377383Y-144000D02*
Y-138000D01*
X379342D01*
X379968Y-138300D01*
X380360Y-138700D01*
X380517Y-139500D01*
X380360Y-140300D01*
X379890Y-140800D01*
X379342Y-141100D01*
X377383D01*
G01X379342D02*
X380517Y-144000D01*
G01X385250D02*
Y-141300D01*
X383683Y-138000D01*
G01X386817D02*
X385250Y-141300D01*
G01X396205Y-143200D02*
X396832Y-143700D01*
X397537Y-144000D01*
X398163D01*
X398790Y-143700D01*
X399260Y-143200D01*
X399495Y-142500D01*
X399338Y-141800D01*
X398947Y-141200D01*
X398242Y-140800D01*
X397302Y-140600D01*
X396753Y-140200D01*
X396518Y-139500D01*
X396675Y-138800D01*
X397067Y-138300D01*
X397615Y-138000D01*
X398163D01*
X398712Y-138200D01*
X399182Y-138700D01*
G01X404150Y-144000D02*
X403523Y-143900D01*
X402975Y-143500D01*
X402505Y-142900D01*
X402192Y-142200D01*
X402035Y-141400D01*
Y-140600D01*
X402192Y-139800D01*
X402505Y-139100D01*
X402975Y-138500D01*
X403523Y-138100D01*
X404150Y-138000D01*
X404777Y-138100D01*
X405325Y-138500D01*
X405795Y-139100D01*
X406108Y-139800D01*
X406265Y-140600D01*
Y-141400D01*
X406108Y-142200D01*
X405795Y-142900D01*
X405325Y-143500D01*
X404777Y-143900D01*
X404150Y-144000D01*
G01X408883Y-138000D02*
Y-144000D01*
X412017D01*
G01X415027D02*
Y-138000D01*
X416593D01*
X417220Y-138300D01*
X417690Y-138700D01*
X418082Y-139300D01*
X418395Y-140000D01*
X418473Y-141000D01*
X418395Y-142000D01*
X418082Y-142700D01*
X417690Y-143300D01*
X417220Y-143700D01*
X416593Y-144000D01*
X415027D01*
G01X424617D02*
X421483D01*
Y-138000D01*
X424617D01*
G01X423363Y-140900D02*
X421483D01*
G01X427783Y-144000D02*
Y-138000D01*
X429742D01*
X430368Y-138300D01*
X430760Y-138700D01*
X430917Y-139500D01*
X430760Y-140300D01*
X430290Y-140800D01*
X429742Y-141100D01*
X427783D01*
G01X429742D02*
X430917Y-144000D01*
G01X433613D02*
Y-138000D01*
X435650Y-143000D01*
X437687Y-138000D01*
Y-144000D01*
G01X439992D02*
X441950Y-138000D01*
X443908Y-144000D01*
G01X443203Y-141900D02*
X440697D01*
G01X446605Y-143200D02*
X447232Y-143700D01*
X447937Y-144000D01*
X448563D01*
X449190Y-143700D01*
X449660Y-143200D01*
X449895Y-142500D01*
X449738Y-141800D01*
X449347Y-141200D01*
X448642Y-140800D01*
X447702Y-140600D01*
X447153Y-140200D01*
X446918Y-139500D01*
X447075Y-138800D01*
X447467Y-138300D01*
X448015Y-138000D01*
X448563D01*
X449112Y-138200D01*
X449582Y-138700D01*
G01X452827Y-144000D02*
Y-138000D01*
G01X455803D02*
X452827Y-141700D01*
G01X456273Y-144000D02*
X454158Y-140000D01*
G01X458000Y-147500D02*
Y-127500D01*
G01X457500Y-77500D02*
Y-47500D01*
G01X507500Y-147500D02*
Y-127500D01*
G54D43*
X28760Y389670D03*
X36240D03*
X32500Y398330D03*
X49600Y572770D03*
X45860Y581430D03*
X53340D03*
X81740Y565830D03*
X74260D03*
X78000Y557170D03*
X177760Y189330D03*
X181500Y180670D03*
X185240Y189330D03*
X208500Y181670D03*
X212240Y190330D03*
X204760D03*
X314260Y542170D03*
X321740D03*
X318000Y550830D03*
G54D70*
X60488Y679000D03*
Y674000D03*
Y669000D03*
Y664000D03*
G54D25*
X4100Y285900D03*
X14100D03*
G54D61*
X52000Y639000D03*
Y652000D03*
G54D16*
X3740Y51840D03*
Y49281D03*
Y46722D03*
Y44163D03*
Y41604D03*
Y370796D03*
Y368237D03*
Y365678D03*
Y363119D03*
Y360560D03*
G54D34*
X19170Y42039D03*
X21729D03*
X24289D03*
X26848D03*
Y56605D03*
X24289D03*
X21729D03*
X19170D03*
G54D109*
X261309Y563832D03*
Y560092D03*
Y556352D03*
X271545D03*
Y560092D03*
Y563832D03*
G54D52*
X48406Y128724D03*
Y219276D03*
X301331Y569385D03*
Y659937D03*
G54D119*
G01X282500Y-147500D02*
Y-47500D01*
X682500D01*
G01D02*
Y-147500D01*
X282500D01*
G54D44*
X11843Y423118D03*
Y419181D03*
Y415244D03*
Y411307D03*
Y442803D03*
Y438866D03*
Y434929D03*
Y430992D03*
Y427055D03*
Y466425D03*
Y462488D03*
Y458551D03*
Y454614D03*
Y450677D03*
Y446740D03*
Y486110D03*
Y482173D03*
Y478236D03*
Y474299D03*
Y470362D03*
Y509732D03*
Y505795D03*
Y501858D03*
Y497921D03*
Y493984D03*
Y490047D03*
Y525480D03*
Y521543D03*
Y517606D03*
Y513669D03*
X337952Y423218D03*
Y427155D03*
Y431092D03*
Y435029D03*
Y438966D03*
Y442903D03*
Y446840D03*
Y450777D03*
Y454714D03*
Y458651D03*
Y462588D03*
Y466525D03*
Y470462D03*
Y474399D03*
Y478336D03*
Y482273D03*
Y486210D03*
Y490147D03*
Y494084D03*
Y498021D03*
Y501958D03*
Y505895D03*
Y509832D03*
Y513769D03*
Y517706D03*
Y521643D03*
Y525580D03*
Y529517D03*
Y533454D03*
Y537391D03*
G54D53*
X42800Y291000D03*
X34200Y295000D03*
X42800Y299000D03*
X102700Y484800D03*
Y476800D03*
X111300Y480800D03*
G54D71*
X63130Y685998D03*
X66870D03*
G54D80*
X93500Y671500D03*
X119500D03*
G54D17*
X6976Y68000D03*
X4024D03*
X6976Y64500D03*
X4024D03*
X-1576Y293500D03*
X1376D03*
X7224D03*
Y300500D03*
Y304000D03*
X-1576Y297000D03*
X1376D03*
X7224D03*
X-3024Y388500D03*
X-5976D03*
X-3024Y393000D03*
X-5976D03*
X4724Y547000D03*
X26576Y21300D03*
X23624D03*
X13733Y31522D03*
X16685D03*
X28824Y267500D03*
X19224Y293000D03*
X22176D03*
X10176Y293500D03*
Y300500D03*
Y304000D03*
Y297000D03*
X26976Y536500D03*
X24024D03*
X26976Y540100D03*
X24024D03*
X7676Y547000D03*
X27624Y605500D03*
X31776Y267500D03*
X47524Y302100D03*
X47024Y305600D03*
X49976D03*
X35024Y414500D03*
X37976D03*
Y418000D03*
X35024D03*
X37976Y421500D03*
X35024D03*
Y425000D03*
X37976D03*
X35024Y428500D03*
X37976D03*
Y432000D03*
X35024D03*
X37976Y435500D03*
X35024D03*
X37976Y439000D03*
X35024D03*
X36476Y458300D03*
X33524D03*
X36476Y446800D03*
X33524D03*
X30576Y605500D03*
X69024Y126500D03*
X71976D03*
X69024Y130500D03*
X71976D03*
X69524Y171500D03*
Y201000D03*
Y191000D03*
X59824Y293200D03*
X62776D03*
X54776Y289300D03*
X51824D03*
X54776Y293100D03*
X51824D03*
X50476Y302100D03*
X60024Y334000D03*
X62976D03*
X56776Y562300D03*
X53824D03*
X65624Y617000D03*
X68576D03*
X65924Y634500D03*
X68876D03*
X62124Y623000D03*
X65076D03*
X87024Y106700D03*
X89976D03*
X72476Y171500D03*
Y201000D03*
Y191000D03*
X88049Y350800D03*
X91001D03*
X91049Y407993D03*
X87974Y452900D03*
X90926D03*
X76476Y589600D03*
X73524D03*
X110024Y279500D03*
X112976D03*
Y283000D03*
X110024D03*
X94349Y350800D03*
X97301D03*
X108024Y350700D03*
X110976D03*
X114574Y350800D03*
X109114Y407728D03*
X112066D03*
X94001Y407993D03*
X103476Y452893D03*
X100524D03*
X94324Y452900D03*
X97276D03*
X115124Y452893D03*
X111024Y472000D03*
X113976D03*
X102676D03*
X99724D03*
X128524Y211500D03*
X131476D03*
X136024D03*
X129024Y247000D03*
X131976D03*
X126024Y310500D03*
X128976D03*
X126024Y314500D03*
X128976D03*
X126024Y318000D03*
X128976D03*
X117526Y350800D03*
X131976D03*
X129024D03*
X123926D03*
X120974D03*
X135324D03*
X124324Y452893D03*
X127276D03*
X133476D03*
X130524D03*
X118076D03*
X134976Y498500D03*
X132024D03*
X135476Y504500D03*
X132524D03*
X135674Y491373D03*
X132722D03*
X133976Y495000D03*
X131024D03*
X133476Y516000D03*
X130524D03*
X135476Y510500D03*
X132524D03*
X132918Y519673D03*
X129966D03*
X118276Y599300D03*
X115324D03*
X135776Y625300D03*
X132824D03*
X138976Y211500D03*
X138276Y350800D03*
X155679Y445305D03*
X148776Y621300D03*
X145824D03*
X172976Y209500D03*
X170024D03*
X158631Y445305D03*
X162024Y510000D03*
X164976D03*
X159524Y506000D03*
X162476D03*
X159524Y516000D03*
X162476D03*
X179576Y620400D03*
X176624D03*
X186976Y169000D03*
X184024D03*
X180524Y195000D03*
X183476D03*
X182524Y464500D03*
X185476D03*
X185376Y610200D03*
X182424D03*
X197076Y646400D03*
X194124D03*
X211476Y176500D03*
X208524D03*
Y169500D03*
X211476D03*
Y173000D03*
X208524D03*
X207024Y195500D03*
X209976D03*
X204024Y280000D03*
X206976D03*
Y283500D03*
X204024D03*
X210076Y642400D03*
X207124D03*
X207424Y649200D03*
X210376D03*
X237476Y435500D03*
X234524D03*
X237976Y658000D03*
X235024D03*
X237976Y654000D03*
X235024D03*
X237976Y662000D03*
X235024D03*
X265976Y203700D03*
X263024D03*
X251676Y395750D03*
X248724D03*
X255176Y570600D03*
X252224D03*
X255176Y566800D03*
X252224D03*
X249924Y585400D03*
X252876D03*
X277924Y503900D03*
X280876D03*
X271724Y497500D03*
X274676D03*
X280976D03*
X278024D03*
X270224Y587400D03*
X273176D03*
Y595900D03*
X270224D03*
X269376Y658200D03*
X266424D03*
X269376Y661700D03*
X266424D03*
X306976Y499000D03*
X304024D03*
X330524Y399500D03*
X329476Y514000D03*
X326524D03*
X312524Y531500D03*
X315476D03*
Y527500D03*
X312524D03*
X318476Y535500D03*
X315524D03*
X333476Y399500D03*
G54D62*
X31492Y620239D03*
Y623783D03*
G54D35*
X13809Y45673D03*
Y43571D03*
X26949Y419000D03*
X26149Y430000D03*
X28251D03*
X29051Y419000D03*
X66549Y614000D03*
X68651D03*
X129000Y205449D03*
Y207551D03*
X136000Y199449D03*
Y201551D03*
X147551Y250500D03*
X145449D03*
X147551Y253500D03*
X145449D03*
X161405Y352754D03*
Y354856D03*
X163905Y352754D03*
Y354856D03*
X178051Y386752D03*
Y389902D03*
Y393051D03*
Y405650D03*
X177651Y408799D03*
X178051Y411949D03*
Y415099D03*
X158617Y448332D03*
Y450434D03*
X188551Y382551D03*
Y384653D03*
X185402Y382551D03*
Y384653D03*
X182252Y382551D03*
Y384653D03*
X180153Y386752D03*
Y389902D03*
Y393051D03*
X191701Y395150D03*
Y397252D03*
X185402Y388851D03*
Y390953D03*
X188551Y388851D03*
Y390953D03*
X191701Y388851D03*
Y390953D03*
X188551Y395150D03*
Y397252D03*
X185402Y395150D03*
Y397252D03*
X197456Y380855D03*
X195354D03*
X192600Y386151D03*
Y384049D03*
X184056Y408800D03*
X181954D03*
X180153Y405650D03*
X179753Y408799D03*
X180153Y411949D03*
Y415099D03*
X185402Y419299D03*
Y417197D03*
X191701Y419299D03*
Y417197D03*
X188551Y419299D03*
Y417197D03*
X191705Y406401D03*
Y404299D03*
X188551Y410898D03*
Y413000D03*
Y406701D03*
Y404599D03*
X191605Y408651D03*
Y410753D03*
X185402Y410998D03*
Y413100D03*
Y406601D03*
Y404499D03*
X197600Y421849D03*
X195215D03*
X197600Y423951D03*
X195215D03*
X213748Y393261D03*
Y391159D03*
X210598Y393261D03*
Y391159D03*
X207449Y393261D03*
Y391159D03*
X204299Y393261D03*
Y391159D03*
X201150Y395462D03*
Y397564D03*
X204299Y395462D03*
Y397564D03*
X207449Y395462D03*
Y397564D03*
X213748Y395462D03*
Y397564D03*
X201150Y393261D03*
Y391159D03*
X207449Y386201D03*
Y388303D03*
X210598Y386201D03*
Y388303D03*
X201150Y386201D03*
Y388303D03*
X204299Y386201D03*
Y388303D03*
X213748Y386201D03*
Y388303D03*
X217254Y383305D03*
X219356D03*
X217183Y393402D03*
X219285D03*
X220649Y399900D03*
X217183Y395816D03*
X219285D03*
X210598Y395462D03*
Y397564D03*
X220649Y402000D03*
X204299Y384001D03*
Y381899D03*
X216300Y386249D03*
Y388351D03*
X204299Y419299D03*
Y417197D03*
X210598Y407277D03*
Y405175D03*
X204299Y413000D03*
Y410898D03*
X210598Y413000D03*
Y410898D03*
X207449Y407277D03*
Y405175D03*
X204299Y407277D03*
Y405175D03*
X207449Y413000D03*
Y410898D03*
X201500Y406099D03*
Y408201D03*
X216551Y414500D03*
X214449D03*
X220600Y420901D03*
Y418799D03*
X209200Y418699D03*
Y420801D03*
X212000Y418699D03*
Y420801D03*
X216474Y412350D03*
X214372D03*
X214250Y418699D03*
Y420801D03*
X206700Y418699D03*
Y420801D03*
X215000Y405949D03*
Y408051D03*
X216450Y418199D03*
Y420301D03*
X219620Y413001D03*
Y410899D03*
X202724Y427051D03*
Y424949D03*
X222751Y399900D03*
Y402000D03*
X234500Y413449D03*
Y415551D03*
X222800Y420901D03*
Y418799D03*
X225500Y421949D03*
Y424051D03*
X252500Y417051D03*
Y414949D03*
X270551Y239000D03*
X268449D03*
X270551Y244000D03*
X268449D03*
X270551Y254000D03*
X268449D03*
X270551Y259000D03*
X268449D03*
X286749Y291300D03*
X276000Y465949D03*
Y468051D03*
X288851Y291300D03*
G54D26*
X-4890Y401858D03*
Y534142D03*
X354685Y414556D03*
Y546840D03*
G54D81*
X102550Y135792D03*
Y234192D03*
G54D45*
X24331Y423524D03*
X26300D03*
X28269Y426476D03*
X26300D03*
X24331D03*
X138531Y250524D03*
X140500D03*
X142469Y253476D03*
X140500D03*
X138531D03*
G54D72*
X83140Y49520D03*
Y44480D03*
X103140Y49520D03*
X113860D03*
Y44480D03*
X103140D03*
X93860Y49520D03*
Y44480D03*
X124140Y49520D03*
X134860D03*
Y44480D03*
X124140D03*
X144140Y49520D03*
X154860D03*
Y44480D03*
X144140D03*
G54D27*
X-4600Y478594D03*
Y490406D03*
G54D54*
X52000Y356500D03*
Y366500D03*
Y376500D03*
Y386500D03*
Y396500D03*
Y406500D03*
Y416500D03*
Y426500D03*
Y436500D03*
X62000Y356500D03*
Y366500D03*
Y376500D03*
Y386500D03*
Y396500D03*
Y406500D03*
Y416500D03*
Y426500D03*
Y436500D03*
Y446500D03*
G54D18*
X-6306Y76773D03*
X-4000Y136863D03*
Y216133D03*
X151686Y76773D03*
X321202Y314382D03*
Y472374D03*
G54D36*
X20820Y87245D03*
X45820D03*
X99520D03*
X124520D03*
G54D63*
X42000Y655000D03*
G54D90*
X156354Y373954D03*
X157746Y367854D03*
X157700Y377903D03*
X158130Y397725D03*
X157025Y410665D03*
X174200Y362900D03*
X168079Y375728D03*
X171228Y378878D03*
X164929Y372579D03*
X168079Y369429D03*
X177528D03*
X174378Y372579D03*
X158700Y362500D03*
X164929Y378878D03*
X177528Y375728D03*
X174378Y382028D03*
X168079Y397776D03*
X174378Y391476D03*
X168079Y382028D03*
X164929Y388327D03*
X168079Y391476D03*
X171228Y385177D03*
X164929Y394626D03*
X171228D03*
Y416673D03*
X177509Y422954D03*
X174378Y404075D03*
X164929Y416673D03*
X161780Y419823D03*
X171228Y407224D03*
X168079Y419823D03*
X164929Y404075D03*
X168079Y410374D03*
X164929Y422972D03*
X174378Y419823D03*
Y410374D03*
X161780Y438721D03*
X164850Y441949D03*
X177528Y432421D03*
X161780Y429272D03*
X164929Y435571D03*
X171230Y432425D03*
X168079Y426122D03*
X174378Y429272D03*
X183827Y369429D03*
X180677Y378878D03*
X201150Y362500D03*
X183827Y375728D03*
X190126Y378878D03*
Y369429D03*
X186976Y372579D03*
X193276D03*
X199575D03*
X180677D03*
X199575Y429272D03*
X193276Y438721D03*
X199575Y435571D03*
X186976Y426122D03*
X183827Y432421D03*
X180677Y438721D03*
X193276Y432421D03*
X186976Y438721D03*
X180677Y429272D03*
X190126Y435571D03*
Y429272D03*
X218472Y378878D03*
X209024Y372579D03*
X202724Y378878D03*
X205874Y375728D03*
X215323D03*
X221622Y372579D03*
X209000Y382028D03*
X218472Y407224D03*
Y438721D03*
X212173Y432421D03*
X215323Y435571D03*
X209024D03*
Y426122D03*
X205874Y432421D03*
X221622D03*
Y441870D03*
X227921Y372579D03*
X224772Y375728D03*
Y369429D03*
X231071Y375728D03*
X227921Y378878D03*
X231071Y397776D03*
Y385177D03*
X227921Y388327D03*
X224772Y394626D03*
Y382028D03*
X231071Y391476D03*
X234221Y407224D03*
X224772Y410374D03*
X231071Y419823D03*
X227921Y407224D03*
Y413524D03*
X231071Y429272D03*
X237370D03*
X235795Y439346D03*
X227921Y432421D03*
X234221Y426122D03*
X227921Y441870D03*
X224772Y435571D03*
G54D64*
X42079Y679000D03*
X51921D03*
G54D37*
X22670Y308940D03*
Y301460D03*
X31330Y305200D03*
X89730Y537010D03*
Y544490D03*
X81070Y540750D03*
X121970Y482440D03*
Y474960D03*
X130630Y478700D03*
G54D19*
X6725Y75985D03*
X4757D03*
X6725Y98505D03*
X4757D03*
X28379Y75985D03*
X26410D03*
X24442D03*
X22473D03*
X20505D03*
X18536D03*
X16568D03*
X14599D03*
X12631D03*
X10662D03*
X8694D03*
X28379Y98505D03*
X26410D03*
X24442D03*
X22473D03*
X20505D03*
X18536D03*
X16568D03*
X14599D03*
X12631D03*
X10662D03*
X8694D03*
X44127Y75985D03*
X50032D03*
X48064D03*
X46095D03*
X42158D03*
X40190D03*
X38221D03*
X36253D03*
X34284D03*
X32316D03*
X30347D03*
X50032Y98505D03*
X48064D03*
X46095D03*
X44127D03*
X42158D03*
X40190D03*
X38221D03*
X36253D03*
X34284D03*
X32316D03*
X30347D03*
X61843Y75985D03*
X59875D03*
X57906D03*
X55938D03*
X53969D03*
X52001D03*
X61843Y98505D03*
X59875D03*
X57906D03*
X55938D03*
X53969D03*
X52001D03*
X91371Y75985D03*
X89402D03*
X87434D03*
X85465D03*
X83497D03*
X91371Y98505D03*
X89402D03*
X87434D03*
X85465D03*
X83497D03*
X113024Y75985D03*
X111056D03*
X109087D03*
X107119D03*
X105150D03*
X103182D03*
X101213D03*
X99245D03*
X97276D03*
X95308D03*
X93339D03*
X113024Y98505D03*
X111056D03*
X109087D03*
X107119D03*
X105150D03*
X103182D03*
X101213D03*
X99245D03*
X97276D03*
X95308D03*
X93339D03*
X134678Y75985D03*
X132709D03*
X130741D03*
X128772D03*
X126804D03*
X124835D03*
X122867D03*
X120898D03*
X118930D03*
X116961D03*
X114993D03*
X134678Y98505D03*
X132709D03*
X130741D03*
X128772D03*
X126804D03*
X124835D03*
X122867D03*
X120898D03*
X118930D03*
X116961D03*
X114993D03*
X140583Y75985D03*
X138615D03*
X136646D03*
X140583Y98505D03*
X138615D03*
X136646D03*
G54D46*
X28269Y423602D03*
X142469Y250602D03*
G54D73*
X85980Y49520D03*
X88500D03*
X91020D03*
Y44480D03*
X88500D03*
X85980D03*
X105980Y49520D03*
X108500D03*
X111020D03*
Y44480D03*
X108500D03*
X105980D03*
X126980Y49520D03*
X129500D03*
X132020D03*
Y44480D03*
X129500D03*
X126980D03*
X146980Y49520D03*
X149500D03*
X152020D03*
Y44480D03*
X149500D03*
X146980D03*
G54D28*
X4728Y543000D03*
X1228Y596500D03*
X4772D03*
X8272Y543000D03*
X18772Y553000D03*
X15228D03*
X27217Y573492D03*
X13272Y596500D03*
X9728D03*
X30761Y573492D03*
X84772Y685500D03*
X81228D03*
G54D55*
X52000Y446500D03*
G54D82*
X108800Y264500D03*
Y326500D03*
G54D91*
X147601Y649066D03*
X267910Y574787D03*
G54D92*
X172470Y262764D03*
G54D65*
X59430Y142307D03*
Y135614D03*
Y161677D03*
Y156756D03*
Y151835D03*
Y146913D03*
Y181402D03*
Y171520D03*
Y186323D03*
Y201087D03*
Y191244D03*
Y196165D03*
Y210929D03*
X290307Y577732D03*
Y587574D03*
Y592496D03*
Y597417D03*
Y607259D03*
Y617141D03*
Y602338D03*
Y626984D03*
Y631905D03*
Y636826D03*
Y641748D03*
Y646354D03*
Y653047D03*
G54D47*
X22500Y507929D03*
Y514071D03*
X132500Y251429D03*
Y257571D03*
G54D56*
X38660Y463041D03*
X46140D03*
Y465600D03*
X38660Y468159D03*
X46140D03*
X57360Y463041D03*
X64840D03*
Y465600D03*
X57360Y468159D03*
X64840D03*
G54D38*
X17500Y305224D03*
Y308176D03*
X13000Y324024D03*
Y326976D03*
X17000Y324024D03*
Y326976D03*
X27400Y379476D03*
Y376524D03*
X27500Y399524D03*
X20500Y394976D03*
Y392024D03*
X14000D03*
Y394976D03*
X27500Y402476D03*
X19000Y412524D03*
Y415476D03*
X22500Y524524D03*
Y527476D03*
X19000Y521524D03*
Y524476D03*
X15500Y623476D03*
Y620524D03*
X11600Y623476D03*
Y620524D03*
X11300Y677524D03*
Y680476D03*
X18000Y680576D03*
Y677624D03*
X32209Y46546D03*
Y49498D03*
X48000Y311976D03*
Y309024D03*
X31100Y376524D03*
Y379476D03*
X46140Y474334D03*
Y477286D03*
X37800D03*
Y474334D03*
X34500Y589024D03*
Y591976D03*
X43500Y628976D03*
Y626024D03*
X32000Y677624D03*
Y680576D03*
X54800Y296624D03*
Y299576D03*
X61500Y329976D03*
Y327024D03*
Y319024D03*
Y321976D03*
X60000Y586024D03*
Y588976D03*
X63500D03*
Y586024D03*
X60300Y646976D03*
Y644024D03*
X64100Y647076D03*
Y644124D03*
X82500Y29976D03*
Y27024D03*
X86500Y29976D03*
Y27024D03*
X90500Y29976D03*
Y27024D03*
X86500Y36524D03*
Y39476D03*
X82500Y36524D03*
Y39476D03*
X90500Y36524D03*
Y39476D03*
X75300Y60476D03*
Y57524D03*
X80500Y60476D03*
Y57524D03*
X85500Y60476D03*
Y57524D03*
X90500Y60476D03*
Y57524D03*
X82760Y384548D03*
Y387500D03*
Y415976D03*
Y413024D03*
X76300Y482876D03*
Y479924D03*
X86500Y572976D03*
Y570024D03*
X102500Y29976D03*
Y27024D03*
X106500Y29976D03*
Y27024D03*
X110500Y29976D03*
Y27024D03*
X114500Y29976D03*
Y27024D03*
X95000Y29976D03*
Y27024D03*
X102500Y36524D03*
Y39476D03*
X106500Y36524D03*
Y39476D03*
X94500Y36524D03*
Y39476D03*
X110500Y36524D03*
Y39476D03*
X114500Y36524D03*
Y39476D03*
X95500Y60476D03*
Y57524D03*
X112000Y60476D03*
Y57524D03*
X102000Y60476D03*
Y57524D03*
X107000Y60476D03*
Y57524D03*
X106800Y455776D03*
Y452824D03*
X122000Y33024D03*
X127000D03*
X132000D03*
X122000Y35976D03*
X127000D03*
X132000D03*
X117000Y60476D03*
Y57524D03*
X127000Y60476D03*
Y57524D03*
X122000Y60476D03*
Y57524D03*
X132000Y60476D03*
Y57524D03*
X132500Y205024D03*
Y207976D03*
X136000Y205024D03*
Y207976D03*
X118500Y217976D03*
Y215024D03*
X116500Y481224D03*
Y484176D03*
X132900Y594776D03*
Y591824D03*
X136400Y594776D03*
Y591824D03*
X115300Y622324D03*
Y625276D03*
X137000Y33024D03*
X142000D03*
X147000D03*
X152000D03*
X157000D03*
X137000Y35976D03*
X142000D03*
X147000D03*
X152000D03*
X157000D03*
X137000Y60476D03*
Y57524D03*
X157000Y60476D03*
Y57524D03*
X152000Y60476D03*
Y57524D03*
X147000Y60476D03*
Y57524D03*
X142000Y60476D03*
Y57524D03*
X143800Y387476D03*
Y384524D03*
X143640Y415924D03*
Y418876D03*
X143800Y444169D03*
Y441217D03*
X155900Y481876D03*
Y478924D03*
X152000Y478998D03*
Y481950D03*
X148500Y479024D03*
Y481976D03*
X143900Y478124D03*
Y481076D03*
X149500Y495976D03*
Y493024D03*
X153327Y493978D03*
Y491026D03*
X139600Y495376D03*
Y492424D03*
X150500Y519524D03*
Y522476D03*
X144500Y519524D03*
Y522476D03*
X137500Y520524D03*
Y523476D03*
X156500Y521524D03*
Y524476D03*
X139800Y594776D03*
Y591824D03*
X155800Y621524D03*
Y624476D03*
X141600Y629576D03*
Y626624D03*
X165000Y261524D03*
Y264476D03*
X179600Y322976D03*
Y320024D03*
X176000Y322976D03*
Y320024D03*
X172000Y323476D03*
Y320524D03*
X167160Y323660D03*
Y320708D03*
X168700Y463976D03*
Y461024D03*
X174500Y451524D03*
Y454476D03*
X160100Y624476D03*
Y621524D03*
X176600Y643424D03*
Y646376D03*
X181500Y172024D03*
Y174976D03*
X186500Y319024D03*
Y321976D03*
X190000Y319024D03*
Y321976D03*
X196500Y319024D03*
Y321976D03*
X200000Y353976D03*
Y351024D03*
X180000Y359524D03*
Y362476D03*
X187000D03*
Y359524D03*
X183500Y362476D03*
Y359524D03*
X197700Y615876D03*
Y612924D03*
X201100Y615876D03*
Y612924D03*
X194200Y615876D03*
Y612924D03*
X204000Y269476D03*
Y266524D03*
Y294476D03*
Y291524D03*
X213000Y337476D03*
Y334524D03*
Y466524D03*
X221000D03*
X213000Y469476D03*
X221000D03*
X202900Y650676D03*
Y647724D03*
X241000Y435524D03*
Y438476D03*
X240500Y566676D03*
Y563724D03*
X265500Y420976D03*
Y418024D03*
X252500Y421024D03*
X265500Y425524D03*
Y428476D03*
X252500Y423976D03*
X251700Y559976D03*
Y557024D03*
X255200Y559976D03*
Y557024D03*
X246700Y566276D03*
Y563324D03*
X262600Y635776D03*
Y632824D03*
X281500Y298024D03*
Y300976D03*
X285500Y464524D03*
Y467476D03*
X277200Y610124D03*
Y613076D03*
X267400Y635976D03*
Y633024D03*
X313000Y552024D03*
X330500Y537476D03*
Y534524D03*
X313000Y554976D03*
X349500Y384476D03*
Y381524D03*
X341500Y550524D03*
Y553476D03*
X353500Y384476D03*
Y381524D03*
G54D74*
X77300Y269400D03*
Y279400D03*
Y311600D03*
Y321600D03*
G54D83*
X100357Y586861D03*
X267910Y673213D03*
G54D29*
X-990Y542984D03*
Y579598D03*
Y589984D03*
Y626598D03*
X18695Y546528D03*
Y593528D03*
G54D93*
X172120Y272764D03*
X196924D03*
Y262764D03*
G54D39*
X30372Y317000D03*
Y322000D03*
Y327000D03*
Y332000D03*
X52372D03*
Y327000D03*
Y322000D03*
Y317000D03*
G54D66*
X59430Y130693D03*
Y126362D03*
X290307Y657968D03*
Y662299D03*
G54D84*
X114841Y611744D03*
Y618240D03*
X176141Y632844D03*
Y639340D03*
G54D75*
X93500Y273000D03*
Y318000D03*
G54D48*
X26940Y531741D03*
Y524259D03*
X32060Y531741D03*
X29500D03*
Y524259D03*
X32060D03*
G54D57*
X48500Y523500D03*
X68500D03*
X58500D03*
X96950Y163392D03*
Y174192D03*
Y184992D03*
X108150Y168792D03*
Y179592D03*
X96950Y195792D03*
X108150Y190392D03*
Y201192D03*
X306300Y531400D03*
Y541400D03*
Y551400D03*
G54D85*
X123500Y218370D03*
X128500D03*
X133500D03*
Y239630D03*
X128500D03*
X123500D03*
X138500Y218370D03*
Y239630D03*
G54D67*
X52471Y498619D03*
X74519D03*
G54D94*
X173043Y292636D03*
Y291061D03*
Y289486D03*
Y287911D03*
Y286337D03*
Y303659D03*
Y302085D03*
Y300510D03*
Y298935D03*
Y297360D03*
Y295785D03*
Y294211D03*
X196961Y292636D03*
Y291061D03*
Y289486D03*
Y287911D03*
Y286337D03*
Y303659D03*
Y302085D03*
Y300510D03*
Y298935D03*
Y297360D03*
Y295785D03*
Y294211D03*
G54D58*
X44800Y614700D03*
X105500Y554100D03*
X153500Y318000D03*
G54D49*
X30900Y567000D03*
Y614000D03*
G54D76*
X89578Y379799D03*
X92728D03*
X89578Y367201D03*
Y364051D03*
Y360902D03*
X92728Y367201D03*
Y364051D03*
Y360902D03*
X89578Y386098D03*
Y382949D03*
X92728Y386098D03*
Y382949D03*
X89578Y420744D03*
Y417595D03*
X92728Y420744D03*
Y417595D03*
X89578Y442791D03*
Y439642D03*
Y436492D03*
X92728Y442791D03*
Y439642D03*
Y436492D03*
X89578Y423894D03*
X92728D03*
X95877Y379799D03*
X99027D03*
X102176D03*
X105326D03*
X108476D03*
X111625D03*
X114775D03*
X95877Y367201D03*
Y364051D03*
Y360902D03*
X99027Y367201D03*
Y364051D03*
Y360902D03*
X102176Y367201D03*
Y364051D03*
Y360902D03*
X105326Y367201D03*
Y364051D03*
Y360902D03*
X108476Y367201D03*
Y364051D03*
Y360902D03*
X111625Y367201D03*
Y364051D03*
Y360902D03*
X114775Y367201D03*
Y364051D03*
Y360902D03*
X95877Y386098D03*
Y382949D03*
X99027Y386098D03*
Y382949D03*
X102176Y386098D03*
Y382949D03*
X105326Y386098D03*
Y382949D03*
X108476Y386098D03*
Y382949D03*
X111625Y386098D03*
Y382949D03*
X114775Y386098D03*
Y382949D03*
X95877Y420744D03*
Y417595D03*
X99027Y420744D03*
Y417595D03*
X102176Y420744D03*
Y417595D03*
X105326Y420744D03*
Y417595D03*
X108476Y420744D03*
Y417595D03*
X111625Y420744D03*
Y417595D03*
X114775Y420744D03*
Y417595D03*
X95877Y442791D03*
Y439642D03*
Y436492D03*
X99027Y442791D03*
Y439642D03*
Y436492D03*
X102176Y442791D03*
Y439642D03*
Y436492D03*
X105326Y442791D03*
Y439642D03*
Y436492D03*
X108476Y442791D03*
Y439642D03*
Y436492D03*
X111625Y442791D03*
Y439642D03*
Y436492D03*
X114775Y442791D03*
Y439642D03*
Y436492D03*
X95877Y423894D03*
X99027D03*
X102176D03*
X105326D03*
X108476D03*
X111625D03*
X114775D03*
X117924Y379799D03*
X121074D03*
X124224D03*
X127373D03*
X130523D03*
X133672D03*
X117924Y367201D03*
Y364051D03*
Y360902D03*
X121074Y367201D03*
Y364051D03*
Y360902D03*
X124224Y367201D03*
Y364051D03*
Y360902D03*
X127373Y367201D03*
Y364051D03*
Y360902D03*
X130523Y367201D03*
Y364051D03*
Y360902D03*
X133672Y367201D03*
Y364051D03*
Y360902D03*
X117924Y386098D03*
Y382949D03*
X121074Y386098D03*
Y382949D03*
X124224Y386098D03*
Y382949D03*
X127373Y386098D03*
Y382949D03*
X130523Y386098D03*
Y382949D03*
X133672Y386098D03*
Y382949D03*
X117924Y420744D03*
Y417595D03*
X121074Y420744D03*
Y417595D03*
X124224Y420744D03*
Y417595D03*
X127373Y420744D03*
Y417595D03*
X130523Y420744D03*
Y417595D03*
X133672Y420744D03*
Y417595D03*
X117924Y442791D03*
Y439642D03*
Y436492D03*
X121074Y442791D03*
Y439642D03*
Y436492D03*
X124224Y442791D03*
Y439642D03*
Y436492D03*
X127373Y442791D03*
Y439642D03*
Y436492D03*
X130523Y442791D03*
Y439642D03*
Y436492D03*
X133672Y442791D03*
Y439642D03*
Y436492D03*
X117924Y423894D03*
X121074D03*
X124224D03*
X127373D03*
X130523D03*
X133672D03*
X136822Y379799D03*
Y367201D03*
Y364051D03*
Y360902D03*
Y386098D03*
Y382949D03*
Y420744D03*
Y417595D03*
Y442791D03*
Y439642D03*
Y436492D03*
Y423894D03*
G54D68*
X69401Y513875D03*
X65464D03*
X61526D03*
X57589D03*
G54D86*
X131576Y610300D03*
X192876Y631400D03*
G54D95*
X176341Y283039D03*
X177915D03*
X176341Y306957D03*
X177915D03*
X179490Y283039D03*
X181065D03*
X182640D03*
X184215D03*
X185789D03*
X187364D03*
X188939D03*
X190514D03*
X192089D03*
X193663D03*
X179490Y306957D03*
X181065D03*
X182640D03*
X184215D03*
X185789D03*
X187364D03*
X188939D03*
X190514D03*
X192089D03*
X193663D03*
G54D77*
X78500Y523500D03*
X96950Y206592D03*
X306300Y521400D03*
G54D59*
X44800Y604700D03*
X143500Y273000D03*
Y283000D03*
Y293000D03*
X153500Y278000D03*
Y288000D03*
X143500Y303000D03*
Y313000D03*
X153500Y298000D03*
Y308000D03*
G54D96*
X185002Y294998D03*
G54D87*
X123800Y615024D03*
Y613450D03*
Y611875D03*
Y610300D03*
Y608725D03*
Y607150D03*
Y605576D03*
X139352D03*
Y607150D03*
Y608725D03*
Y610300D03*
Y611875D03*
Y613450D03*
Y615024D03*
X185100Y636124D03*
Y634550D03*
Y632975D03*
Y631400D03*
Y629825D03*
Y628250D03*
Y626676D03*
X200652D03*
Y628250D03*
Y629825D03*
Y631400D03*
Y632975D03*
Y634550D03*
Y636124D03*
G54D69*
X75114Y671500D03*
G54D78*
X92744Y554100D03*
X118256D03*
G54D79*
X77500Y575200D03*
X81500Y583800D03*
X73500D03*
X175500Y204800D03*
X167500D03*
X171500Y196200D03*
X194500Y205800D03*
X198500Y197200D03*
X202500Y205800D03*
X328500Y542700D03*
X336500D03*
X332500Y551300D03*
G54D88*
X126852Y602524D03*
X128426D03*
X130001D03*
X131576D03*
X133151D03*
X134726D03*
Y618076D03*
X133151D03*
X131576D03*
X130001D03*
X128426D03*
X126852D03*
X136300Y602524D03*
Y618076D03*
X188152Y623624D03*
X189726D03*
X191301D03*
X192876D03*
X194451D03*
X196026D03*
X197600D03*
Y639176D03*
X196026D03*
X194451D03*
X192876D03*
X191301D03*
X189726D03*
X188152D03*
G54D97*
X169449Y437761D03*
X167361Y439849D03*
G54D98*
X173816Y576362D03*
Y671638D03*
G54D89*
X130988Y679700D03*
X142012D03*
X232988Y573000D03*
X244012D03*
X233988Y677000D03*
X245012D03*
G54D99*
X182272Y419985D03*
X181728Y422015D03*
M02*
